{
.appVersion = "3039";
DisplayStrings = (
"/la-ethiopic.etcp",
"/lu-ethiopic.etcp",
"/li-ethiopic.etcp",
"/laa-ethiopic.etcp",
"/lee-ethiopic.etcp",
"/le-ethiopic.etcp",
"/lo-ethiopic.etcp",
"/lwa-ethiopic.etcp",
"/hhaa-ethiopic.etcp",
"/hhee-ethiopic.etcp",
"/hho-ethiopic.etcp",
"/hhwa-ethiopic.etcp",
"/ma-ethiopic.etcp",
"/mu-ethiopic.etcp",
"/mi-ethiopic.etcp",
"/mee-ethiopic.etcp",
"/me-ethiopic.etcp",
"/mo-ethiopic.etcp",
"/mwa-ethiopic.etcp",
"/szu-ethiopic.etcp",
"/ri-ethiopic.etcp",
"/ree-ethiopic.etcp",
"/re-ethiopic.etcp",
"/ro-ethiopic.etcp",
"/ba.base/sa-ethiopic.etcp",
"/sa-ethiopic.etcp",
"/hu0.accent/su-ethiopic.etcp",
"/su-ethiopic.etcp",
"/si-ethiopic.etcp",
"/saa-ethiopic.etcp",
"/see-ethiopic.etcp/hee-ethiopic/lee-ethiopic/szee-ethiopic/see-ethiopic/shee-ethiopic/bee-ethiopic/vee-ethiopic/tee-ethiopic/cee-ethiopic/xee-ethiopic/nee-ethiopic/nyee-ethiopic/eeGlottal-ethiopic/kee-ethiopic/kxee-ethiopic/eePharyngeal-ethiopic/zee-ethiopic/zhee-ethiopic/yee-ethiopic/dee-ethiopic/ddee-ethiopic/jee-ethiopic/gee-ethiopic/ggee-ethiopic/phee-ethiopic/tsee-ethiopic/tzee-ethiopic/hee-ethiopic.etcp/lee-ethiopic.etcp/szee-ethiopic.etcp/bee-ethiopic.etcp/tee-ethiopic.etcp/nee-ethiopic.etcp",
"/see-ethiopic.etcp",
"/so-ethiopic",
"/ba-ethiopic",
"/se-ethiopic.etcp",
"/so-ethiopic.etcp",
"/swa-ethiopic.etcp",
"/_sha.caps/sha-ethiopic.etcp",
"/_sha.caps/sha-ethiopic.etcp",
"/sha-ethiopic.etcp",
"/shaa-ethiopic.etcp",
"/shee-ethiopic.etcp",
"/she-ethiopic.etcp",
"/sho-ethiopic.etcp",
"/shwa-ethiopic.etcp",
"/qa-ethiopic.etcp/wu-ethiopic.etcp/wi-ethiopic.etcp/waa-ethiopic.etcp/wee-ethiopic.etcp/we-ethiopic.etcp/wa-ethiopic.etcp/wo-ethiopic.etcp/woa-ethiopic.etcp",

glyphs = (
{
glyphname = .notdef;
lastChange = "2020-11-29 18:16:05 +0000";
layers = (
{
layerId = "A9B054E9-1A63-4AEF-9EE1-561B1DFE8422";
paths = (
{
closed = 1;
nodes = (
"808 0 LINE",
"808 1456 LINE",
"100 1456 LINE",
"100 0 LINE"
);
},
{
closed = 1;
nodes = (
"451 660 LINE",
"709 54 LINE",
"194 54 LINE"
);
},
{
closed = 1;
nodes = (
"154 1359 LINE",
"422 728 LINE",
"154 96 LINE"
);
},
{
closed = 1;
nodes = (
"480 728 LINE",
"754 1371 LINE",
"754 84 LINE"
);
},
{
closed = 1;
nodes = (
"194 1402 LINE",
"709 1402 LINE",
"451 796 LINE"
);
}
);
userData = {
assembly = "PUSHB[ ]	/* 3 values pushed */
12 16 17 
SRP1[ ]	/* SetRefPoint1 */
SRP2[ ]	/* SetRefPoint2 */
IP[ ]	/* InterpolatePts */
PUSHB[ ]	/* 1 value pushed */
12 
SRP0[ ]	/* SetRefPoint0 */
PUSHB[ ]	/* 1 value pushed */
0 
MDRP[10000]	/* MoveDirectRelPt */
PUSHB[ ]	/* 1 value pushed */
12 
SRP0[ ]	/* SetRefPoint0 */
PUSHB[ ]	/* 1 value pushed */
6 
MDRP[10000]	/* MoveDirectRelPt */
PUSHB[ ]	/* 1 value pushed */
12 
SRP0[ ]	/* SetRefPoint0 */
PUSHB[ ]	/* 1 value pushed */
9 
MDRP[10000]	/* MoveDirectRelPt */
PUSHB[ ]	/* 1 value pushed */
12 
SRP0[ ]	/* SetRefPoint0 */
PUSHB[ ]	/* 1 value pushed */
13 
MDRP[10000]	/* MoveDirectRelPt */
SVTCA[0]	/* SetFreedomAndProjectionVectorToAxis */
PUSHB[ ]	/* 1 value pushed */
0 
RCVT[ ]	/* ReadCVT */
IF[ ]	/* If */
PUSHB[ ]	/* 1 value pushed */
2 
MDAP[1]	/* MoveDirectAbsPt */
ELSE[ ]	/* Else */
PUSHB[ ]	/* 2 values pushed */
2 30 
MIAP[0]	/* MoveIndirectAbsPt */
EIF[ ]	/* EndIf */
PUSHB[ ]	/* 1 value pushed */
0 
RCVT[ ]	/* ReadCVT */
IF[ ]	/* If */
PUSHB[ ]	/* 1 value pushed */
0 
MDAP[1]	/* MoveDirectAbsPt */
ELSE[ ]	/* Else */
PUSHB[ ]	/* 2 values pushed */
0 18 
MIAP[0]	/* MoveIndirectAbsPt */
EIF[ ]	/* EndIf */
PUSHB[ ]	/* 3 values pushed */
4 2 0 
SRP1[ ]	/* SetRefPoint1 */
SRP2[ ]	/* SetRefPoint2 */
IP[ ]	/* InterpolatePts */
PUSHB[ ]	/* 3 values pushed */
5 2 0 
SRP1[ ]	/* SetRefPoint1 */
SRP2[ ]	/* SetRefPoint2 */
IP[ ]	/* InterpolatePts */
PUSHB[ ]	/* 3 values pushed */
7 2 0 
SRP1[ ]	/* SetRefPoint1 */
SRP2[ ]	/* SetRefPoint2 */
IP[ ]	/* InterpolatePts */
PUSHB[ ]	/* 3 values pushed */
8 2 0 
SRP1[ ]	/* SetRefPoint1 */
SRP2[ ]	/* SetRefPoint2 */
IP[ ]	/* InterpolatePts */
PUSHB[ ]	/* 2 values pushed */
10 12 
MIRP[10100]	/* MoveIndirectRelPt */
PUSHB[ ]	/* 3 values pushed */
12 2 0 
SRP1[ ]	/* SetRefPoint1 */
SRP2[ ]	/* SetRefPoint2 */
IP[ ]	/* InterpolatePts */
PUSHB[ ]	/* 3 values pushed */
13 2 0 
SRP1[ ]	/* SetRefPoint1 */
SRP2[ ]	/* SetRefPoint2 */
IP[ ]	/* InterpolatePts */
PUSHB[ ]	/* 1 value pushed */
2 
SRP0[ ]	/* SetRefPoint0 */
PUSHB[ ]	/* 2 values pushed */
14 12 
MIRP[10100]	/* MoveIndirectRelPt */
IUP[0]	/* InterpolateUntPts */
IUP[1]	/* InterpolateUntPts */";
};
width = 908;
},
{
layerId = m002;
paths = (
{
closed = 1;
nodes = (
"808 0 LINE",
"808 1456 LINE",
"100 1456 LINE",
"100 0 LINE"
);
},
{
closed = 1;
nodes = (
"154 1359 LINE",
"422 728 LINE",
"154 96 LINE"
);
},
{
closed = 1;
nodes = (
"451 660 LINE",
"709 54 LINE",
"194 54 LINE"
);
},
{
closed = 1;
nodes = (
"709 1402 LINE",
"451 796 LINE",
"194 1402 LINE"
);
},
{
closed = 1;
nodes = (
"754 1371 LINE",
"754 84 LINE",
"480 728 LINE"
);
}
);
userData = {
assembly = "PUSHB[ ]	/* 3 values pushed */
12 16 17 
SRP1[ ]	/* SetRefPoint1 */
SRP2[ ]	/* SetRefPoint2 */
IP[ ]	/* InterpolatePts */
PUSHB[ ]	/* 1 value pushed */
12 
SRP0[ ]	/* SetRefPoint0 */
PUSHB[ ]	/* 1 value pushed */
0 
MDRP[10000]	/* MoveDirectRelPt */
PUSHB[ ]	/* 1 value pushed */
12 
SRP0[ ]	/* SetRefPoint0 */
PUSHB[ ]	/* 1 value pushed */
6 
MDRP[10000]	/* MoveDirectRelPt */
PUSHB[ ]	/* 1 value pushed */
12 
SRP0[ ]	/* SetRefPoint0 */
PUSHB[ ]	/* 1 value pushed */
9 
MDRP[10000]	/* MoveDirectRelPt */
PUSHB[ ]	/* 1 value pushed */
12 
SRP0[ ]	/* SetRefPoint0 */
PUSHB[ ]	/* 1 value pushed */
13 
MDRP[10000]	/* MoveDirectRelPt */
SVTCA[0]	/* SetFreedomAndProjectionVectorToAxis */
PUSHB[ ]	/* 1 value pushed */
0 
RCVT[ ]	/* ReadCVT */
IF[ ]	/* If */
PUSHB[ ]	/* 1 value pushed */
2 
MDAP[1]	/* MoveDirectAbsPt */
ELSE[ ]	/* Else */
PUSHB[ ]	/* 2 values pushed */
2 30 
MIAP[0]	/* MoveIndirectAbsPt */
EIF[ ]	/* EndIf */
PUSHB[ ]	/* 1 value pushed */
0 
RCVT[ ]	/* ReadCVT */
IF[ ]	/* If */
PUSHB[ ]	/* 1 value pushed */
0 
MDAP[1]	/* MoveDirectAbsPt */
ELSE[ ]	/* Else */
PUSHB[ ]	/* 2 values pushed */
0 18 
MIAP[0]	/* MoveIndirectAbsPt */
EIF[ ]	/* EndIf */
PUSHB[ ]	/* 3 values pushed */
4 2 0 
SRP1[ ]	/* SetRefPoint1 */
SRP2[ ]	/* SetRefPoint2 */
IP[ ]	/* InterpolatePts */
PUSHB[ ]	/* 3 values pushed */
5 2 0 
SRP1[ ]	/* SetRefPoint1 */
SRP2[ ]	/* SetRefPoint2 */
IP[ ]	/* InterpolatePts */
PUSHB[ ]	/* 3 values pushed */
7 2 0 
SRP1[ ]	/* SetRefPoint1 */
SRP2[ ]	/* SetRefPoint2 */
IP[ ]	/* InterpolatePts */
PUSHB[ ]	/* 3 values pushed */
8 2 0 
SRP1[ ]	/* SetRefPoint1 */
SRP2[ ]	/* SetRefPoint2 */
IP[ ]	/* InterpolatePts */
PUSHB[ ]	/* 2 values pushed */
10 12 
MIRP[10100]	/* MoveIndirectRelPt */
PUSHB[ ]	/* 3 values pushed */
12 2 0 
SRP1[ ]	/* SetRefPoint1 */
SRP2[ ]	/* SetRefPoint2 */
IP[ ]	/* InterpolatePts */
PUSHB[ ]	/* 3 values pushed */
13 2 0 
SRP1[ ]	/* SetRefPoint1 */
SRP2[ ]	/* SetRefPoint2 */
IP[ ]	/* InterpolatePts */
PUSHB[ ]	/* 1 value pushed */
2 
SRP0[ ]	/* SetRefPoint0 */
PUSHB[ ]	/* 2 values pushed */
14 12 
MIRP[10100]	/* MoveIndirectRelPt */
IUP[0]	/* InterpolateUntPts */
IUP[1]	/* InterpolateUntPts */";
};
width = 908;
}
);
note = .notdef;
},
{
glyphname = exclam;
lastChange = "2020-11-29 18:16:05 +0000";
layers = (
{
layerId = "A9B054E9-1A63-4AEF-9EE1-561B1DFE8422";
paths = (
{
closed = 1;
nodes = (
"221 401 LINE",
"221 1456 LINE",
"167 1456 LINE",
"167 401 LINE"
);
},
{
closed = 1;
nodes = (
"232.667 -6 OFFCURVE",
"258 18.333 OFFCURVE",
"258 49 CURVE SMOOTH",
"258 79.667 OFFCURVE",
"232.667 105 OFFCURVE",
"202 105 CURVE SMOOTH",
"171.333 105 OFFCURVE",
"147 79.667 OFFCURVE",
"147 49 CURVE SMOOTH",
"147 18.333 OFFCURVE",
"171.333 -6 OFFCURVE",
"202 -6 CURVE SMOOTH"
);
}
);
userData = {
assembly = "SVTCA[0]	/* SetFreedomAndProjectionVectorToAxis */
PUSHB[ ]	/* 1 value pushed */
0 
RCVT[ ]	/* ReadCVT */
IF[ ]	/* If */
PUSHB[ ]	/* 1 value pushed */
2 
MDAP[1]	/* MoveDirectAbsPt */
ELSE[ ]	/* Else */
PUSHB[ ]	/* 2 values pushed */
2 30 
MIAP[0]	/* MoveIndirectAbsPt */
EIF[ ]	/* EndIf */
PUSHB[ ]	/* 1 value pushed */
0 
RCVT[ ]	/* ReadCVT */
IF[ ]	/* If */
PUSHB[ ]	/* 1 value pushed */
11 
MDAP[1]	/* MoveDirectAbsPt */
ELSE[ ]	/* Else */
PUSHB[ ]	/* 2 values pushed */
11 18 
MIAP[0]	/* MoveIndirectAbsPt */
EIF[ ]	/* EndIf */
PUSHB[ ]	/* 2 values pushed */
6 5 
PUSHB[ ]	/* 1 value pushed */
10 
CALL[ ]	/* CallFunction */
IF[ ]	/* If */
POP[ ]	/* PopTopStack */
MDRP[11000]	/* MoveDirectRelPt */
ELSE[ ]	/* Else */
MIRP[10100]	/* MoveIndirectRelPt */
EIF[ ]	/* EndIf */
PUSHB[ ]	/* 3 values pushed */
1 6 2 
SRP1[ ]	/* SetRefPoint1 */
SRP2[ ]	/* SetRefPoint2 */
IP[ ]	/* InterpolatePts */
IUP[0]	/* InterpolateUntPts */
IUP[1]	/* InterpolateUntPts */";
};
width = 527;
},
{
layerId = m002;
paths = (
{
closed = 1;
nodes = (
"347 411 LINE",
"361 1456 LINE",
"167 1456 LINE",
"180 411 LINE"
);
},
{
closed = 1;
nodes = (
"160 33 OFFCURVE",
"197 -11 OFFCURVE",
"269 -11 CURVE SMOOTH",
"341 -11 OFFCURVE",
"379 33 OFFCURVE",
"379 93 CURVE SMOOTH",
"379 153 OFFCURVE",
"341 199 OFFCURVE",
"269 199 CURVE SMOOTH",
"197 199 OFFCURVE",
"160 153 OFFCURVE",
"160 93 CURVE SMOOTH"
);
}
);
userData = {
assembly = "SVTCA[0]	/* SetFreedomAndProjectionVectorToAxis */
PUSHB[ ]	/* 1 value pushed */
0 
RCVT[ ]	/* ReadCVT */
IF[ ]	/* If */
PUSHB[ ]	/* 1 value pushed */
2 
MDAP[1]	/* MoveDirectAbsPt */
ELSE[ ]	/* Else */
PUSHB[ ]	/* 2 values pushed */
2 30 
MIAP[0]	/* MoveIndirectAbsPt */
EIF[ ]	/* EndIf */
PUSHB[ ]	/* 1 value pushed */
0 
RCVT[ ]	/* ReadCVT */
IF[ ]	/* If */
PUSHB[ ]	/* 1 value pushed */
11 
MDAP[1]	/* MoveDirectAbsPt */
ELSE[ ]	/* Else */
PUSHB[ ]	/* 2 values pushed */
11 18 
MIAP[0]	/* MoveIndirectAbsPt */
EIF[ ]	/* EndIf */
PUSHB[ ]	/* 2 values pushed */
6 5 
PUSHB[ ]	/* 1 value pushed */
10 
CALL[ ]	/* CallFunction */
IF[ ]	/* If */
POP[ ]	/* PopTopStack */
MDRP[11000]	/* MoveDirectRelPt */
ELSE[ ]	/* Else */
MIRP[10100]	/* MoveIndirectRelPt */
EIF[ ]	/* EndIf */
PUSHB[ ]	/* 3 values pushed */
1 6 2 
SRP1[ ]	/* SetRefPoint1 */
SRP2[ ]	/* SetRefPoint2 */
IP[ ]	/* InterpolatePts */
IUP[0]	/* InterpolateUntPts */
IUP[1]	/* InterpolateUntPts */";
};
width = 527;
}
);
note = uni0021;
unicode = 0021;
},
{
glyphname = quotedbl;
lastChange = "2020-11-29 18:16:05 +0000";
layers = (
{
layerId = "A9B054E9-1A63-4AEF-9EE1-561B1DFE8422";
paths = (
{
closed = 1;
nodes = (
"401 1122 LINE",
"411 1393 LINE",
"411 1536 LINE",
"357 1536 LINE",
"351 1122 LINE"
);
},
{
closed = 1;
nodes = (
"200 1122 LINE",
"210 1393 LINE",
"210 1536 LINE",
"155 1536 LINE",
"150 1122 LINE"
);
}
);
userData = {
assembly = "SVTCA[0]	/* SetFreedomAndProjectionVectorToAxis */
PUSHB[ ]	/* 1 value pushed */
3 
MDAP[1]	/* MoveDirectAbsPt */
PUSHB[ ]	/* 3 values pushed */
2 10 3 
SRP1[ ]	/* SetRefPoint1 */
SRP2[ ]	/* SetRefPoint2 */
IP[ ]	/* InterpolatePts */
PUSHB[ ]	/* 1 value pushed */
2 
MDAP[1]	/* MoveDirectAbsPt */
PUSHB[ ]	/* 1 value pushed */
7 
MDRP[10000]	/* MoveDirectRelPt */
PUSHB[ ]	/* 1 value pushed */
3 
SRP0[ ]	/* SetRefPoint0 */
PUSHB[ ]	/* 1 value pushed */
8 
MDRP[10000]	/* MoveDirectRelPt */
IUP[0]	/* InterpolateUntPts */
IUP[1]	/* InterpolateUntPts */";
};
width = 655;
},
{
layerId = m002;
paths = (
{
closed = 1;
nodes = (
"517 1042 LINE",
"547 1400 LINE",
"547 1536 LINE",
"407 1536 LINE",
"406 1042 LINE"
);
},
{
closed = 1;
nodes = (
"247 1042 LINE",
"277 1400 LINE",
"277 1536 LINE",
"137 1536 LINE",
"136 1042 LINE"
);
}
);
userData = {
assembly = "SVTCA[0]	/* SetFreedomAndProjectionVectorToAxis */
PUSHB[ ]	/* 1 value pushed */
3 
MDAP[1]	/* MoveDirectAbsPt */
PUSHB[ ]	/* 3 values pushed */
2 10 3 
SRP1[ ]	/* SetRefPoint1 */
SRP2[ ]	/* SetRefPoint2 */
IP[ ]	/* InterpolatePts */
PUSHB[ ]	/* 1 value pushed */
2 
MDAP[1]	/* MoveDirectAbsPt */
PUSHB[ ]	/* 1 value pushed */
7 
MDRP[10000]	/* MoveDirectRelPt */
PUSHB[ ]	/* 1 value pushed */
3 
SRP0[ ]	/* SetRefPoint0 */
PUSHB[ ]	/* 1 value pushed */
8 
MDRP[10000]	/* MoveDirectRelPt */
IUP[0]	/* InterpolateUntPts */
IUP[1]	/* InterpolateUntPts */";
};
width = 655;
}
);
leftKerningGroup = quotedbl;
note = uni0022;
rightKerningGroup = quotedbl;
unicode = 0022;
},
{
glyphname = numbersign;
lastChange = "2020-11-29 18:16:05 +0000";
layers = (
{
layerId = "A9B054E9-1A63-4AEF-9EE1-561B1DFE8422";
paths = (
{
closed = 1;
nodes = (
"304 0 LINE",
"378 410 LINE",
"742 410 LINE",
"667 0 LINE",
"723 0 LINE",
"798 410 LINE",
"1092 410 LINE",
"1092 462 LINE",
"807 462 LINE",
"903 986 LINE",
"1167 986 LINE",
"1167 1040 LINE",
"913 1040 LINE",
"989 1456 LINE",
"933 1456 LINE",
"857 1040 LINE",
"492 1040 LINE",
"568 1456 LINE",
"512 1456 LINE",
"437 1040 LINE",
"127 1040 LINE",
"127 986 LINE",
"427 986 LINE",
"332 462 LINE",
"51 462 LINE",
"51 410 LINE",
"322 410 LINE",
"248 0 LINE"
);
},
{
closed = 1;
nodes = (
"482 986 LINE",
"847 986 LINE",
"751 462 LINE",
"388 462 LINE"
);
}
);
userData = {
assembly = "SVTCA[0]	/* SetFreedomAndProjectionVectorToAxis */
PUSHB[ ]	/* 1 value pushed */
0 
RCVT[ ]	/* ReadCVT */
IF[ ]	/* If */
PUSHB[ ]	/* 1 value pushed */
12 
MDAP[1]	/* MoveDirectAbsPt */
ELSE[ ]	/* Else */
PUSHB[ ]	/* 2 values pushed */
12 30 
MIAP[0]	/* MoveIndirectAbsPt */
EIF[ ]	/* EndIf */
PUSHB[ ]	/* 1 value pushed */
0 
RCVT[ ]	/* ReadCVT */
IF[ ]	/* If */
PUSHB[ ]	/* 1 value pushed */
16 
MDAP[1]	/* MoveDirectAbsPt */
ELSE[ ]	/* Else */
PUSHB[ ]	/* 2 values pushed */
16 30 
MIAP[0]	/* MoveIndirectAbsPt */
EIF[ ]	/* EndIf */
PUSHB[ ]	/* 1 value pushed */
0 
RCVT[ ]	/* ReadCVT */
IF[ ]	/* If */
PUSHB[ ]	/* 1 value pushed */
2 
MDAP[1]	/* MoveDirectAbsPt */
ELSE[ ]	/* Else */
PUSHB[ ]	/* 2 values pushed */
2 18 
MIAP[0]	/* MoveIndirectAbsPt */
EIF[ ]	/* EndIf */
PUSHB[ ]	/* 1 value pushed */
0 
RCVT[ ]	/* ReadCVT */
IF[ ]	/* If */
PUSHB[ ]	/* 1 value pushed */
26 
MDAP[1]	/* MoveDirectAbsPt */
ELSE[ ]	/* Else */
PUSHB[ ]	/* 2 values pushed */
26 18 
MIAP[0]	/* MoveIndirectAbsPt */
EIF[ ]	/* EndIf */
PUSHB[ ]	/* 3 values pushed */
29 12 2 
SRP1[ ]	/* SetRefPoint1 */
SRP2[ ]	/* SetRefPoint2 */
IP[ ]	/* InterpolatePts */
RUTG[ ]	/* RoundUpToGrid */
PUSHB[ ]	/* 1 value pushed */
29 
MDAP[1]	/* MoveDirectAbsPt */
RTG[ ]	/* RoundToGrid */
PUSHB[ ]	/* 2 values pushed */
0 3 
PUSHB[ ]	/* 1 value pushed */
10 
CALL[ ]	/* CallFunction */
IF[ ]	/* If */
POP[ ]	/* PopTopStack */
MDRP[11000]	/* MoveDirectRelPt */
ELSE[ ]	/* Else */
MIRP[10100]	/* MoveIndirectRelPt */
EIF[ ]	/* EndIf */
PUSHB[ ]	/* 1 value pushed */
4 
MDRP[10000]	/* MoveDirectRelPt */
PUSHB[ ]	/* 1 value pushed */
29 
SRP0[ ]	/* SetRefPoint0 */
PUSHB[ ]	/* 1 value pushed */
6 
MDRP[10000]	/* MoveDirectRelPt */
PUSHB[ ]	/* 1 value pushed */
29 
SRP0[ ]	/* SetRefPoint0 */
PUSHB[ ]	/* 1 value pushed */
11 
MDRP[10000]	/* MoveDirectRelPt */
PUSHB[ ]	/* 1 value pushed */
11 
MDAP[1]	/* MoveDirectAbsPt */
PUSHB[ ]	/* 2 values pushed */
8 3 
PUSHB[ ]	/* 1 value pushed */
10 
CALL[ ]	/* CallFunction */
IF[ ]	/* If */
POP[ ]	/* PopTopStack */
MDRP[11000]	/* MoveDirectRelPt */
ELSE[ ]	/* Else */
MIRP[10100]	/* MoveIndirectRelPt */
EIF[ ]	/* EndIf */
PUSHB[ ]	/* 1 value pushed */
11 
SRP0[ ]	/* SetRefPoint0 */
PUSHB[ ]	/* 1 value pushed */
14 
MDRP[10000]	/* MoveDirectRelPt */
PUSHB[ ]	/* 1 value pushed */
11 
SRP0[ ]	/* SetRefPoint0 */
PUSHB[ ]	/* 1 value pushed */
18 
MDRP[10000]	/* MoveDirectRelPt */
PUSHB[ ]	/* 1 value pushed */
8 
SRP0[ ]	/* SetRefPoint0 */
PUSHB[ ]	/* 1 value pushed */
20 
MDRP[10000]	/* MoveDirectRelPt */
PUSHB[ ]	/* 1 value pushed */
29 
SRP0[ ]	/* SetRefPoint0 */
PUSHB[ ]	/* 1 value pushed */
22 
MDRP[10000]	/* MoveDirectRelPt */
PUSHB[ ]	/* 1 value pushed */
0 
SRP0[ ]	/* SetRefPoint0 */
PUSHB[ ]	/* 1 value pushed */
24 
MDRP[10000]	/* MoveDirectRelPt */
PUSHB[ ]	/* 1 value pushed */
8 
SRP0[ ]	/* SetRefPoint0 */
PUSHB[ ]	/* 1 value pushed */
30 
MDRP[10000]	/* MoveDirectRelPt */
IUP[0]	/* InterpolateUntPts */
IUP[1]	/* InterpolateUntPts */";
};
width = 1261;
},
{
layerId = m002;
paths = (
{
closed = 1;
nodes = (
"421 0 LINE",
"501 410 LINE",
"765 410 LINE",
"685 0 LINE",
"829 0 LINE",
"909 410 LINE",
"1160 410 LINE",
"1160 547 LINE",
"935 547 LINE",
"1004 901 LINE",
"1235 901 LINE",
"1235 1040 LINE",
"1031 1040 LINE",
"1113 1456 LINE",
"969 1456 LINE",
"887 1040 LINE",
"623 1040 LINE",
"705 1456 LINE",
"562 1456 LINE",
"480 1040 LINE",
"195 1040 LINE",
"195 901 LINE",
"453 901 LINE",
"384 547 LINE",
"119 547 LINE",
"119 410 LINE",
"358 410 LINE",
"278 0 LINE"
);
},
{
closed = 1;
nodes = (
"596 901 LINE",
"860 901 LINE",
"791 547 LINE",
"527 547 LINE"
);
}
);
userData = {
assembly = "SVTCA[0]	/* SetFreedomAndProjectionVectorToAxis */
PUSHB[ ]	/* 1 value pushed */
0 
RCVT[ ]	/* ReadCVT */
IF[ ]	/* If */
PUSHB[ ]	/* 1 value pushed */
12 
MDAP[1]	/* MoveDirectAbsPt */
ELSE[ ]	/* Else */
PUSHB[ ]	/* 2 values pushed */
12 30 
MIAP[0]	/* MoveIndirectAbsPt */
EIF[ ]	/* EndIf */
PUSHB[ ]	/* 1 value pushed */
0 
RCVT[ ]	/* ReadCVT */
IF[ ]	/* If */
PUSHB[ ]	/* 1 value pushed */
16 
MDAP[1]	/* MoveDirectAbsPt */
ELSE[ ]	/* Else */
PUSHB[ ]	/* 2 values pushed */
16 30 
MIAP[0]	/* MoveIndirectAbsPt */
EIF[ ]	/* EndIf */
PUSHB[ ]	/* 1 value pushed */
0 
RCVT[ ]	/* ReadCVT */
IF[ ]	/* If */
PUSHB[ ]	/* 1 value pushed */
2 
MDAP[1]	/* MoveDirectAbsPt */
ELSE[ ]	/* Else */
PUSHB[ ]	/* 2 values pushed */
2 18 
MIAP[0]	/* MoveIndirectAbsPt */
EIF[ ]	/* EndIf */
PUSHB[ ]	/* 1 value pushed */
0 
RCVT[ ]	/* ReadCVT */
IF[ ]	/* If */
PUSHB[ ]	/* 1 value pushed */
26 
MDAP[1]	/* MoveDirectAbsPt */
ELSE[ ]	/* Else */
PUSHB[ ]	/* 2 values pushed */
26 18 
MIAP[0]	/* MoveIndirectAbsPt */
EIF[ ]	/* EndIf */
PUSHB[ ]	/* 3 values pushed */
29 12 2 
SRP1[ ]	/* SetRefPoint1 */
SRP2[ ]	/* SetRefPoint2 */
IP[ ]	/* InterpolatePts */
RUTG[ ]	/* RoundUpToGrid */
PUSHB[ ]	/* 1 value pushed */
29 
MDAP[1]	/* MoveDirectAbsPt */
RTG[ ]	/* RoundToGrid */
PUSHB[ ]	/* 2 values pushed */
0 3 
PUSHB[ ]	/* 1 value pushed */
10 
CALL[ ]	/* CallFunction */
IF[ ]	/* If */
POP[ ]	/* PopTopStack */
MDRP[11000]	/* MoveDirectRelPt */
ELSE[ ]	/* Else */
MIRP[10100]	/* MoveIndirectRelPt */
EIF[ ]	/* EndIf */
PUSHB[ ]	/* 1 value pushed */
4 
MDRP[10000]	/* MoveDirectRelPt */
PUSHB[ ]	/* 1 value pushed */
29 
SRP0[ ]	/* SetRefPoint0 */
PUSHB[ ]	/* 1 value pushed */
6 
MDRP[10000]	/* MoveDirectRelPt */
PUSHB[ ]	/* 1 value pushed */
29 
SRP0[ ]	/* SetRefPoint0 */
PUSHB[ ]	/* 1 value pushed */
11 
MDRP[10000]	/* MoveDirectRelPt */
PUSHB[ ]	/* 1 value pushed */
11 
MDAP[1]	/* MoveDirectAbsPt */
PUSHB[ ]	/* 2 values pushed */
8 3 
PUSHB[ ]	/* 1 value pushed */
10 
CALL[ ]	/* CallFunction */
IF[ ]	/* If */
POP[ ]	/* PopTopStack */
MDRP[11000]	/* MoveDirectRelPt */
ELSE[ ]	/* Else */
MIRP[10100]	/* MoveIndirectRelPt */
EIF[ ]	/* EndIf */
PUSHB[ ]	/* 1 value pushed */
11 
SRP0[ ]	/* SetRefPoint0 */
PUSHB[ ]	/* 1 value pushed */
14 
MDRP[10000]	/* MoveDirectRelPt */
PUSHB[ ]	/* 1 value pushed */
11 
SRP0[ ]	/* SetRefPoint0 */
PUSHB[ ]	/* 1 value pushed */
18 
MDRP[10000]	/* MoveDirectRelPt */
PUSHB[ ]	/* 1 value pushed */
8 
SRP0[ ]	/* SetRefPoint0 */
PUSHB[ ]	/* 1 value pushed */
20 
MDRP[10000]	/* MoveDirectRelPt */
PUSHB[ ]	/* 1 value pushed */
29 
SRP0[ ]	/* SetRefPoint0 */
PUSHB[ ]	/* 1 value pushed */
22 
MDRP[10000]	/* MoveDirectRelPt */
PUSHB[ ]	/* 1 value pushed */
0 
SRP0[ ]	/* SetRefPoint0 */
PUSHB[ ]	/* 1 value pushed */
24 
MDRP[10000]	/* MoveDirectRelPt */
PUSHB[ ]	/* 1 value pushed */
8 
SRP0[ ]	/* SetRefPoint0 */
PUSHB[ ]	/* 1 value pushed */
30 
MDRP[10000]	/* MoveDirectRelPt */
IUP[0]	/* InterpolateUntPts */
IUP[1]	/* InterpolateUntPts */";
};
width = 1261;
}
);
note = uni0023;
unicode = 0023;
},
{
glyphname = dollar;
lastChange = "2020-11-29 18:16:05 +0000";
layers = (
{
layerId = "A9B054E9-1A63-4AEF-9EE1-561B1DFE8422";
paths = (
{
closed = 1;
nodes = (
"620 -208 LINE",
"620 -20 LINE",
"852 -6.667 OFFCURVE",
"1001 134 OFFCURVE",
"1001 346 CURVE SMOOTH",
"1001 598 OFFCURVE",
"817 677 OFFCURVE",
"575 760 CURVE SMOOTH",
"368 831 OFFCURVE",
"222 893 OFFCURVE",
"222 1112 CURVE SMOOTH",
"222 1296 OFFCURVE",
"363 1424 OFFCURVE",
"579 1424 CURVE SMOOTH",
"801.667 1424 OFFCURVE",
"939 1273.667 OFFCURVE",
"939 1047 CURVE",
"993 1047 LINE",
"993 1305.667 OFFCURVE",
"854.333 1462.667 OFFCURVE",
"609 1476 CURVE",
"609 1663 LINE",
"554 1663 LINE",
"554 1476 LINE",
"324.667 1468 OFFCURVE",
"168 1327.333 OFFCURVE",
"168 1110 CURVE SMOOTH",
"168 867 OFFCURVE",
"335 785 OFFCURVE",
"553.5 709.5 CURVE SMOOTH",
"765 636 OFFCURVE",
"947 568 OFFCURVE",
"947 344 CURVE SMOOTH",
"947 168 OFFCURVE",
"795.333 32 OFFCURVE",
"586 32 CURVE SMOOTH",
"332.667 32 OFFCURVE",
"175 173 OFFCURVE",
"175 409 CURVE",
"121 409 LINE",
"121 146.333 OFFCURVE",
"282.333 -10.333 OFFCURVE",
"565 -21 CURVE",
"565 -208 LINE"
);
}
);
userData = {
assembly = "SVTCA[0]	/* SetFreedomAndProjectionVectorToAxis */
PUSHB[ ]	/* 1 value pushed */
0 
RCVT[ ]	/* ReadCVT */
IF[ ]	/* If */
PUSHB[ ]	/* 1 value pushed */
9 
MDAP[1]	/* MoveDirectAbsPt */
ELSE[ ]	/* Else */
PUSHB[ ]	/* 2 values pushed */
9 30 
MIAP[0]	/* MoveIndirectAbsPt */
EIF[ ]	/* EndIf */
PUSHB[ ]	/* 1 value pushed */
0 
RCVT[ ]	/* ReadCVT */
IF[ ]	/* If */
PUSHB[ ]	/* 1 value pushed */
34 
MDAP[1]	/* MoveDirectAbsPt */
ELSE[ ]	/* Else */
PUSHB[ ]	/* 2 values pushed */
34 18 
MIAP[0]	/* MoveIndirectAbsPt */
EIF[ ]	/* EndIf */
PUSHB[ ]	/* 3 values pushed */
2 34 9 
SRP1[ ]	/* SetRefPoint1 */
SRP2[ ]	/* SetRefPoint2 */
IP[ ]	/* InterpolatePts */
PUSHB[ ]	/* 1 value pushed */
9 
SRP0[ ]	/* SetRefPoint0 */
PUSHB[ ]	/* 1 value pushed */
12 
MDRP[10000]	/* MoveDirectRelPt */
PUSHB[ ]	/* 1 value pushed */
9 
SRP0[ ]	/* SetRefPoint0 */
PUSHB[ ]	/* 1 value pushed */
16 
MDRP[10000]	/* MoveDirectRelPt */
PUSHB[ ]	/* 1 value pushed */
9 
SRP0[ ]	/* SetRefPoint0 */
PUSHB[ ]	/* 2 values pushed */
19 1 
PUSHB[ ]	/* 1 value pushed */
10 
CALL[ ]	/* CallFunction */
IF[ ]	/* If */
POP[ ]	/* PopTopStack */
MDRP[11000]	/* MoveDirectRelPt */
ELSE[ ]	/* Else */
MIRP[10100]	/* MoveIndirectRelPt */
EIF[ ]	/* EndIf */
PUSHB[ ]	/* 1 value pushed */
2 
SRP0[ ]	/* SetRefPoint0 */
PUSHB[ ]	/* 2 values pushed */
25 1 
PUSHB[ ]	/* 1 value pushed */
10 
CALL[ ]	/* CallFunction */
IF[ ]	/* If */
POP[ ]	/* PopTopStack */
MDRP[11000]	/* MoveDirectRelPt */
ELSE[ ]	/* Else */
MIRP[10100]	/* MoveIndirectRelPt */
EIF[ ]	/* EndIf */
PUSHB[ ]	/* 1 value pushed */
34 
SRP0[ ]	/* SetRefPoint0 */
PUSHB[ ]	/* 1 value pushed */
31 
MDRP[10000]	/* MoveDirectRelPt */
PUSHB[ ]	/* 1 value pushed */
34 
SRP0[ ]	/* SetRefPoint0 */
PUSHB[ ]	/* 1 value pushed */
38 
MDRP[10000]	/* MoveDirectRelPt */
PUSHB[ ]	/* 1 value pushed */
34 
SRP0[ ]	/* SetRefPoint0 */
PUSHB[ ]	/* 2 values pushed */
41 1 
PUSHB[ ]	/* 1 value pushed */
10 
CALL[ ]	/* CallFunction */
IF[ ]	/* If */
POP[ ]	/* PopTopStack */
MDRP[11000]	/* MoveDirectRelPt */
ELSE[ ]	/* Else */
MIRP[10100]	/* MoveIndirectRelPt */
EIF[ ]	/* EndIf */
IUP[0]	/* InterpolateUntPts */
IUP[1]	/* InterpolateUntPts */";
};
width = 1150;
},
{
layerId = m002;
paths = (
{
closed = 1;
nodes = (
"655 -208 LINE",
"655 -17 LINE",
"899 8.333 OFFCURVE",
"1041 151.667 OFFCURVE",
"1041 377 CURVE SMOOTH",
"1041 592.853 OFFCURVE",
"919.514 718.988 OFFCURVE",
"636.5 809.5 CURVE SMOOTH",
"433.167 875.5 OFFCURVE",
"351 946 OFFCURVE",
"351 1082 CURVE SMOOTH",
"351 1228.667 OFFCURVE",
"437.333 1315 OFFCURVE",
"596 1315 CURVE SMOOTH",
"748 1315 OFFCURVE",
"844 1196 OFFCURVE",
"844 1008 CURVE",
"1028 1008 LINE",
"1028 1281.333 OFFCURVE",
"897 1441.333 OFFCURVE",
"673 1472 CURVE",
"673 1692 LINE",
"524 1692 LINE",
"524 1473 LINE",
"301.333 1446.333 OFFCURVE",
"166 1297.667 OFFCURVE",
"166 1079 CURVE SMOOTH",
"166 864.333 OFFCURVE",
"290 730.667 OFFCURVE",
"574 644 CURVE SMOOTH",
"778 576 OFFCURVE",
"856 497.667 OFFCURVE",
"856 375 CURVE SMOOTH",
"856 229.667 OFFCURVE",
"749.667 140 OFFCURVE",
"575 140 CURVE SMOOTH",
"396.333 140 OFFCURVE",
"295 243.667 OFFCURVE",
"295 429 CURVE",
"110 429 LINE",
"110 165 OFFCURVE",
"259 5.667 OFFCURVE",
"507 -17 CURVE",
"507 -208 LINE"
);
}
);
userData = {
assembly = "SVTCA[0]	/* SetFreedomAndProjectionVectorToAxis */
PUSHB[ ]	/* 1 value pushed */
0 
RCVT[ ]	/* ReadCVT */
IF[ ]	/* If */
PUSHB[ ]	/* 1 value pushed */
9 
MDAP[1]	/* MoveDirectAbsPt */
ELSE[ ]	/* Else */
PUSHB[ ]	/* 2 values pushed */
9 30 
MIAP[0]	/* MoveIndirectAbsPt */
EIF[ ]	/* EndIf */
PUSHB[ ]	/* 1 value pushed */
0 
RCVT[ ]	/* ReadCVT */
IF[ ]	/* If */
PUSHB[ ]	/* 1 value pushed */
34 
MDAP[1]	/* MoveDirectAbsPt */
ELSE[ ]	/* Else */
PUSHB[ ]	/* 2 values pushed */
34 18 
MIAP[0]	/* MoveIndirectAbsPt */
EIF[ ]	/* EndIf */
PUSHB[ ]	/* 3 values pushed */
2 34 9 
SRP1[ ]	/* SetRefPoint1 */
SRP2[ ]	/* SetRefPoint2 */
IP[ ]	/* InterpolatePts */
PUSHB[ ]	/* 1 value pushed */
9 
SRP0[ ]	/* SetRefPoint0 */
PUSHB[ ]	/* 1 value pushed */
12 
MDRP[10000]	/* MoveDirectRelPt */
PUSHB[ ]	/* 1 value pushed */
9 
SRP0[ ]	/* SetRefPoint0 */
PUSHB[ ]	/* 1 value pushed */
16 
MDRP[10000]	/* MoveDirectRelPt */
PUSHB[ ]	/* 1 value pushed */
9 
SRP0[ ]	/* SetRefPoint0 */
PUSHB[ ]	/* 2 values pushed */
19 1 
PUSHB[ ]	/* 1 value pushed */
10 
CALL[ ]	/* CallFunction */
IF[ ]	/* If */
POP[ ]	/* PopTopStack */
MDRP[11000]	/* MoveDirectRelPt */
ELSE[ ]	/* Else */
MIRP[10100]	/* MoveIndirectRelPt */
EIF[ ]	/* EndIf */
PUSHB[ ]	/* 1 value pushed */
2 
SRP0[ ]	/* SetRefPoint0 */
PUSHB[ ]	/* 2 values pushed */
25 1 
PUSHB[ ]	/* 1 value pushed */
10 
CALL[ ]	/* CallFunction */
IF[ ]	/* If */
POP[ ]	/* PopTopStack */
MDRP[11000]	/* MoveDirectRelPt */
ELSE[ ]	/* Else */
MIRP[10100]	/* MoveIndirectRelPt */
EIF[ ]	/* EndIf */
PUSHB[ ]	/* 1 value pushed */
34 
SRP0[ ]	/* SetRefPoint0 */
PUSHB[ ]	/* 1 value pushed */
31 
MDRP[10000]	/* MoveDirectRelPt */
PUSHB[ ]	/* 1 value pushed */
34 
SRP0[ ]	/* SetRefPoint0 */
PUSHB[ ]	/* 1 value pushed */
38 
MDRP[10000]	/* MoveDirectRelPt */
PUSHB[ ]	/* 1 value pushed */
34 
SRP0[ ]	/* SetRefPoint0 */
PUSHB[ ]	/* 2 values pushed */
41 1 
PUSHB[ ]	/* 1 value pushed */
10 
CALL[ ]	/* CallFunction */
IF[ ]	/* If */
POP[ ]	/* PopTopStack */
MDRP[11000]	/* MoveDirectRelPt */
ELSE[ ]	/* Else */
MIRP[10100]	/* MoveIndirectRelPt */
EIF[ ]	/* EndIf */
IUP[0]	/* InterpolateUntPts */
IUP[1]	/* InterpolateUntPts */";
};
width = 1150;
}
);
note = uni0024;
unicode = 0024;
},
{
glyphname = percent;
lastChange = "2020-11-29 18:18:03 +0000";
layers = (
{
layerId = "A9B054E9-1A63-4AEF-9EE1-561B1DFE8422";
paths = (
{
closed = 1;
nodes = (
"1133 1269 LINE",
"1088 1300 LINE",
"377 162 LINE",
"422 131 LINE"
);
},
{
closed = 1;
nodes = (
"1296.333 -21 OFFCURVE",
"1413 107 OFFCURVE",
"1413 279 CURVE SMOOTH",
"1413 350 LINE SMOOTH",
"1413 531.333 OFFCURVE",
"1297 657 OFFCURVE",
"1141 657 CURVE SMOOTH",
"986.333 657 OFFCURVE",
"870 529 OFFCURVE",
"870 357 CURVE SMOOTH",
"870 284 LINE SMOOTH",
"870 104 OFFCURVE",
"988.333 -21 OFFCURVE",
"1143 -21 CURVE SMOOTH"
);
},
{
closed = 1;
nodes = (
"1011 34 OFFCURVE",
"925 136.333 OFFCURVE",
"925 279 CURVE SMOOTH",
"925 353 LINE SMOOTH",
"925 505 OFFCURVE",
"1009 602 OFFCURVE",
"1141 602 CURVE SMOOTH",
"1274.333 602 OFFCURVE",
"1358 507.667 OFFCURVE",
"1358 357 CURVE SMOOTH",
"1358 284 LINE SMOOTH",
"1358 136 OFFCURVE",
"1273.667 34 OFFCURVE",
"1143 34 CURVE SMOOTH"
);
},
{
closed = 1;
nodes = (
"542.667 800 OFFCURVE",
"657 929.667 OFFCURVE",
"657 1099 CURVE SMOOTH",
"657 1171 LINE SMOOTH",
"657 1348.333 OFFCURVE",
"542 1477 OFFCURVE",
"386 1477 CURVE SMOOTH",
"231.333 1477 OFFCURVE",
"114 1348 OFFCURVE",
"114 1176 CURVE SMOOTH",
"114 1105 LINE SMOOTH",
"114 925 OFFCURVE",
"232 800 OFFCURVE",
"388 800 CURVE SMOOTH"
);
},
{
closed = 1;
nodes = (
"254.667 855 OFFCURVE",
"169 960.333 OFFCURVE",
"169 1099 CURVE SMOOTH",
"169 1169 LINE SMOOTH",
"169 1322.333 OFFCURVE",
"259.333 1422 OFFCURVE",
"386 1422 CURVE SMOOTH",
"515.333 1422 OFFCURVE",
"602 1320 OFFCURVE",
"602 1176 CURVE SMOOTH",
"602 1104 LINE SMOOTH",
"602 956 OFFCURVE",
"516 855 OFFCURVE",
"388 855 CURVE SMOOTH"
);
}
);
userData = {
assembly = "SVTCA[0]	/* SetFreedomAndProjectionVectorToAxis */
PUSHB[ ]	/* 1 value pushed */
0 
RCVT[ ]	/* ReadCVT */
IF[ ]	/* If */
PUSHB[ ]	/* 1 value pushed */
3 
MDAP[1]	/* MoveDirectAbsPt */
ELSE[ ]	/* Else */
PUSHB[ ]	/* 2 values pushed */
3 30 
MIAP[0]	/* MoveIndirectAbsPt */
EIF[ ]	/* EndIf */
PUSHB[ ]	/* 1 value pushed */
0 
RCVT[ ]	/* ReadCVT */
IF[ ]	/* If */
PUSHB[ ]	/* 1 value pushed */
35 
MDAP[1]	/* MoveDirectAbsPt */
ELSE[ ]	/* Else */
PUSHB[ ]	/* 2 values pushed */
35 18 
MIAP[0]	/* MoveIndirectAbsPt */
EIF[ ]	/* EndIf */
PUSHB[ ]	/* 1 value pushed */
3 
SRP0[ ]	/* SetRefPoint0 */
PUSHB[ ]	/* 1 value pushed */
10 
MDRP[10000]	/* MoveDirectRelPt */
PUSHB[ ]	/* 1 value pushed */
10 
MDAP[1]	/* MoveDirectAbsPt */
PUSHB[ ]	/* 2 values pushed */
17 4 
PUSHB[ ]	/* 1 value pushed */
10 
CALL[ ]	/* CallFunction */
IF[ ]	/* If */
POP[ ]	/* PopTopStack */
MDRP[11000]	/* MoveDirectRelPt */
ELSE[ ]	/* Else */
MIRP[10100]	/* MoveIndirectRelPt */
EIF[ ]	/* EndIf */
PUSHB[ ]	/* 1 value pushed */
3 
SRP0[ ]	/* SetRefPoint0 */
PUSHB[ ]	/* 2 values pushed */
24 4 
PUSHB[ ]	/* 1 value pushed */
10 
CALL[ ]	/* CallFunction */
IF[ ]	/* If */
POP[ ]	/* PopTopStack */
MDRP[11000]	/* MoveDirectRelPt */
ELSE[ ]	/* Else */
MIRP[10100]	/* MoveIndirectRelPt */
EIF[ ]	/* EndIf */
PUSHB[ ]	/* 1 value pushed */
35 
SRP0[ ]	/* SetRefPoint0 */
PUSHB[ ]	/* 1 value pushed */
29 
MDRP[10000]	/* MoveDirectRelPt */
PUSHB[ ]	/* 1 value pushed */
29 
MDAP[1]	/* MoveDirectAbsPt */
PUSHB[ ]	/* 1 value pushed */
35 
SRP0[ ]	/* SetRefPoint0 */
PUSHB[ ]	/* 2 values pushed */
42 4 
PUSHB[ ]	/* 1 value pushed */
10 
CALL[ ]	/* CallFunction */
IF[ ]	/* If */
POP[ ]	/* PopTopStack */
MDRP[11000]	/* MoveDirectRelPt */
ELSE[ ]	/* Else */
MIRP[10100]	/* MoveIndirectRelPt */
EIF[ ]	/* EndIf */
PUSHB[ ]	/* 1 value pushed */
29 
SRP0[ ]	/* SetRefPoint0 */
PUSHB[ ]	/* 2 values pushed */
49 4 
PUSHB[ ]	/* 1 value pushed */
10 
CALL[ ]	/* CallFunction */
IF[ ]	/* If */
POP[ ]	/* PopTopStack */
MDRP[11000]	/* MoveDirectRelPt */
ELSE[ ]	/* Else */
MIRP[10100]	/* MoveIndirectRelPt */
EIF[ ]	/* EndIf */
PUSHB[ ]	/* 3 values pushed */
53 35 3 
SRP1[ ]	/* SetRefPoint1 */
SRP2[ ]	/* SetRefPoint2 */
IP[ ]	/* InterpolatePts */
PUSHB[ ]	/* 1 value pushed */
53 
MDAP[1]	/* MoveDirectAbsPt */
PUSHB[ ]	/* 3 values pushed */
55 3 35 
SRP1[ ]	/* SetRefPoint1 */
SRP2[ ]	/* SetRefPoint2 */
IP[ ]	/* InterpolatePts */
PUSHB[ ]	/* 1 value pushed */
55 
MDAP[1]	/* MoveDirectAbsPt */
IUP[0]	/* InterpolateUntPts */
IUP[1]	/* InterpolateUntPts */";
};
width = 1500;
},
{
layerId = m002;
paths = (
{
closed = 1;
nodes = (
"1158 1248 LINE",
"1053 1314 LINE",
"342 176 LINE",
"447 110 LINE"
);
},
{
closed = 1;
nodes = (
"1287.333 -21 OFFCURVE",
"1411 104.333 OFFCURVE",
"1411 279 CURVE SMOOTH",
"1411 350 LINE SMOOTH",
"1411 535.333 OFFCURVE",
"1286.667 657 OFFCURVE",
"1112 657 CURVE SMOOTH",
"937.333 657 OFFCURVE",
"814 531.667 OFFCURVE",
"814 357 CURVE SMOOTH",
"814 285 LINE SMOOTH",
"814 99.667 OFFCURVE",
"940.667 -21 OFFCURVE",
"1114 -21 CURVE SMOOTH"
);
},
{
closed = 1;
nodes = (
"1015.333 99 OFFCURVE",
"952 173.667 OFFCURVE",
"952 279 CURVE SMOOTH",
"952 353 LINE SMOOTH",
"952 465 OFFCURVE",
"1017.333 536 OFFCURVE",
"1112 536 CURVE SMOOTH",
"1209.333 536 OFFCURVE",
"1272 462.333 OFFCURVE",
"1272 357 CURVE SMOOTH",
"1272 283 LINE SMOOTH",
"1272 169.667 OFFCURVE",
"1210 99 OFFCURVE",
"1114 99 CURVE SMOOTH"
);
},
{
closed = 1;
nodes = (
"577 800 OFFCURVE",
"701 923 OFFCURVE",
"701 1099 CURVE SMOOTH",
"701 1170 LINE SMOOTH",
"701 1351.333 OFFCURVE",
"580.333 1477 OFFCURVE",
"403 1477 CURVE SMOOTH",
"228.333 1477 OFFCURVE",
"105 1350.667 OFFCURVE",
"105 1176 CURVE SMOOTH",
"105 1106 LINE SMOOTH",
"105 920.667 OFFCURVE",
"231.667 800 OFFCURVE",
"405 800 CURVE SMOOTH"
);
},
{
closed = 1;
nodes = (
"306.333 920 OFFCURVE",
"243 995 OFFCURVE",
"243 1099 CURVE SMOOTH",
"243 1172 LINE SMOOTH",
"243 1281.333 OFFCURVE",
"304.333 1356 OFFCURVE",
"403 1356 CURVE SMOOTH",
"501.667 1356 OFFCURVE",
"563 1280 OFFCURVE",
"563 1176 CURVE SMOOTH",
"563 1103 LINE SMOOTH",
"563 989.667 OFFCURVE",
"499.667 920 OFFCURVE",
"405 920 CURVE SMOOTH"
);
}
);
userData = {
assembly = "SVTCA[0]	/* SetFreedomAndProjectionVectorToAxis */
PUSHB[ ]	/* 1 value pushed */
0 
RCVT[ ]	/* ReadCVT */
IF[ ]	/* If */
PUSHB[ ]	/* 1 value pushed */
3 
MDAP[1]	/* MoveDirectAbsPt */
ELSE[ ]	/* Else */
PUSHB[ ]	/* 2 values pushed */
3 30 
MIAP[0]	/* MoveIndirectAbsPt */
EIF[ ]	/* EndIf */
PUSHB[ ]	/* 1 value pushed */
0 
RCVT[ ]	/* ReadCVT */
IF[ ]	/* If */
PUSHB[ ]	/* 1 value pushed */
35 
MDAP[1]	/* MoveDirectAbsPt */
ELSE[ ]	/* Else */
PUSHB[ ]	/* 2 values pushed */
35 18 
MIAP[0]	/* MoveIndirectAbsPt */
EIF[ ]	/* EndIf */
PUSHB[ ]	/* 1 value pushed */
3 
SRP0[ ]	/* SetRefPoint0 */
PUSHB[ ]	/* 1 value pushed */
10 
MDRP[10000]	/* MoveDirectRelPt */
PUSHB[ ]	/* 1 value pushed */
10 
MDAP[1]	/* MoveDirectAbsPt */
PUSHB[ ]	/* 2 values pushed */
17 4 
PUSHB[ ]	/* 1 value pushed */
10 
CALL[ ]	/* CallFunction */
IF[ ]	/* If */
POP[ ]	/* PopTopStack */
MDRP[11000]	/* MoveDirectRelPt */
ELSE[ ]	/* Else */
MIRP[10100]	/* MoveIndirectRelPt */
EIF[ ]	/* EndIf */
PUSHB[ ]	/* 1 value pushed */
3 
SRP0[ ]	/* SetRefPoint0 */
PUSHB[ ]	/* 2 values pushed */
24 4 
PUSHB[ ]	/* 1 value pushed */
10 
CALL[ ]	/* CallFunction */
IF[ ]	/* If */
POP[ ]	/* PopTopStack */
MDRP[11000]	/* MoveDirectRelPt */
ELSE[ ]	/* Else */
MIRP[10100]	/* MoveIndirectRelPt */
EIF[ ]	/* EndIf */
PUSHB[ ]	/* 1 value pushed */
35 
SRP0[ ]	/* SetRefPoint0 */
PUSHB[ ]	/* 1 value pushed */
29 
MDRP[10000]	/* MoveDirectRelPt */
PUSHB[ ]	/* 1 value pushed */
29 
MDAP[1]	/* MoveDirectAbsPt */
PUSHB[ ]	/* 1 value pushed */
35 
SRP0[ ]	/* SetRefPoint0 */
PUSHB[ ]	/* 2 values pushed */
42 4 
PUSHB[ ]	/* 1 value pushed */
10 
CALL[ ]	/* CallFunction */
IF[ ]	/* If */
POP[ ]	/* PopTopStack */
MDRP[11000]	/* MoveDirectRelPt */
ELSE[ ]	/* Else */
MIRP[10100]	/* MoveIndirectRelPt */
EIF[ ]	/* EndIf */
PUSHB[ ]	/* 1 value pushed */
29 
SRP0[ ]	/* SetRefPoint0 */
PUSHB[ ]	/* 2 values pushed */
49 4 
PUSHB[ ]	/* 1 value pushed */
10 
CALL[ ]	/* CallFunction */
IF[ ]	/* If */
POP[ ]	/* PopTopStack */
MDRP[11000]	/* MoveDirectRelPt */
ELSE[ ]	/* Else */
MIRP[10100]	/* MoveIndirectRelPt */
EIF[ ]	/* EndIf */
PUSHB[ ]	/* 3 values pushed */
53 35 3 
SRP1[ ]	/* SetRefPoint1 */
SRP2[ ]	/* SetRefPoint2 */
IP[ ]	/* InterpolatePts */
PUSHB[ ]	/* 1 value pushed */
53 
MDAP[1]	/* MoveDirectAbsPt */
PUSHB[ ]	/* 3 values pushed */
55 3 35 
SRP1[ ]	/* SetRefPoint1 */
SRP2[ ]	/* SetRefPoint2 */
IP[ ]	/* InterpolatePts */
PUSHB[ ]	/* 1 value pushed */
55 
MDAP[1]	/* MoveDirectAbsPt */
IUP[0]	/* InterpolateUntPts */
IUP[1]	/* InterpolateUntPts */";
};
width = 1500;
}
);
note = uni0025;
unicode = 0025;
},
{
glyphname = ampersand;
lastChange = "2020-11-29 18:18:09 +0000";
layers = (
{
layerId = "A9B054E9-1A63-4AEF-9EE1-561B1DFE8422";
paths = (
{
closed = 1;
nodes = (
"700.333 -20 OFFCURVE",
"841.333 45.333 OFFCURVE",
"972 176 CURVE",
"1129 0 LINE",
"1196 0 LINE",
"1006 216 LINE",
"1094.667 335.333 OFFCURVE",
"1139 474 OFFCURVE",
"1139 632 CURVE",
"1084 632 LINE",
"1084 489.333 OFFCURVE",
"1045.667 364.667 OFFCURVE",
"969 258 CURVE",
"494 797 LINE",
"650 921 LINE SMOOTH",
"775.333 1025 OFFCURVE",
"838 1122.333 OFFCURVE",
"838 1213 CURVE SMOOTH",
"838 1369 OFFCURVE",
"728.667 1477 OFFCURVE",
"562 1477 CURVE SMOOTH",
"380.667 1477 OFFCURVE",
"257 1355 OFFCURVE",
"257 1167 CURVE SMOOTH",
"257 1053.667 OFFCURVE",
"304.667 946 OFFCURVE",
"422 802 CURVE",
"180.333 600.667 OFFCURVE",
"115 482.667 OFFCURVE",
"115 352 CURVE SMOOTH",
"115 124 OFFCURVE",
"281 -20 OFFCURVE",
"549 -20 CURVE SMOOTH"
);
},
{
closed = 1;
nodes = (
"169 473.333 OFFCURVE",
"244.667 587 OFFCURVE",
"402 723 CURVE",
"454 764 LINE",
"937 217 LINE",
"835.667 99.667 OFFCURVE",
"697 34 OFFCURVE",
"549 34 CURVE SMOOTH",
"318.333 34 OFFCURVE",
"169 162.667 OFFCURVE",
"169 352 CURVE SMOOTH"
);
},
{
closed = 1;
nodes = (
"312 1319.667 OFFCURVE",
"411.333 1423 OFFCURVE",
"562 1423 CURVE SMOOTH",
"691.333 1423 OFFCURVE",
"782 1335.667 OFFCURVE",
"782 1213 CURVE SMOOTH",
"782 1133.667 OFFCURVE",
"733.667 1053.667 OFFCURVE",
"637 973 CURVE SMOOTH",
"462 834 LINE",
"362 952 OFFCURVE",
"312 1063.667 OFFCURVE",
"312 1169 CURVE SMOOTH"
);
}
);
userData = {
assembly = "SVTCA[0]	/* SetFreedomAndProjectionVectorToAxis */
PUSHB[ ]	/* 1 value pushed */
0 
RCVT[ ]	/* ReadCVT */
IF[ ]	/* If */
PUSHB[ ]	/* 1 value pushed */
9 
MDAP[1]	/* MoveDirectAbsPt */
ELSE[ ]	/* Else */
PUSHB[ ]	/* 2 values pushed */
9 30 
MIAP[0]	/* MoveIndirectAbsPt */
EIF[ ]	/* EndIf */
PUSHB[ ]	/* 1 value pushed */
0 
RCVT[ ]	/* ReadCVT */
IF[ ]	/* If */
PUSHB[ ]	/* 1 value pushed */
28 
MDAP[1]	/* MoveDirectAbsPt */
ELSE[ ]	/* Else */
PUSHB[ ]	/* 2 values pushed */
28 18 
MIAP[0]	/* MoveIndirectAbsPt */
EIF[ ]	/* EndIf */
PUSHB[ ]	/* 1 value pushed */
0 
RCVT[ ]	/* ReadCVT */
IF[ ]	/* If */
PUSHB[ ]	/* 1 value pushed */
24 
MDAP[1]	/* MoveDirectAbsPt */
ELSE[ ]	/* Else */
PUSHB[ ]	/* 2 values pushed */
24 18 
MIAP[0]	/* MoveIndirectAbsPt */
EIF[ ]	/* EndIf */
PUSHB[ ]	/* 3 values pushed */
34 28 9 
SRP1[ ]	/* SetRefPoint1 */
SRP2[ ]	/* SetRefPoint2 */
IP[ ]	/* InterpolatePts */
PUSHB[ ]	/* 3 values pushed */
42 9 28 
SRP1[ ]	/* SetRefPoint1 */
SRP2[ ]	/* SetRefPoint2 */
IP[ ]	/* InterpolatePts */
PUSHB[ ]	/* 3 values pushed */
3 34 42 
SRP1[ ]	/* SetRefPoint1 */
SRP2[ ]	/* SetRefPoint2 */
IP[ ]	/* InterpolatePts */
PUSHB[ ]	/* 3 values pushed */
16 42 34 
SRP1[ ]	/* SetRefPoint1 */
SRP2[ ]	/* SetRefPoint2 */
IP[ ]	/* InterpolatePts */
PUSHB[ ]	/* 3 values pushed */
17 9 28 
SRP1[ ]	/* SetRefPoint1 */
SRP2[ ]	/* SetRefPoint2 */
IP[ ]	/* InterpolatePts */
PUSHB[ ]	/* 3 values pushed */
19 28 9 
SRP1[ ]	/* SetRefPoint1 */
SRP2[ ]	/* SetRefPoint2 */
IP[ ]	/* InterpolatePts */
PUSHB[ ]	/* 3 values pushed */
25 28 9 
SRP1[ ]	/* SetRefPoint1 */
SRP2[ ]	/* SetRefPoint2 */
IP[ ]	/* InterpolatePts */
PUSHB[ ]	/* 3 values pushed */
22 17 25 
SRP1[ ]	/* SetRefPoint1 */
SRP2[ ]	/* SetRefPoint2 */
IP[ ]	/* InterpolatePts */
PUSHB[ ]	/* 1 value pushed */
28 
SRP0[ ]	/* SetRefPoint0 */
PUSHB[ ]	/* 2 values pushed */
31 1 
PUSHB[ ]	/* 1 value pushed */
10 
CALL[ ]	/* CallFunction */
IF[ ]	/* If */
POP[ ]	/* PopTopStack */
MDRP[11000]	/* MoveDirectRelPt */
ELSE[ ]	/* Else */
MIRP[10100]	/* MoveIndirectRelPt */
EIF[ ]	/* EndIf */
PUSHB[ ]	/* 3 values pushed */
33 31 17 
SRP1[ ]	/* SetRefPoint1 */
SRP2[ ]	/* SetRefPoint2 */
IP[ ]	/* InterpolatePts */
PUSHB[ ]	/* 1 value pushed */
9 
SRP0[ ]	/* SetRefPoint0 */
PUSHB[ ]	/* 2 values pushed */
49 1 
PUSHB[ ]	/* 1 value pushed */
10 
CALL[ ]	/* CallFunction */
IF[ ]	/* If */
POP[ ]	/* PopTopStack */
MDRP[11000]	/* MoveDirectRelPt */
ELSE[ ]	/* Else */
MIRP[10100]	/* MoveIndirectRelPt */
EIF[ ]	/* EndIf */
IUP[0]	/* InterpolateUntPts */
IUP[1]	/* InterpolateUntPts */";
};
width = 1273;
},
{
layerId = m002;
paths = (
{
closed = 1;
nodes = (
"709.333 -20 OFFCURVE",
"849.333 27 OFFCURVE",
"948 115 CURVE",
"1045 0 LINE",
"1267 0 LINE",
"1059 249 LINE",
"1141 361 OFFCURVE",
"1182 502 OFFCURVE",
"1182 672 CURVE",
"1015 672 LINE",
"1015 566 OFFCURVE",
"992.333 469.667 OFFCURVE",
"947 383 CURVE",
"623 770 LINE",
"730 849 LINE SMOOTH",
"878 958.333 OFFCURVE",
"930 1050.667 OFFCURVE",
"930 1168 CURVE SMOOTH",
"930 1345.333 OFFCURVE",
"784 1476 OFFCURVE",
"584 1476 CURVE SMOOTH",
"360 1476 OFFCURVE",
"220 1343.333 OFFCURVE",
"220 1122 CURVE SMOOTH",
"220 1027 OFFCURVE",
"254 946 OFFCURVE",
"383 789 CURVE",
"163 633 OFFCURVE",
"101 531 OFFCURVE",
"101 391 CURVE SMOOTH",
"101 144 OFFCURVE",
"288 -20 OFFCURVE",
"572 -20 CURVE SMOOTH"
);
},
{
closed = 1;
nodes = (
"286 477.667 OFFCURVE",
"341.667 562 OFFCURVE",
"453 644 CURVE SMOOTH",
"486 668 LINE",
"841 243 LINE",
"759.667 168.333 OFFCURVE",
"670 131 OFFCURVE",
"572 131 CURVE SMOOTH",
"394.667 131 OFFCURVE",
"286 233.667 OFFCURVE",
"286 391 CURVE SMOOTH"
);
},
{
closed = 1;
nodes = (
"405 1241.333 OFFCURVE",
"473.667 1324 OFFCURVE",
"583 1324 CURVE SMOOTH",
"684.333 1324 OFFCURVE",
"759 1257.333 OFFCURVE",
"759 1168 CURVE SMOOTH",
"759 1085.333 OFFCURVE",
"731.667 1035 OFFCURVE",
"641 971 CURVE SMOOTH",
"523 888 LINE",
"444.333 984 OFFCURVE",
"405 1064 OFFCURVE",
"405 1128 CURVE SMOOTH"
);
}
);
userData = {
assembly = "SVTCA[0]	/* SetFreedomAndProjectionVectorToAxis */
PUSHB[ ]	/* 1 value pushed */
0 
RCVT[ ]	/* ReadCVT */
IF[ ]	/* If */
PUSHB[ ]	/* 1 value pushed */
9 
MDAP[1]	/* MoveDirectAbsPt */
ELSE[ ]	/* Else */
PUSHB[ ]	/* 2 values pushed */
9 30 
MIAP[0]	/* MoveIndirectAbsPt */
EIF[ ]	/* EndIf */
PUSHB[ ]	/* 1 value pushed */
0 
RCVT[ ]	/* ReadCVT */
IF[ ]	/* If */
PUSHB[ ]	/* 1 value pushed */
28 
MDAP[1]	/* MoveDirectAbsPt */
ELSE[ ]	/* Else */
PUSHB[ ]	/* 2 values pushed */
28 18 
MIAP[0]	/* MoveIndirectAbsPt */
EIF[ ]	/* EndIf */
PUSHB[ ]	/* 1 value pushed */
0 
RCVT[ ]	/* ReadCVT */
IF[ ]	/* If */
PUSHB[ ]	/* 1 value pushed */
24 
MDAP[1]	/* MoveDirectAbsPt */
ELSE[ ]	/* Else */
PUSHB[ ]	/* 2 values pushed */
24 18 
MIAP[0]	/* MoveIndirectAbsPt */
EIF[ ]	/* EndIf */
PUSHB[ ]	/* 3 values pushed */
34 28 9 
SRP1[ ]	/* SetRefPoint1 */
SRP2[ ]	/* SetRefPoint2 */
IP[ ]	/* InterpolatePts */
PUSHB[ ]	/* 3 values pushed */
42 9 28 
SRP1[ ]	/* SetRefPoint1 */
SRP2[ ]	/* SetRefPoint2 */
IP[ ]	/* InterpolatePts */
PUSHB[ ]	/* 3 values pushed */
3 34 42 
SRP1[ ]	/* SetRefPoint1 */
SRP2[ ]	/* SetRefPoint2 */
IP[ ]	/* InterpolatePts */
PUSHB[ ]	/* 3 values pushed */
16 42 34 
SRP1[ ]	/* SetRefPoint1 */
SRP2[ ]	/* SetRefPoint2 */
IP[ ]	/* InterpolatePts */
PUSHB[ ]	/* 3 values pushed */
17 9 28 
SRP1[ ]	/* SetRefPoint1 */
SRP2[ ]	/* SetRefPoint2 */
IP[ ]	/* InterpolatePts */
PUSHB[ ]	/* 3 values pushed */
19 28 9 
SRP1[ ]	/* SetRefPoint1 */
SRP2[ ]	/* SetRefPoint2 */
IP[ ]	/* InterpolatePts */
PUSHB[ ]	/* 3 values pushed */
25 28 9 
SRP1[ ]	/* SetRefPoint1 */
SRP2[ ]	/* SetRefPoint2 */
IP[ ]	/* InterpolatePts */
PUSHB[ ]	/* 3 values pushed */
22 17 25 
SRP1[ ]	/* SetRefPoint1 */
SRP2[ ]	/* SetRefPoint2 */
IP[ ]	/* InterpolatePts */
PUSHB[ ]	/* 1 value pushed */
28 
SRP0[ ]	/* SetRefPoint0 */
PUSHB[ ]	/* 2 values pushed */
31 1 
PUSHB[ ]	/* 1 value pushed */
10 
CALL[ ]	/* CallFunction */
IF[ ]	/* If */
POP[ ]	/* PopTopStack */
MDRP[11000]	/* MoveDirectRelPt */
ELSE[ ]	/* Else */
MIRP[10100]	/* MoveIndirectRelPt */
EIF[ ]	/* EndIf */
PUSHB[ ]	/* 3 values pushed */
33 31 17 
SRP1[ ]	/* SetRefPoint1 */
SRP2[ ]	/* SetRefPoint2 */
IP[ ]	/* InterpolatePts */
PUSHB[ ]	/* 1 value pushed */
9 
SRP0[ ]	/* SetRefPoint0 */
PUSHB[ ]	/* 2 values pushed */
49 1 
PUSHB[ ]	/* 1 value pushed */
10 
CALL[ ]	/* CallFunction */
IF[ ]	/* If */
POP[ ]	/* PopTopStack */
MDRP[11000]	/* MoveDirectRelPt */
ELSE[ ]	/* Else */
MIRP[10100]	/* MoveIndirectRelPt */
EIF[ ]	/* EndIf */
IUP[0]	/* InterpolateUntPts */
IUP[1]	/* InterpolateUntPts */";
};
width = 1273;
}
);
note = uni0026;
unicode = 0026;
},
{
glyphname = quotesingle;
lastChange = "2020-11-29 18:16:05 +0000";
layers = (
{
layerId = "A9B054E9-1A63-4AEF-9EE1-561B1DFE8422";
paths = (
{
closed = 1;
nodes = (
"186 1122 LINE",
"200 1367 LINE",
"200 1536 LINE",
"145 1536 LINE",
"136 1122 LINE"
);
}
);
userData = {
assembly = "SVTCA[0]	/* SetFreedomAndProjectionVectorToAxis */
PUSHB[ ]	/* 1 value pushed */
3 
MDAP[1]	/* MoveDirectAbsPt */
PUSHB[ ]	/* 3 values pushed */
2 5 3 
SRP1[ ]	/* SetRefPoint1 */
SRP2[ ]	/* SetRefPoint2 */
IP[ ]	/* InterpolatePts */
PUSHB[ ]	/* 1 value pushed */
2 
MDAP[1]	/* MoveDirectAbsPt */
IUP[0]	/* InterpolateUntPts */
IUP[1]	/* InterpolateUntPts */";
};
width = 357;
},
{
layerId = m002;
paths = (
{
closed = 1;
nodes = (
"232 1057 LINE",
"253 1425 LINE",
"253 1536 LINE",
"104 1536 LINE",
"103 1057 LINE"
);
}
);
userData = {
assembly = "SVTCA[0]	/* SetFreedomAndProjectionVectorToAxis */
PUSHB[ ]	/* 1 value pushed */
3 
MDAP[1]	/* MoveDirectAbsPt */
PUSHB[ ]	/* 3 values pushed */
2 5 3 
SRP1[ ]	/* SetRefPoint1 */
SRP2[ ]	/* SetRefPoint2 */
IP[ ]	/* InterpolatePts */
PUSHB[ ]	/* 1 value pushed */
2 
MDAP[1]	/* MoveDirectAbsPt */
IUP[0]	/* InterpolateUntPts */
IUP[1]	/* InterpolateUntPts */";
};
width = 357;
}
);
leftKerningGroup = quotedbl;
note = uni0027;
rightKerningGroup = quotedbl;
unicode = 0027;
},
{
glyphname = parenleft;
lastChange = "2020-11-29 18:16:05 +0000";
layers = (
{
layerId = "A9B054E9-1A63-4AEF-9EE1-561B1DFE8422";
paths = (
{
closed = 1;
nodes = (
"581 -427 LINE",
"446.333 -337.667 OFFCURVE",
"318.667 -108.833 OFFCURVE",
"252 162.5 CURVE SMOOTH",
"218.667 298.167 OFFCURVE",
"202 432 OFFCURVE",
"202 564 CURVE SMOOTH",
"202 616 LINE SMOOTH",
"207 933 OFFCURVE",
"342 1422 OFFCURVE",
"581 1580 CURVE",
"562 1623 LINE",
"411.333 1528.333 OFFCURVE",
"271.667 1289.667 OFFCURVE",
"201 1011 CURVE SMOOTH",
"165.667 871.667 OFFCURVE",
"148 730 OFFCURVE",
"148 586 CURVE SMOOTH",
"148 259.333 OFFCURVE",
"223.167 -27.167 OFFCURVE",
"350.5 -238.5 CURVE SMOOTH",
"414.167 -344.167 OFFCURVE",
"484.667 -421.333 OFFCURVE",
"562 -470 CURVE"
);
}
);
userData = {
assembly = "SVTCA[0]	/* SetFreedomAndProjectionVectorToAxis */
PUSHB[ ]	/* 1 value pushed */
14 
MDAP[1]	/* MoveDirectAbsPt */
PUSHB[ ]	/* 1 value pushed */
4 
MDAP[1]	/* MoveDirectAbsPt */
IUP[0]	/* InterpolateUntPts */
IUP[1]	/* InterpolateUntPts */";
};
width = 700;
},
{
layerId = m002;
paths = (
{
closed = 1;
nodes = (
"661 -357 LINE",
"583 -293 OFFCURVE",
"515.667 -204.333 OFFCURVE",
"459 -91 CURVE SMOOTH",
"365 98.333 OFFCURVE",
"318 321.667 OFFCURVE",
"318 579 CURVE SMOOTH",
"319 664 LINE SMOOTH",
"331 1044 OFFCURVE",
"466.333 1371.667 OFFCURVE",
"661 1521 CURVE",
"623 1643 LINE",
"451 1549.667 OFFCURVE",
"274.167 1302.333 OFFCURVE",
"193.5 1025 CURVE SMOOTH",
"153.167 886.333 OFFCURVE",
"133 741.667 OFFCURVE",
"133 591 CURVE SMOOTH",
"133 275.667 OFFCURVE",
"211.667 4.667 OFFCURVE",
"369 -222 CURVE SMOOTH",
"449.667 -338 OFFCURVE",
"534.333 -420.667 OFFCURVE",
"623 -470 CURVE"
);
}
);
userData = {
assembly = "SVTCA[0]	/* SetFreedomAndProjectionVectorToAxis */
PUSHB[ ]	/* 1 value pushed */
14 
MDAP[1]	/* MoveDirectAbsPt */
PUSHB[ ]	/* 1 value pushed */
4 
MDAP[1]	/* MoveDirectAbsPt */
IUP[0]	/* InterpolateUntPts */
IUP[1]	/* InterpolateUntPts */";
};
width = 700;
}
);
note = uni0028;
unicode = 0028;
},
{
glyphname = parenright;
lastChange = "2020-11-29 18:16:05 +0000";
layers = (
{
layerId = "A9B054E9-1A63-4AEF-9EE1-561B1DFE8422";
paths = (
{
closed = 1;
nodes = (
"201.667 -372.667 OFFCURVE",
"336.167 -150.167 OFFCURVE",
"407.5 130.5 CURVE SMOOTH",
"443 271 OFFCURVE",
"461 416 OFFCURVE",
"461 566 CURVE SMOOTH",
"461 880.667 OFFCURVE",
"387.5 1164.667 OFFCURVE",
"257.5 1386 CURVE SMOOTH",
"192.5 1496.667 OFFCURVE",
"122.333 1575.667 OFFCURVE",
"47 1623 CURVE",
"28 1580 LINE",
"161.333 1492 OFFCURVE",
"288 1266.833 OFFCURVE",
"356 995.5 CURVE SMOOTH",
"390 859.833 OFFCURVE",
"407 724.667 OFFCURVE",
"407 590 CURVE SMOOTH",
"407 245 OFFCURVE",
"277 -260 OFFCURVE",
"28 -427 CURVE",
"47 -470 LINE"
);
}
);
userData = {
assembly = "SVTCA[0]	/* SetFreedomAndProjectionVectorToAxis */
PUSHB[ ]	/* 1 value pushed */
14 
MDAP[1]	/* MoveDirectAbsPt */
PUSHB[ ]	/* 1 value pushed */
4 
MDAP[1]	/* MoveDirectAbsPt */
IUP[0]	/* InterpolateUntPts */
IUP[1]	/* InterpolateUntPts */";
};
width = 712;
},
{
layerId = m002;
paths = (
{
closed = 1;
nodes = (
"253 -372.667 OFFCURVE",
"430.5 -119.167 OFFCURVE",
"508.5 153.5 CURVE SMOOTH",
"547.5 289.833 OFFCURVE",
"567 432.333 OFFCURVE",
"567 581 CURVE SMOOTH",
"567 894.333 OFFCURVE",
"487.833 1171 OFFCURVE",
"328.5 1399 CURVE SMOOTH",
"248.833 1513 OFFCURVE",
"165 1594.333 OFFCURVE",
"77 1643 CURVE",
"38 1530 LINE",
"168.667 1423.333 OFFCURVE",
"278.333 1224.167 OFFCURVE",
"337 983.5 CURVE SMOOTH",
"366.333 863.167 OFFCURVE",
"381 733 OFFCURVE",
"381 593 CURVE SMOOTH",
"378.333 157 OFFCURVE",
"243.333 -199.667 OFFCURVE",
"38 -357 CURVE",
"77 -470 LINE"
);
}
);
userData = {
assembly = "SVTCA[0]	/* SetFreedomAndProjectionVectorToAxis */
PUSHB[ ]	/* 1 value pushed */
14 
MDAP[1]	/* MoveDirectAbsPt */
PUSHB[ ]	/* 1 value pushed */
4 
MDAP[1]	/* MoveDirectAbsPt */
IUP[0]	/* InterpolateUntPts */
IUP[1]	/* InterpolateUntPts */";
};
width = 712;
}
);
note = uni0029;
unicode = 0029;
},
{
glyphname = asterisk;
lastChange = "2020-11-29 18:16:05 +0000";
layers = (
{
layerId = "A9B054E9-1A63-4AEF-9EE1-561B1DFE8422";
paths = (
{
closed = 1;
nodes = (
"432 986 LINE",
"674 664 LINE",
"721 697 LINE",
"472 1014 LINE",
"832 1151 LINE",
"812 1204 LINE",
"460 1061 LINE",
"467 1456 LINE",
"411 1456 LINE",
"410 1062 LINE",
"48 1195 LINE",
"30 1141 LINE",
"393 1017 LINE",
"159 693 LINE",
"204 661 LINE"
);
}
);
userData = {
assembly = "SVTCA[0]	/* SetFreedomAndProjectionVectorToAxis */
PUSHB[ ]	/* 1 value pushed */
0 
RCVT[ ]	/* ReadCVT */
IF[ ]	/* If */
PUSHB[ ]	/* 1 value pushed */
4 
MDAP[1]	/* MoveDirectAbsPt */
ELSE[ ]	/* Else */
PUSHB[ ]	/* 2 values pushed */
4 30 
MIAP[0]	/* MoveIndirectAbsPt */
EIF[ ]	/* EndIf */
PUSHB[ ]	/* 1 value pushed */
0 
MDRP[10000]	/* MoveDirectRelPt */
RTHG[ ]	/* RoundToHalfGrid */
PUSHB[ ]	/* 1 value pushed */
0 
MDAP[1]	/* MoveDirectAbsPt */
RTG[ ]	/* RoundToGrid */
PUSHB[ ]	/* 1 value pushed */
9 
MDRP[10000]	/* MoveDirectRelPt */
RTHG[ ]	/* RoundToHalfGrid */
PUSHB[ ]	/* 1 value pushed */
9 
MDAP[1]	/* MoveDirectAbsPt */
RTG[ ]	/* RoundToGrid */
IUP[0]	/* InterpolateUntPts */
IUP[1]	/* InterpolateUntPts */";
};
width = 882;
},
{
layerId = m002;
paths = (
{
closed = 1;
nodes = (
"744 703 LINE",
"546 974 LINE",
"853 1065 LINE",
"807 1217 LINE",
"510 1107 LINE",
"520 1456 LINE",
"367 1456 LINE",
"376 1112 LINE",
"74 1224 LINE",
"28 1073 LINE",
"330 983 LINE",
"129 707 LINE",
"254 616 LINE",
"434 897 LINE",
"620 609 LINE"
);
}
);
userData = {
assembly = "SVTCA[0]	/* SetFreedomAndProjectionVectorToAxis */
PUSHB[ ]	/* 1 value pushed */
0 
RCVT[ ]	/* ReadCVT */
IF[ ]	/* If */
PUSHB[ ]	/* 1 value pushed */
4 
MDAP[1]	/* MoveDirectAbsPt */
ELSE[ ]	/* Else */
PUSHB[ ]	/* 2 values pushed */
4 30 
MIAP[0]	/* MoveIndirectAbsPt */
EIF[ ]	/* EndIf */
PUSHB[ ]	/* 1 value pushed */
0 
MDRP[10000]	/* MoveDirectRelPt */
RTHG[ ]	/* RoundToHalfGrid */
PUSHB[ ]	/* 1 value pushed */
0 
MDAP[1]	/* MoveDirectAbsPt */
RTG[ ]	/* RoundToGrid */
PUSHB[ ]	/* 1 value pushed */
9 
MDRP[10000]	/* MoveDirectRelPt */
RTHG[ ]	/* RoundToHalfGrid */
PUSHB[ ]	/* 1 value pushed */
9 
MDAP[1]	/* MoveDirectAbsPt */
RTG[ ]	/* RoundToGrid */
IUP[0]	/* InterpolateUntPts */
IUP[1]	/* InterpolateUntPts */";
};
width = 882;
}
);
note = uni002A;
unicode = 002A;
},
{
glyphname = plus;
lastChange = "2020-11-29 18:16:05 +0000";
layers = (
{
layerId = "A9B054E9-1A63-4AEF-9EE1-561B1DFE8422";
paths = (
{
closed = 1;
nodes = (
"590 146 LINE",
"590 649 LINE",
"1071 649 LINE",
"1071 702 LINE",
"590 702 LINE",
"590 1206 LINE",
"535 1206 LINE",
"535 702 LINE",
"73 702 LINE",
"73 649 LINE",
"535 649 LINE",
"535 146 LINE"
);
}
);
userData = {
assembly = "SVTCA[0]	/* SetFreedomAndProjectionVectorToAxis */
PUSHB[ ]	/* 1 value pushed */
9 
MDAP[1]	/* MoveDirectAbsPt */
PUSHB[ ]	/* 1 value pushed */
0 
MDRP[10000]	/* MoveDirectRelPt */
PUSHB[ ]	/* 1 value pushed */
9 
SRP0[ ]	/* SetRefPoint0 */
PUSHB[ ]	/* 2 values pushed */
6 1 
PUSHB[ ]	/* 1 value pushed */
10 
CALL[ ]	/* CallFunction */
IF[ ]	/* If */
POP[ ]	/* PopTopStack */
MDRP[11000]	/* MoveDirectRelPt */
ELSE[ ]	/* Else */
MIRP[10100]	/* MoveIndirectRelPt */
EIF[ ]	/* EndIf */
PUSHB[ ]	/* 1 value pushed */
3 
MDRP[10000]	/* MoveDirectRelPt */
IUP[0]	/* InterpolateUntPts */
IUP[1]	/* InterpolateUntPts */";
};
width = 1161;
},
{
layerId = m002;
paths = (
{
closed = 1;
nodes = (
"670 146 LINE",
"670 606 LINE",
"1076 606 LINE",
"1076 781 LINE",
"670 781 LINE",
"670 1206 LINE",
"484 1206 LINE",
"484 781 LINE",
"78 781 LINE",
"78 606 LINE",
"484 606 LINE",
"484 146 LINE"
);
}
);
userData = {
assembly = "SVTCA[0]	/* SetFreedomAndProjectionVectorToAxis */
PUSHB[ ]	/* 1 value pushed */
9 
MDAP[1]	/* MoveDirectAbsPt */
PUSHB[ ]	/* 1 value pushed */
0 
MDRP[10000]	/* MoveDirectRelPt */
PUSHB[ ]	/* 1 value pushed */
9 
SRP0[ ]	/* SetRefPoint0 */
PUSHB[ ]	/* 2 values pushed */
6 1 
PUSHB[ ]	/* 1 value pushed */
10 
CALL[ ]	/* CallFunction */
IF[ ]	/* If */
POP[ ]	/* PopTopStack */
MDRP[11000]	/* MoveDirectRelPt */
ELSE[ ]	/* Else */
MIRP[10100]	/* MoveIndirectRelPt */
EIF[ ]	/* EndIf */
PUSHB[ ]	/* 1 value pushed */
3 
MDRP[10000]	/* MoveDirectRelPt */
IUP[0]	/* InterpolateUntPts */
IUP[1]	/* InterpolateUntPts */";
};
width = 1161;
}
);
note = uni002B;
unicode = 002B;
},
{
glyphname = comma;
lastChange = "2020-11-29 18:16:05 +0000";
layers = (
{
layerId = "A9B054E9-1A63-4AEF-9EE1-561B1DFE8422";
paths = (
{
closed = 1;
nodes = (
"197 -182.333 OFFCURVE",
"232.333 -93 OFFCURVE",
"235 13 CURVE SMOOTH",
"235 159 LINE",
"181 159 LINE",
"180 -8 LINE",
"175.333 -82 OFFCURVE",
"146 -153.667 OFFCURVE",
"92 -223 CURVE",
"129 -255 LINE"
);
}
);
userData = {
assembly = "SVTCA[0]	/* SetFreedomAndProjectionVectorToAxis */
PUSHB[ ]	/* 1 value pushed */
9 
MDAP[1]	/* MoveDirectAbsPt */
PUSHB[ ]	/* 2 values pushed */
4 5 
PUSHB[ ]	/* 1 value pushed */
10 
CALL[ ]	/* CallFunction */
IF[ ]	/* If */
POP[ ]	/* PopTopStack */
MDRP[11000]	/* MoveDirectRelPt */
ELSE[ ]	/* Else */
MIRP[10100]	/* MoveIndirectRelPt */
EIF[ ]	/* EndIf */
PUSHB[ ]	/* 1 value pushed */
0 
MDRP[10000]	/* MoveDirectRelPt */
PUSHB[ ]	/* 1 value pushed */
0 
MDAP[1]	/* MoveDirectAbsPt */
IUP[0]	/* InterpolateUntPts */
IUP[1]	/* InterpolateUntPts */";
};
width = 402;
},
{
layerId = m002;
paths = (
{
closed = 1;
nodes = (
"234 -208.667 OFFCURVE",
"308 -60.667 OFFCURVE",
"308 74 CURVE SMOOTH",
"308 219 LINE",
"127 219 LINE",
"127 52 LINE SMOOTH",
"124.333 -40.667 OFFCURVE",
"91.667 -130.667 OFFCURVE",
"29 -218 CURVE",
"134 -290 LINE"
);
}
);
userData = {
assembly = "SVTCA[0]	/* SetFreedomAndProjectionVectorToAxis */
PUSHB[ ]	/* 1 value pushed */
9 
MDAP[1]	/* MoveDirectAbsPt */
PUSHB[ ]	/* 2 values pushed */
4 5 
PUSHB[ ]	/* 1 value pushed */
10 
CALL[ ]	/* CallFunction */
IF[ ]	/* If */
POP[ ]	/* PopTopStack */
MDRP[11000]	/* MoveDirectRelPt */
ELSE[ ]	/* Else */
MIRP[10100]	/* MoveIndirectRelPt */
EIF[ ]	/* EndIf */
PUSHB[ ]	/* 1 value pushed */
0 
MDRP[10000]	/* MoveDirectRelPt */
PUSHB[ ]	/* 1 value pushed */
0 
MDAP[1]	/* MoveDirectAbsPt */
IUP[0]	/* InterpolateUntPts */
IUP[1]	/* InterpolateUntPts */";
};
width = 402;
}
);
leftKerningGroup = comma;
note = uni002C;
rightKerningGroup = comma;
unicode = 002C;
},
{
glyphname = hyphen;
lastChange = "2020-11-29 18:16:05 +0000";
layers = (
{
layerId = "A9B054E9-1A63-4AEF-9EE1-561B1DFE8422";
paths = (
{
closed = 1;
nodes = (
"531 639 LINE",
"531 693 LINE",
"61 693 LINE",
"61 639 LINE"
);
}
);
userData = {
assembly = "SVTCA[0]	/* SetFreedomAndProjectionVectorToAxis */
PUSHB[ ]	/* 1 value pushed */
2 
MDAP[1]	/* MoveDirectAbsPt */
PUSHB[ ]	/* 2 values pushed */
1 1 
PUSHB[ ]	/* 1 value pushed */
10 
CALL[ ]	/* CallFunction */
IF[ ]	/* If */
POP[ ]	/* PopTopStack */
MDRP[11000]	/* MoveDirectRelPt */
ELSE[ ]	/* Else */
MIRP[10100]	/* MoveIndirectRelPt */
EIF[ ]	/* EndIf */
IUP[0]	/* InterpolateUntPts */
IUP[1]	/* InterpolateUntPts */";
};
width = 565;
},
{
layerId = m002;
paths = (
{
closed = 1;
nodes = (
"525 543 LINE",
"525 694 LINE",
"37 694 LINE",
"37 543 LINE"
);
}
);
userData = {
assembly = "SVTCA[0]	/* SetFreedomAndProjectionVectorToAxis */
PUSHB[ ]	/* 1 value pushed */
2 
MDAP[1]	/* MoveDirectAbsPt */
PUSHB[ ]	/* 2 values pushed */
1 1 
PUSHB[ ]	/* 1 value pushed */
10 
CALL[ ]	/* CallFunction */
IF[ ]	/* If */
POP[ ]	/* PopTopStack */
MDRP[11000]	/* MoveDirectRelPt */
ELSE[ ]	/* Else */
MIRP[10100]	/* MoveIndirectRelPt */
EIF[ ]	/* EndIf */
IUP[0]	/* InterpolateUntPts */
IUP[1]	/* InterpolateUntPts */";
};
width = 565;
}
);
leftKerningGroup = hyphen;
note = uni002D;
unicode = 002D;
},
{
glyphname = period;
lastChange = "2020-11-29 18:16:05 +0000";
layers = (
{
layerId = "A9B054E9-1A63-4AEF-9EE1-561B1DFE8422";
paths = (
{
closed = 1;
nodes = (
"232.667 -6 OFFCURVE",
"258 18.333 OFFCURVE",
"258 49 CURVE SMOOTH",
"258 79.667 OFFCURVE",
"232.667 105 OFFCURVE",
"202 105 CURVE SMOOTH",
"171.333 105 OFFCURVE",
"147 79.667 OFFCURVE",
"147 49 CURVE SMOOTH",
"147 18.333 OFFCURVE",
"171.333 -6 OFFCURVE",
"202 -6 CURVE SMOOTH"
);
}
);
userData = {
assembly = "SVTCA[0]	/* SetFreedomAndProjectionVectorToAxis */
PUSHB[ ]	/* 1 value pushed */
0 
RCVT[ ]	/* ReadCVT */
IF[ ]	/* If */
PUSHB[ ]	/* 1 value pushed */
7 
MDAP[1]	/* MoveDirectAbsPt */
ELSE[ ]	/* Else */
PUSHB[ ]	/* 2 values pushed */
7 18 
MIAP[0]	/* MoveIndirectAbsPt */
EIF[ ]	/* EndIf */
PUSHB[ ]	/* 2 values pushed */
2 5 
PUSHB[ ]	/* 1 value pushed */
10 
CALL[ ]	/* CallFunction */
IF[ ]	/* If */
POP[ ]	/* PopTopStack */
MDRP[11000]	/* MoveDirectRelPt */
ELSE[ ]	/* Else */
MIRP[10100]	/* MoveIndirectRelPt */
EIF[ ]	/* EndIf */
IUP[0]	/* InterpolateUntPts */
IUP[1]	/* InterpolateUntPts */";
};
width = 539;
},
{
layerId = m002;
paths = (
{
closed = 1;
nodes = (
"334 -11 OFFCURVE",
"374 35.667 OFFCURVE",
"374 97 CURVE SMOOTH",
"374 161 OFFCURVE",
"334 209 OFFCURVE",
"258 209 CURVE SMOOTH",
"182 209 OFFCURVE",
"144 161 OFFCURVE",
"144 97 CURVE SMOOTH",
"144 35.667 OFFCURVE",
"182 -11 OFFCURVE",
"258 -11 CURVE SMOOTH"
);
}
);
userData = {
assembly = "SVTCA[0]	/* SetFreedomAndProjectionVectorToAxis */
PUSHB[ ]	/* 1 value pushed */
0 
RCVT[ ]	/* ReadCVT */
IF[ ]	/* If */
PUSHB[ ]	/* 1 value pushed */
7 
MDAP[1]	/* MoveDirectAbsPt */
ELSE[ ]	/* Else */
PUSHB[ ]	/* 2 values pushed */
7 18 
MIAP[0]	/* MoveIndirectAbsPt */
EIF[ ]	/* EndIf */
PUSHB[ ]	/* 2 values pushed */
2 5 
PUSHB[ ]	/* 1 value pushed */
10 
CALL[ ]	/* CallFunction */
IF[ ]	/* If */
POP[ ]	/* PopTopStack */
MDRP[11000]	/* MoveDirectRelPt */
ELSE[ ]	/* Else */
MIRP[10100]	/* MoveIndirectRelPt */
EIF[ ]	/* EndIf */
IUP[0]	/* InterpolateUntPts */
IUP[1]	/* InterpolateUntPts */";
};
width = 539;
}
);
leftKerningGroup = comma;
note = uni002E;
rightKerningGroup = comma;
unicode = 002E;
},
{
glyphname = slash;
lastChange = "2020-11-29 18:16:05 +0000";
layers = (
{
layerId = "A9B054E9-1A63-4AEF-9EE1-561B1DFE8422";
paths = (
{
closed = 1;
nodes = (
"101 -125 LINE",
"709 1456 LINE",
"650 1456 LINE",
"42 -125 LINE"
);
}
);
userData = {
assembly = "SVTCA[0]	/* SetFreedomAndProjectionVectorToAxis */
PUSHB[ ]	/* 1 value pushed */
0 
MDAP[1]	/* MoveDirectAbsPt */
PUSHB[ ]	/* 1 value pushed */
0 
RCVT[ ]	/* ReadCVT */
IF[ ]	/* If */
PUSHB[ ]	/* 1 value pushed */
2 
MDAP[1]	/* MoveDirectAbsPt */
ELSE[ ]	/* Else */
PUSHB[ ]	/* 2 values pushed */
2 30 
MIAP[0]	/* MoveIndirectAbsPt */
EIF[ ]	/* EndIf */
IUP[0]	/* InterpolateUntPts */
IUP[1]	/* InterpolateUntPts */";
};
width = 844;
},
{
layerId = m002;
paths = (
{
closed = 1;
nodes = (
"177 -125 LINE",
"784 1456 LINE",
"626 1456 LINE",
"18 -125 LINE"
);
}
);
userData = {
assembly = "SVTCA[0]	/* SetFreedomAndProjectionVectorToAxis */
PUSHB[ ]	/* 1 value pushed */
0 
MDAP[1]	/* MoveDirectAbsPt */
PUSHB[ ]	/* 1 value pushed */
0 
RCVT[ ]	/* ReadCVT */
IF[ ]	/* If */
PUSHB[ ]	/* 1 value pushed */
2 
MDAP[1]	/* MoveDirectAbsPt */
ELSE[ ]	/* Else */
PUSHB[ ]	/* 2 values pushed */
2 30 
MIAP[0]	/* MoveIndirectAbsPt */
EIF[ ]	/* EndIf */
IUP[0]	/* InterpolateUntPts */
IUP[1]	/* InterpolateUntPts */";
};
width = 844;
}
);
note = uni002F;
unicode = 002F;
},
{
glyphname = zero;
lastChange = "2020-11-29 18:18:29 +0000";
layers = (
{
layerId = "A9B054E9-1A63-4AEF-9EE1-561B1DFE8422";
paths = (
{
closed = 1;
nodes = (
"836.667 -20 OFFCURVE",
"996 203.333 OFFCURVE",
"996 594 CURVE SMOOTH",
"996 858 LINE SMOOTH",
"996 1250 OFFCURVE",
"836 1477 OFFCURVE",
"560 1477 CURVE SMOOTH",
"285.333 1477 OFFCURVE",
"125 1248.667 OFFCURVE",
"125 862 CURVE SMOOTH",
"125 598 LINE SMOOTH",
"125 206 OFFCURVE",
"288.667 -20 OFFCURVE",
"562 -20 CURVE SMOOTH"
);
},
{
closed = 1;
nodes = (
"179 857 LINE SMOOTH",
"179 1215.667 OFFCURVE",
"314.667 1423 OFFCURVE",
"560 1423 CURVE SMOOTH",
"804 1423 OFFCURVE",
"942 1215.333 OFFCURVE",
"942 862 CURVE SMOOTH",
"942 601 LINE SMOOTH",
"942 242.333 OFFCURVE",
"804.667 34 OFFCURVE",
"562 34 CURVE SMOOTH",
"320.667 34 OFFCURVE",
"179 244 OFFCURVE",
"179 596 CURVE SMOOTH"
);
}
);
userData = {
assembly = "SVTCA[0]	/* SetFreedomAndProjectionVectorToAxis */
PUSHB[ ]	/* 1 value pushed */
0 
RCVT[ ]	/* ReadCVT */
IF[ ]	/* If */
PUSHB[ ]	/* 1 value pushed */
10 
MDAP[1]	/* MoveDirectAbsPt */
ELSE[ ]	/* Else */
PUSHB[ ]	/* 2 values pushed */
10 30 
MIAP[0]	/* MoveIndirectAbsPt */
EIF[ ]	/* EndIf */
PUSHB[ ]	/* 1 value pushed */
0 
RCVT[ ]	/* ReadCVT */
IF[ ]	/* If */
PUSHB[ ]	/* 1 value pushed */
3 
MDAP[1]	/* MoveDirectAbsPt */
ELSE[ ]	/* Else */
PUSHB[ ]	/* 2 values pushed */
3 18 
MIAP[0]	/* MoveIndirectAbsPt */
EIF[ ]	/* EndIf */
PUSHB[ ]	/* 1 value pushed */
10 
SRP0[ ]	/* SetRefPoint0 */
PUSHB[ ]	/* 2 values pushed */
17 1 
PUSHB[ ]	/* 1 value pushed */
10 
CALL[ ]	/* CallFunction */
IF[ ]	/* If */
POP[ ]	/* PopTopStack */
MDRP[11000]	/* MoveDirectRelPt */
ELSE[ ]	/* Else */
MIRP[10100]	/* MoveIndirectRelPt */
EIF[ ]	/* EndIf */
PUSHB[ ]	/* 1 value pushed */
3 
SRP0[ ]	/* SetRefPoint0 */
PUSHB[ ]	/* 2 values pushed */
24 1 
PUSHB[ ]	/* 1 value pushed */
10 
CALL[ ]	/* CallFunction */
IF[ ]	/* If */
POP[ ]	/* PopTopStack */
MDRP[11000]	/* MoveDirectRelPt */
ELSE[ ]	/* Else */
MIRP[10100]	/* MoveIndirectRelPt */
EIF[ ]	/* EndIf */
IUP[0]	/* InterpolateUntPts */
IUP[1]	/* InterpolateUntPts */";
};
width = 1150;
},
{
layerId = m002;
paths = (
{
closed = 1;
nodes = (
"890.667 -20 OFFCURVE",
"1034 187.667 OFFCURVE",
"1034 621 CURVE SMOOTH",
"1034 861 LINE SMOOTH",
"1030 1279.667 OFFCURVE",
"887.333 1476 OFFCURVE",
"574 1476 CURVE SMOOTH",
"258 1476 OFFCURVE",
"115 1271 OFFCURVE",
"115 843 CURVE SMOOTH",
"115 596 LINE SMOOTH",
"120.333 186.667 OFFCURVE",
"265.333 -20 OFFCURVE",
"576 -20 CURVE SMOOTH"
);
},
{
closed = 1;
nodes = (
"300 888 LINE SMOOTH",
"302.667 1184 OFFCURVE",
"384.667 1324 OFFCURVE",
"574 1324 CURVE SMOOTH",
"764.667 1324 OFFCURVE",
"849 1187.333 OFFCURVE",
"849 874 CURVE SMOOTH",
"849 571 LINE SMOOTH",
"845 267 OFFCURVE",
"758.667 131 OFFCURVE",
"576 131 CURVE SMOOTH",
"390.667 131 OFFCURVE",
"300 277.333 OFFCURVE",
"300 592 CURVE SMOOTH"
);
}
);
userData = {
assembly = "SVTCA[0]	/* SetFreedomAndProjectionVectorToAxis */
PUSHB[ ]	/* 1 value pushed */
0 
RCVT[ ]	/* ReadCVT */
IF[ ]	/* If */
PUSHB[ ]	/* 1 value pushed */
10 
MDAP[1]	/* MoveDirectAbsPt */
ELSE[ ]	/* Else */
PUSHB[ ]	/* 2 values pushed */
10 30 
MIAP[0]	/* MoveIndirectAbsPt */
EIF[ ]	/* EndIf */
PUSHB[ ]	/* 1 value pushed */
0 
RCVT[ ]	/* ReadCVT */
IF[ ]	/* If */
PUSHB[ ]	/* 1 value pushed */
3 
MDAP[1]	/* MoveDirectAbsPt */
ELSE[ ]	/* Else */
PUSHB[ ]	/* 2 values pushed */
3 18 
MIAP[0]	/* MoveIndirectAbsPt */
EIF[ ]	/* EndIf */
PUSHB[ ]	/* 1 value pushed */
10 
SRP0[ ]	/* SetRefPoint0 */
PUSHB[ ]	/* 2 values pushed */
17 1 
PUSHB[ ]	/* 1 value pushed */
10 
CALL[ ]	/* CallFunction */
IF[ ]	/* If */
POP[ ]	/* PopTopStack */
MDRP[11000]	/* MoveDirectRelPt */
ELSE[ ]	/* Else */
MIRP[10100]	/* MoveIndirectRelPt */
EIF[ ]	/* EndIf */
PUSHB[ ]	/* 1 value pushed */
3 
SRP0[ ]	/* SetRefPoint0 */
PUSHB[ ]	/* 2 values pushed */
24 1 
PUSHB[ ]	/* 1 value pushed */
10 
CALL[ ]	/* CallFunction */
IF[ ]	/* If */
POP[ ]	/* PopTopStack */
MDRP[11000]	/* MoveDirectRelPt */
ELSE[ ]	/* Else */
MIRP[10100]	/* MoveIndirectRelPt */
EIF[ ]	/* EndIf */
IUP[0]	/* InterpolateUntPts */
IUP[1]	/* InterpolateUntPts */";
};
width = 1150;
}
);
note = uni0030;
unicode = 0030;
},
{
glyphname = one;
lastChange = "2020-11-29 18:16:05 +0000";
layers = (
{
layerId = "A9B054E9-1A63-4AEF-9EE1-561B1DFE8422";
paths = (
{
closed = 1;
nodes = (
"659 0 LINE",
"659 1460 LINE",
"648 1460 LINE",
"187 1290 LINE",
"187 1231 LINE",
"605 1388 LINE",
"605 0 LINE"
);
}
);
userData = {
assembly = "SVTCA[0]	/* SetFreedomAndProjectionVectorToAxis */
PUSHB[ ]	/* 1 value pushed */
0 
RCVT[ ]	/* ReadCVT */
IF[ ]	/* If */
PUSHB[ ]	/* 1 value pushed */
5 
MDAP[1]	/* MoveDirectAbsPt */
ELSE[ ]	/* Else */
PUSHB[ ]	/* 2 values pushed */
5 30 
MIAP[0]	/* MoveIndirectAbsPt */
EIF[ ]	/* EndIf */
PUSHB[ ]	/* 1 value pushed */
0 
RCVT[ ]	/* ReadCVT */
IF[ ]	/* If */
PUSHB[ ]	/* 1 value pushed */
0 
MDAP[1]	/* MoveDirectAbsPt */
ELSE[ ]	/* Else */
PUSHB[ ]	/* 2 values pushed */
0 18 
MIAP[0]	/* MoveIndirectAbsPt */
EIF[ ]	/* EndIf */
PUSHB[ ]	/* 3 values pushed */
4 0 5 
SRP1[ ]	/* SetRefPoint1 */
SRP2[ ]	/* SetRefPoint2 */
IP[ ]	/* InterpolatePts */
PUSHB[ ]	/* 1 value pushed */
4 
MDAP[1]	/* MoveDirectAbsPt */
PUSHB[ ]	/* 2 values pushed */
3 1 
PUSHB[ ]	/* 1 value pushed */
10 
CALL[ ]	/* CallFunction */
IF[ ]	/* If */
POP[ ]	/* PopTopStack */
MDRP[11000]	/* MoveDirectRelPt */
ELSE[ ]	/* Else */
MIRP[10100]	/* MoveIndirectRelPt */
EIF[ ]	/* EndIf */
PUSHB[ ]	/* 3 values pushed */
2 3 5 
SRP1[ ]	/* SetRefPoint1 */
SRP2[ ]	/* SetRefPoint2 */
IP[ ]	/* InterpolatePts */
IUP[0]	/* InterpolateUntPts */
IUP[1]	/* InterpolateUntPts */";
};
width = 1150;
},
{
layerId = m002;
paths = (
{
closed = 1;
nodes = (
"729 0 LINE",
"729 1463 LINE",
"700 1463 LINE",
"170 1264 LINE",
"170 1096 LINE",
"543 1233 LINE",
"543 0 LINE"
);
}
);
userData = {
assembly = "SVTCA[0]	/* SetFreedomAndProjectionVectorToAxis */
PUSHB[ ]	/* 1 value pushed */
0 
RCVT[ ]	/* ReadCVT */
IF[ ]	/* If */
PUSHB[ ]	/* 1 value pushed */
5 
MDAP[1]	/* MoveDirectAbsPt */
ELSE[ ]	/* Else */
PUSHB[ ]	/* 2 values pushed */
5 30 
MIAP[0]	/* MoveIndirectAbsPt */
EIF[ ]	/* EndIf */
PUSHB[ ]	/* 1 value pushed */
0 
RCVT[ ]	/* ReadCVT */
IF[ ]	/* If */
PUSHB[ ]	/* 1 value pushed */
0 
MDAP[1]	/* MoveDirectAbsPt */
ELSE[ ]	/* Else */
PUSHB[ ]	/* 2 values pushed */
0 18 
MIAP[0]	/* MoveIndirectAbsPt */
EIF[ ]	/* EndIf */
PUSHB[ ]	/* 3 values pushed */
4 0 5 
SRP1[ ]	/* SetRefPoint1 */
SRP2[ ]	/* SetRefPoint2 */
IP[ ]	/* InterpolatePts */
PUSHB[ ]	/* 1 value pushed */
4 
MDAP[1]	/* MoveDirectAbsPt */
PUSHB[ ]	/* 2 values pushed */
3 1 
PUSHB[ ]	/* 1 value pushed */
10 
CALL[ ]	/* CallFunction */
IF[ ]	/* If */
POP[ ]	/* PopTopStack */
MDRP[11000]	/* MoveDirectRelPt */
ELSE[ ]	/* Else */
MIRP[10100]	/* MoveIndirectRelPt */
EIF[ ]	/* EndIf */
PUSHB[ ]	/* 3 values pushed */
2 3 5 
SRP1[ ]	/* SetRefPoint1 */
SRP2[ ]	/* SetRefPoint2 */
IP[ ]	/* InterpolatePts */
IUP[0]	/* InterpolateUntPts */
IUP[1]	/* InterpolateUntPts */";
};
width = 1150;
}
);
note = uni0031;
unicode = 0031;
},
{
glyphname = two;
lastChange = "2020-11-29 18:16:05 +0000";
layers = (
{
layerId = "A9B054E9-1A63-4AEF-9EE1-561B1DFE8422";
paths = (
{
closed = 1;
nodes = (
"1024 0 LINE",
"1024 54 LINE",
"224 54 LINE",
"664 567 LINE",
"882.333 836 OFFCURVE",
"946 971.667 OFFCURVE",
"946 1085 CURVE SMOOTH",
"946 1331.667 OFFCURVE",
"794.667 1476 OFFCURVE",
"536 1476 CURVE SMOOTH",
"289 1476 OFFCURVE",
"117 1282 OFFCURVE",
"117 1045 CURVE",
"171 1045 LINE",
"171 1261 OFFCURVE",
"328 1422 OFFCURVE",
"536 1422 CURVE SMOOTH",
"761.333 1422 OFFCURVE",
"891 1298.333 OFFCURVE",
"891 1085 CURVE SMOOTH",
"891 961 OFFCURVE",
"812.667 817.667 OFFCURVE",
"650 627 CURVE SMOOTH",
"153 54 LINE",
"153 0 LINE"
);
}
);
userData = {
assembly = "SVTCA[0]	/* SetFreedomAndProjectionVectorToAxis */
PUSHB[ ]	/* 1 value pushed */
0 
RCVT[ ]	/* ReadCVT */
IF[ ]	/* If */
PUSHB[ ]	/* 1 value pushed */
16 
MDAP[1]	/* MoveDirectAbsPt */
ELSE[ ]	/* Else */
PUSHB[ ]	/* 2 values pushed */
16 30 
MIAP[0]	/* MoveIndirectAbsPt */
EIF[ ]	/* EndIf */
PUSHB[ ]	/* 1 value pushed */
0 
RCVT[ ]	/* ReadCVT */
IF[ ]	/* If */
PUSHB[ ]	/* 1 value pushed */
0 
MDAP[1]	/* MoveDirectAbsPt */
ELSE[ ]	/* Else */
PUSHB[ ]	/* 2 values pushed */
0 18 
MIAP[0]	/* MoveIndirectAbsPt */
EIF[ ]	/* EndIf */
PUSHB[ ]	/* 2 values pushed */
23 1 
PUSHB[ ]	/* 1 value pushed */
10 
CALL[ ]	/* CallFunction */
IF[ ]	/* If */
POP[ ]	/* PopTopStack */
MDRP[11000]	/* MoveDirectRelPt */
ELSE[ ]	/* Else */
MIRP[10100]	/* MoveIndirectRelPt */
EIF[ ]	/* EndIf */
PUSHB[ ]	/* 1 value pushed */
2 
MDRP[10000]	/* MoveDirectRelPt */
PUSHB[ ]	/* 3 values pushed */
3 16 23 
SRP1[ ]	/* SetRefPoint1 */
SRP2[ ]	/* SetRefPoint2 */
IP[ ]	/* InterpolatePts */
PUSHB[ ]	/* 1 value pushed */
16 
SRP0[ ]	/* SetRefPoint0 */
PUSHB[ ]	/* 2 values pushed */
9 1 
PUSHB[ ]	/* 1 value pushed */
10 
CALL[ ]	/* CallFunction */
IF[ ]	/* If */
POP[ ]	/* PopTopStack */
MDRP[11000]	/* MoveDirectRelPt */
ELSE[ ]	/* Else */
MIRP[10100]	/* MoveIndirectRelPt */
EIF[ ]	/* EndIf */
PUSHB[ ]	/* 1 value pushed */
16 
SRP0[ ]	/* SetRefPoint0 */
PUSHB[ ]	/* 1 value pushed */
12 
MDRP[10000]	/* MoveDirectRelPt */
PUSHB[ ]	/* 3 values pushed */
21 23 16 
SRP1[ ]	/* SetRefPoint1 */
SRP2[ ]	/* SetRefPoint2 */
IP[ ]	/* InterpolatePts */
IUP[0]	/* InterpolateUntPts */
IUP[1]	/* InterpolateUntPts */";
};
width = 1150;
},
{
layerId = m002;
paths = (
{
closed = 1;
nodes = (
"1075 0 LINE",
"1075 151 LINE",
"344 151 LINE",
"734 574 LINE SMOOTH",
"916.667 772 OFFCURVE",
"1008 942.667 OFFCURVE",
"1008 1086 CURVE SMOOTH",
"1008 1322 OFFCURVE",
"839.667 1476 OFFCURVE",
"569 1476 CURVE SMOOTH",
"279.667 1476 OFFCURVE",
"93 1295 OFFCURVE",
"93 1027 CURVE",
"278 1027 LINE",
"278 1213.667 OFFCURVE",
"385 1324 OFFCURVE",
"569 1324 CURVE SMOOTH",
"722.333 1324 OFFCURVE",
"822 1216 OFFCURVE",
"822 1064 CURVE SMOOTH",
"822 950.667 OFFCURVE",
"774.333 862.333 OFFCURVE",
"625 693 CURVE SMOOTH",
"121 133 LINE",
"121 0 LINE"
);
}
);
userData = {
assembly = "SVTCA[0]	/* SetFreedomAndProjectionVectorToAxis */
PUSHB[ ]	/* 1 value pushed */
0 
RCVT[ ]	/* ReadCVT */
IF[ ]	/* If */
PUSHB[ ]	/* 1 value pushed */
16 
MDAP[1]	/* MoveDirectAbsPt */
ELSE[ ]	/* Else */
PUSHB[ ]	/* 2 values pushed */
16 30 
MIAP[0]	/* MoveIndirectAbsPt */
EIF[ ]	/* EndIf */
PUSHB[ ]	/* 1 value pushed */
0 
RCVT[ ]	/* ReadCVT */
IF[ ]	/* If */
PUSHB[ ]	/* 1 value pushed */
0 
MDAP[1]	/* MoveDirectAbsPt */
ELSE[ ]	/* Else */
PUSHB[ ]	/* 2 values pushed */
0 18 
MIAP[0]	/* MoveIndirectAbsPt */
EIF[ ]	/* EndIf */
PUSHB[ ]	/* 2 values pushed */
23 1 
PUSHB[ ]	/* 1 value pushed */
10 
CALL[ ]	/* CallFunction */
IF[ ]	/* If */
POP[ ]	/* PopTopStack */
MDRP[11000]	/* MoveDirectRelPt */
ELSE[ ]	/* Else */
MIRP[10100]	/* MoveIndirectRelPt */
EIF[ ]	/* EndIf */
PUSHB[ ]	/* 1 value pushed */
2 
MDRP[10000]	/* MoveDirectRelPt */
PUSHB[ ]	/* 3 values pushed */
3 16 23 
SRP1[ ]	/* SetRefPoint1 */
SRP2[ ]	/* SetRefPoint2 */
IP[ ]	/* InterpolatePts */
PUSHB[ ]	/* 1 value pushed */
16 
SRP0[ ]	/* SetRefPoint0 */
PUSHB[ ]	/* 2 values pushed */
9 1 
PUSHB[ ]	/* 1 value pushed */
10 
CALL[ ]	/* CallFunction */
IF[ ]	/* If */
POP[ ]	/* PopTopStack */
MDRP[11000]	/* MoveDirectRelPt */
ELSE[ ]	/* Else */
MIRP[10100]	/* MoveIndirectRelPt */
EIF[ ]	/* EndIf */
PUSHB[ ]	/* 1 value pushed */
16 
SRP0[ ]	/* SetRefPoint0 */
PUSHB[ ]	/* 1 value pushed */
12 
MDRP[10000]	/* MoveDirectRelPt */
PUSHB[ ]	/* 3 values pushed */
21 23 16 
SRP1[ ]	/* SetRefPoint1 */
SRP2[ ]	/* SetRefPoint2 */
IP[ ]	/* InterpolatePts */
IUP[0]	/* InterpolateUntPts */
IUP[1]	/* InterpolateUntPts */";
};
width = 1150;
}
);
note = uni0032;
unicode = 0032;
},
{
glyphname = three;
lastChange = "2020-11-29 18:16:05 +0000";
layers = (
{
layerId = "A9B054E9-1A63-4AEF-9EE1-561B1DFE8422";
paths = (
{
closed = 1;
nodes = (
"834.333 -20 OFFCURVE",
"1007 138 OFFCURVE",
"1007 386 CURVE SMOOTH",
"1007 578 OFFCURVE",
"893.667 701 OFFCURVE",
"703 745 CURVE",
"869.667 795.667 OFFCURVE",
"975 926.333 OFFCURVE",
"975 1081 CURVE SMOOTH",
"975 1323.667 OFFCURVE",
"816 1476 OFFCURVE",
"564 1476 CURVE SMOOTH",
"186.364 1472.953 OFFCURVE",
"134 1123 OFFCURVE",
"134 1074 CURVE",
"188 1074 LINE",
"188 1282 OFFCURVE",
"345.333 1422 OFFCURVE",
"564 1422 CURVE SMOOTH",
"788 1422 OFFCURVE",
"921 1291.667 OFFCURVE",
"921 1085 CURVE SMOOTH",
"921 903.667 OFFCURVE",
"767 770 OFFCURVE",
"539 770 CURVE SMOOTH",
"417 770 LINE",
"417 714 LINE",
"531 714 LINE SMOOTH",
"807 714 OFFCURVE",
"953 596.667 OFFCURVE",
"953 382 CURVE SMOOTH",
"953 164.667 OFFCURVE",
"811.667 34 OFFCURVE",
"573 34 CURVE SMOOTH",
"333 34 OFFCURVE",
"157 191.667 OFFCURVE",
"157 405 CURVE",
"103 405 LINE",
"103 138 OFFCURVE",
"322 -20 OFFCURVE",
"573 -20 CURVE SMOOTH"
);
}
);
userData = {
assembly = "SVTCA[0]	/* SetFreedomAndProjectionVectorToAxis */
PUSHB[ ]	/* 1 value pushed */
0 
RCVT[ ]	/* ReadCVT */
IF[ ]	/* If */
PUSHB[ ]	/* 1 value pushed */
13 
MDAP[1]	/* MoveDirectAbsPt */
ELSE[ ]	/* Else */
PUSHB[ ]	/* 2 values pushed */
13 30 
MIAP[0]	/* MoveIndirectAbsPt */
EIF[ ]	/* EndIf */
PUSHB[ ]	/* 1 value pushed */
0 
RCVT[ ]	/* ReadCVT */
IF[ ]	/* If */
PUSHB[ ]	/* 1 value pushed */
25 
MDAP[1]	/* MoveDirectAbsPt */
ELSE[ ]	/* Else */
PUSHB[ ]	/* 2 values pushed */
25 18 
MIAP[0]	/* MoveIndirectAbsPt */
EIF[ ]	/* EndIf */
PUSHB[ ]	/* 3 values pushed */
0 13 25 
SRP1[ ]	/* SetRefPoint1 */
SRP2[ ]	/* SetRefPoint2 */
IP[ ]	/* InterpolatePts */
PUSHB[ ]	/* 1 value pushed */
0 
MDAP[1]	/* MoveDirectAbsPt */
PUSHB[ ]	/* 3 values pushed */
207 0 1 
DELTAP1[ ]	/* DeltaExceptionP1 */
PUSHB[ ]	/* 3 values pushed */
159 0 1 
DELTAP2[ ]	/* DeltaExceptionP2 */
PUSHB[ ]	/* 3 values pushed */
47 0 1 
DELTAP1[ ]	/* DeltaExceptionP1 */
PUSHB[ ]	/* 3 values pushed */
95 0 1 
DELTAP3[ ]	/* DeltaExceptionP3 */
PUSHB[ ]	/* 1 value pushed */
13 
SRP0[ ]	/* SetRefPoint0 */
PUSHB[ ]	/* 2 values pushed */
6 1 
PUSHB[ ]	/* 1 value pushed */
10 
CALL[ ]	/* CallFunction */
IF[ ]	/* If */
POP[ ]	/* PopTopStack */
MDRP[11000]	/* MoveDirectRelPt */
ELSE[ ]	/* Else */
MIRP[10100]	/* MoveIndirectRelPt */
EIF[ ]	/* EndIf */
PUSHB[ ]	/* 1 value pushed */
13 
SRP0[ ]	/* SetRefPoint0 */
PUSHB[ ]	/* 1 value pushed */
9 
MDRP[10000]	/* MoveDirectRelPt */
PUSHB[ ]	/* 1 value pushed */
0 
SRP0[ ]	/* SetRefPoint0 */
PUSHB[ ]	/* 2 values pushed */
38 1 
PUSHB[ ]	/* 1 value pushed */
10 
CALL[ ]	/* CallFunction */
IF[ ]	/* If */
POP[ ]	/* PopTopStack */
MDRP[11000]	/* MoveDirectRelPt */
ELSE[ ]	/* Else */
MIRP[10100]	/* MoveIndirectRelPt */
EIF[ ]	/* EndIf */
PUSHB[ ]	/* 3 values pushed */
19 38 0 
SRP1[ ]	/* SetRefPoint1 */
SRP2[ ]	/* SetRefPoint2 */
IP[ ]	/* InterpolatePts */
PUSHB[ ]	/* 1 value pushed */
25 
SRP0[ ]	/* SetRefPoint0 */
PUSHB[ ]	/* 1 value pushed */
28 
MDRP[10000]	/* MoveDirectRelPt */
PUSHB[ ]	/* 1 value pushed */
25 
SRP0[ ]	/* SetRefPoint0 */
PUSHB[ ]	/* 2 values pushed */
31 1 
PUSHB[ ]	/* 1 value pushed */
10 
CALL[ ]	/* CallFunction */
IF[ ]	/* If */
POP[ ]	/* PopTopStack */
MDRP[11000]	/* MoveDirectRelPt */
ELSE[ ]	/* Else */
MIRP[10100]	/* MoveIndirectRelPt */
EIF[ ]	/* EndIf */
IUP[0]	/* InterpolateUntPts */
IUP[1]	/* InterpolateUntPts */";
};
width = 1150;
},
{
layerId = m002;
paths = (
{
closed = 1;
nodes = (
"829.333 -20 OFFCURVE",
"1017 144.667 OFFCURVE",
"1017 406 CURVE SMOOTH",
"1017 575.333 OFFCURVE",
"926 696.333 OFFCURVE",
"766 747 CURVE",
"907.333 805.667 OFFCURVE",
"995 937.333 OFFCURVE",
"995 1064 CURVE SMOOTH",
"995 1322.667 OFFCURVE",
"829.667 1476 OFFCURVE",
"555 1476 CURVE SMOOTH",
"295 1476 OFFCURVE",
"107 1304.667 OFFCURVE",
"107 1074 CURVE",
"292 1074 LINE",
"292 1224.667 OFFCURVE",
"395 1324 OFFCURVE",
"555 1324 CURVE SMOOTH",
"725 1324 OFFCURVE",
"810 1238.667 OFFCURVE",
"810 1068 CURVE SMOOTH",
"810 916 OFFCURVE",
"703.667 820.667 OFFCURVE",
"529 818 CURVE SMOOTH",
"390 818 LINE",
"390 667 LINE",
"529 667 LINE SMOOTH",
"725 664.333 OFFCURVE",
"832 571.333 OFFCURVE",
"832 402 CURVE SMOOTH",
"832 227.333 OFFCURVE",
"734.667 131 OFFCURVE",
"556 131 CURVE SMOOTH",
"388 131 OFFCURVE",
"280 230.667 OFFCURVE",
"280 384 CURVE",
"94 384 LINE",
"94 141.333 OFFCURVE",
"282.667 -20 OFFCURVE",
"556 -20 CURVE SMOOTH"
);
}
);
userData = {
assembly = "SVTCA[0]	/* SetFreedomAndProjectionVectorToAxis */
PUSHB[ ]	/* 1 value pushed */
0 
RCVT[ ]	/* ReadCVT */
IF[ ]	/* If */
PUSHB[ ]	/* 1 value pushed */
13 
MDAP[1]	/* MoveDirectAbsPt */
ELSE[ ]	/* Else */
PUSHB[ ]	/* 2 values pushed */
13 30 
MIAP[0]	/* MoveIndirectAbsPt */
EIF[ ]	/* EndIf */
PUSHB[ ]	/* 1 value pushed */
0 
RCVT[ ]	/* ReadCVT */
IF[ ]	/* If */
PUSHB[ ]	/* 1 value pushed */
25 
MDAP[1]	/* MoveDirectAbsPt */
ELSE[ ]	/* Else */
PUSHB[ ]	/* 2 values pushed */
25 18 
MIAP[0]	/* MoveIndirectAbsPt */
EIF[ ]	/* EndIf */
PUSHB[ ]	/* 3 values pushed */
0 13 25 
SRP1[ ]	/* SetRefPoint1 */
SRP2[ ]	/* SetRefPoint2 */
IP[ ]	/* InterpolatePts */
PUSHB[ ]	/* 1 value pushed */
0 
MDAP[1]	/* MoveDirectAbsPt */
PUSHB[ ]	/* 3 values pushed */
207 0 1 
DELTAP1[ ]	/* DeltaExceptionP1 */
PUSHB[ ]	/* 3 values pushed */
159 0 1 
DELTAP2[ ]	/* DeltaExceptionP2 */
PUSHB[ ]	/* 3 values pushed */
47 0 1 
DELTAP1[ ]	/* DeltaExceptionP1 */
PUSHB[ ]	/* 3 values pushed */
95 0 1 
DELTAP3[ ]	/* DeltaExceptionP3 */
PUSHB[ ]	/* 1 value pushed */
13 
SRP0[ ]	/* SetRefPoint0 */
PUSHB[ ]	/* 2 values pushed */
6 1 
PUSHB[ ]	/* 1 value pushed */
10 
CALL[ ]	/* CallFunction */
IF[ ]	/* If */
POP[ ]	/* PopTopStack */
MDRP[11000]	/* MoveDirectRelPt */
ELSE[ ]	/* Else */
MIRP[10100]	/* MoveIndirectRelPt */
EIF[ ]	/* EndIf */
PUSHB[ ]	/* 1 value pushed */
13 
SRP0[ ]	/* SetRefPoint0 */
PUSHB[ ]	/* 1 value pushed */
9 
MDRP[10000]	/* MoveDirectRelPt */
PUSHB[ ]	/* 1 value pushed */
0 
SRP0[ ]	/* SetRefPoint0 */
PUSHB[ ]	/* 2 values pushed */
38 1 
PUSHB[ ]	/* 1 value pushed */
10 
CALL[ ]	/* CallFunction */
IF[ ]	/* If */
POP[ ]	/* PopTopStack */
MDRP[11000]	/* MoveDirectRelPt */
ELSE[ ]	/* Else */
MIRP[10100]	/* MoveIndirectRelPt */
EIF[ ]	/* EndIf */
PUSHB[ ]	/* 3 values pushed */
19 38 0 
SRP1[ ]	/* SetRefPoint1 */
SRP2[ ]	/* SetRefPoint2 */
IP[ ]	/* InterpolatePts */
PUSHB[ ]	/* 1 value pushed */
25 
SRP0[ ]	/* SetRefPoint0 */
PUSHB[ ]	/* 1 value pushed */
28 
MDRP[10000]	/* MoveDirectRelPt */
PUSHB[ ]	/* 1 value pushed */
25 
SRP0[ ]	/* SetRefPoint0 */
PUSHB[ ]	/* 2 values pushed */
31 1 
PUSHB[ ]	/* 1 value pushed */
10 
CALL[ ]	/* CallFunction */
IF[ ]	/* If */
POP[ ]	/* PopTopStack */
MDRP[11000]	/* MoveDirectRelPt */
ELSE[ ]	/* Else */
MIRP[10100]	/* MoveIndirectRelPt */
EIF[ ]	/* EndIf */
IUP[0]	/* InterpolateUntPts */
IUP[1]	/* InterpolateUntPts */";
};
width = 1150;
}
);
note = uni0033;
unicode = 0033;
},
{
glyphname = four;
lastChange = "2020-11-29 18:16:05 +0000";
layers = (
{
layerId = "A9B054E9-1A63-4AEF-9EE1-561B1DFE8422";
paths = (
{
closed = 1;
nodes = (
"842 0 LINE",
"842 397 LINE",
"1094 397 LINE",
"1094 451 LINE",
"842 451 LINE",
"842 1456 LINE",
"777 1456 LINE",
"82 427 LINE",
"82 397 LINE",
"788 397 LINE",
"788 0 LINE"
);
},
{
closed = 1;
nodes = (
"704 1253 LINE",
"788 1391 LINE",
"788 451 LINE",
"166 451 LINE"
);
}
);
userData = {
assembly = "SVTCA[0]	/* SetFreedomAndProjectionVectorToAxis */
PUSHB[ ]	/* 1 value pushed */
0 
RCVT[ ]	/* ReadCVT */
IF[ ]	/* If */
PUSHB[ ]	/* 1 value pushed */
9 
MDAP[1]	/* MoveDirectAbsPt */
ELSE[ ]	/* Else */
PUSHB[ ]	/* 2 values pushed */
9 30 
MIAP[0]	/* MoveIndirectAbsPt */
EIF[ ]	/* EndIf */
PUSHB[ ]	/* 1 value pushed */
0 
RCVT[ ]	/* ReadCVT */
IF[ ]	/* If */
PUSHB[ ]	/* 1 value pushed */
4 
MDAP[1]	/* MoveDirectAbsPt */
ELSE[ ]	/* Else */
PUSHB[ ]	/* 2 values pushed */
4 18 
MIAP[0]	/* MoveIndirectAbsPt */
EIF[ ]	/* EndIf */
PUSHB[ ]	/* 3 values pushed */
1 9 4 
SRP1[ ]	/* SetRefPoint1 */
SRP2[ ]	/* SetRefPoint2 */
IP[ ]	/* InterpolatePts */
PUSHB[ ]	/* 1 value pushed */
1 
MDAP[1]	/* MoveDirectAbsPt */
PUSHB[ ]	/* 2 values pushed */
2 1 
PUSHB[ ]	/* 1 value pushed */
10 
CALL[ ]	/* CallFunction */
IF[ ]	/* If */
POP[ ]	/* PopTopStack */
MDRP[11000]	/* MoveDirectRelPt */
ELSE[ ]	/* Else */
MIRP[10100]	/* MoveIndirectRelPt */
EIF[ ]	/* EndIf */
PUSHB[ ]	/* 1 value pushed */
6 
MDRP[10000]	/* MoveDirectRelPt */
PUSHB[ ]	/* 1 value pushed */
1 
SRP0[ ]	/* SetRefPoint0 */
PUSHB[ ]	/* 1 value pushed */
11 
MDRP[10000]	/* MoveDirectRelPt */
PUSHB[ ]	/* 3 values pushed */
8 6 11 
SRP1[ ]	/* SetRefPoint1 */
SRP2[ ]	/* SetRefPoint2 */
IP[ ]	/* InterpolatePts */
PUSHB[ ]	/* 3 values pushed */
13 9 4 
SRP1[ ]	/* SetRefPoint1 */
SRP2[ ]	/* SetRefPoint2 */
IP[ ]	/* InterpolatePts */
IUP[0]	/* InterpolateUntPts */
IUP[1]	/* InterpolateUntPts */";
};
width = 1150;
},
{
layerId = m002;
paths = (
{
closed = 1;
nodes = (
"902 0 LINE",
"902 338 LINE",
"1104 338 LINE",
"1104 489 LINE",
"902 489 LINE",
"902 1456 LINE",
"705 1456 LINE",
"53 447 LINE",
"53 338 LINE",
"716 338 LINE",
"716 0 LINE"
);
},
{
closed = 1;
nodes = (
"694 1163 LINE",
"716 1203 LINE",
"716 489 LINE",
"263 489 LINE"
);
}
);
userData = {
assembly = "SVTCA[0]	/* SetFreedomAndProjectionVectorToAxis */
PUSHB[ ]	/* 1 value pushed */
0 
RCVT[ ]	/* ReadCVT */
IF[ ]	/* If */
PUSHB[ ]	/* 1 value pushed */
9 
MDAP[1]	/* MoveDirectAbsPt */
ELSE[ ]	/* Else */
PUSHB[ ]	/* 2 values pushed */
9 30 
MIAP[0]	/* MoveIndirectAbsPt */
EIF[ ]	/* EndIf */
PUSHB[ ]	/* 1 value pushed */
0 
RCVT[ ]	/* ReadCVT */
IF[ ]	/* If */
PUSHB[ ]	/* 1 value pushed */
4 
MDAP[1]	/* MoveDirectAbsPt */
ELSE[ ]	/* Else */
PUSHB[ ]	/* 2 values pushed */
4 18 
MIAP[0]	/* MoveIndirectAbsPt */
EIF[ ]	/* EndIf */
PUSHB[ ]	/* 3 values pushed */
1 9 4 
SRP1[ ]	/* SetRefPoint1 */
SRP2[ ]	/* SetRefPoint2 */
IP[ ]	/* InterpolatePts */
PUSHB[ ]	/* 1 value pushed */
1 
MDAP[1]	/* MoveDirectAbsPt */
PUSHB[ ]	/* 2 values pushed */
2 1 
PUSHB[ ]	/* 1 value pushed */
10 
CALL[ ]	/* CallFunction */
IF[ ]	/* If */
POP[ ]	/* PopTopStack */
MDRP[11000]	/* MoveDirectRelPt */
ELSE[ ]	/* Else */
MIRP[10100]	/* MoveIndirectRelPt */
EIF[ ]	/* EndIf */
PUSHB[ ]	/* 1 value pushed */
6 
MDRP[10000]	/* MoveDirectRelPt */
PUSHB[ ]	/* 1 value pushed */
1 
SRP0[ ]	/* SetRefPoint0 */
PUSHB[ ]	/* 1 value pushed */
11 
MDRP[10000]	/* MoveDirectRelPt */
PUSHB[ ]	/* 3 values pushed */
8 6 11 
SRP1[ ]	/* SetRefPoint1 */
SRP2[ ]	/* SetRefPoint2 */
IP[ ]	/* InterpolatePts */
PUSHB[ ]	/* 3 values pushed */
13 9 4 
SRP1[ ]	/* SetRefPoint1 */
SRP2[ ]	/* SetRefPoint2 */
IP[ ]	/* InterpolatePts */
IUP[0]	/* InterpolateUntPts */
IUP[1]	/* InterpolateUntPts */";
};
width = 1150;
}
);
note = uni0034;
unicode = 0034;
},
{
glyphname = five;
lastChange = "2020-11-29 18:16:05 +0000";
layers = (
{
layerId = "A9B054E9-1A63-4AEF-9EE1-561B1DFE8422";
paths = (
{
closed = 1;
nodes = (
"878 -20 OFFCURVE",
"1024 148 OFFCURVE",
"1024 464 CURVE SMOOTH",
"1024 736 OFFCURVE",
"855.333 916 OFFCURVE",
"594 916 CURVE SMOOTH",
"484.667 916 OFFCURVE",
"358.333 876.333 OFFCURVE",
"289 819 CURVE",
"348 1403 LINE",
"1009 1403 LINE",
"1009 1456 LINE",
"299 1456 LINE",
"231 762 LINE",
"272 746 LINE",
"354.667 826 OFFCURVE",
"455 862 OFFCURVE",
"595 862 CURVE SMOOTH",
"823 862 OFFCURVE",
"969 704.667 OFFCURVE",
"969 462 CURVE SMOOTH",
"969 180.667 OFFCURVE",
"854 34 OFFCURVE",
"614 34 CURVE SMOOTH",
"388.667 34 OFFCURVE",
"258.333 155 OFFCURVE",
"237 383 CURVE",
"182 383 LINE",
"202 131 OFFCURVE",
"364.667 -20 OFFCURVE",
"614 -20 CURVE SMOOTH"
);
}
);
userData = {
assembly = "SVTCA[0]	/* SetFreedomAndProjectionVectorToAxis */
PUSHB[ ]	/* 1 value pushed */
0 
RCVT[ ]	/* ReadCVT */
IF[ ]	/* If */
PUSHB[ ]	/* 1 value pushed */
1 
MDAP[1]	/* MoveDirectAbsPt */
ELSE[ ]	/* Else */
PUSHB[ ]	/* 2 values pushed */
1 30 
MIAP[0]	/* MoveIndirectAbsPt */
EIF[ ]	/* EndIf */
PUSHB[ ]	/* 1 value pushed */
0 
RCVT[ ]	/* ReadCVT */
IF[ ]	/* If */
PUSHB[ ]	/* 1 value pushed */
13 
MDAP[1]	/* MoveDirectAbsPt */
ELSE[ ]	/* Else */
PUSHB[ ]	/* 2 values pushed */
13 18 
MIAP[0]	/* MoveIndirectAbsPt */
EIF[ ]	/* EndIf */
PUSHB[ ]	/* 1 value pushed */
1 
SRP0[ ]	/* SetRefPoint0 */
PUSHB[ ]	/* 2 values pushed */
4 1 
PUSHB[ ]	/* 1 value pushed */
10 
CALL[ ]	/* CallFunction */
IF[ ]	/* If */
POP[ ]	/* PopTopStack */
MDRP[11000]	/* MoveDirectRelPt */
ELSE[ ]	/* Else */
MIRP[10100]	/* MoveIndirectRelPt */
EIF[ ]	/* EndIf */
PUSHB[ ]	/* 3 values pushed */
7 13 1 
SRP1[ ]	/* SetRefPoint1 */
SRP2[ ]	/* SetRefPoint2 */
IP[ ]	/* InterpolatePts */
PUSHB[ ]	/* 1 value pushed */
7 
MDAP[1]	/* MoveDirectAbsPt */
PUSHB[ ]	/* 2 values pushed */
26 1 
PUSHB[ ]	/* 1 value pushed */
10 
CALL[ ]	/* CallFunction */
IF[ ]	/* If */
POP[ ]	/* PopTopStack */
MDRP[11000]	/* MoveDirectRelPt */
ELSE[ ]	/* Else */
MIRP[10100]	/* MoveIndirectRelPt */
EIF[ ]	/* EndIf */
PUSHB[ ]	/* 3 values pushed */
5 7 26 
SRP1[ ]	/* SetRefPoint1 */
SRP2[ ]	/* SetRefPoint2 */
IP[ ]	/* InterpolatePts */
PUSHB[ ]	/* 1 value pushed */
13 
SRP0[ ]	/* SetRefPoint0 */
PUSHB[ ]	/* 1 value pushed */
17 
MDRP[10000]	/* MoveDirectRelPt */
PUSHB[ ]	/* 1 value pushed */
13 
SRP0[ ]	/* SetRefPoint0 */
PUSHB[ ]	/* 2 values pushed */
20 1 
PUSHB[ ]	/* 1 value pushed */
10 
CALL[ ]	/* CallFunction */
IF[ ]	/* If */
POP[ ]	/* PopTopStack */
MDRP[11000]	/* MoveDirectRelPt */
ELSE[ ]	/* Else */
MIRP[10100]	/* MoveIndirectRelPt */
EIF[ ]	/* EndIf */
PUSHB[ ]	/* 1 value pushed */
7 
SRP0[ ]	/* SetRefPoint0 */
PUSHB[ ]	/* 1 value pushed */
29 
MDRP[10000]	/* MoveDirectRelPt */
IUP[0]	/* InterpolateUntPts */
IUP[1]	/* InterpolateUntPts */";
};
width = 1150;
},
{
layerId = m002;
paths = (
{
closed = 1;
nodes = (
"898.667 -20 OFFCURVE",
"1069 164 OFFCURVE",
"1069 464 CURVE SMOOTH",
"1069 762.667 OFFCURVE",
"901.333 951 OFFCURVE",
"636 951 CURVE SMOOTH",
"545.333 951 OFFCURVE",
"464.333 930 OFFCURVE",
"393 888 CURVE",
"437 1285 LINE",
"1026 1285 LINE",
"1026 1456 LINE",
"280 1456 LINE",
"206 730 LINE",
"354 692 LINE",
"449 767.333 OFFCURVE",
"512.333 785 OFFCURVE",
"593 785 CURVE SMOOTH",
"769 785 OFFCURVE",
"884 656.667 OFFCURVE",
"884 462 CURVE SMOOTH",
"884 255.333 OFFCURVE",
"780 131 OFFCURVE",
"608 131 CURVE SMOOTH",
"450.667 131 OFFCURVE",
"351.667 216.333 OFFCURVE",
"329 383 CURVE",
"154 383 LINE",
"176.667 131 OFFCURVE",
"350.667 -20 OFFCURVE",
"608 -20 CURVE SMOOTH"
);
}
);
userData = {
assembly = "SVTCA[0]	/* SetFreedomAndProjectionVectorToAxis */
PUSHB[ ]	/* 1 value pushed */
0 
RCVT[ ]	/* ReadCVT */
IF[ ]	/* If */
PUSHB[ ]	/* 1 value pushed */
1 
MDAP[1]	/* MoveDirectAbsPt */
ELSE[ ]	/* Else */
PUSHB[ ]	/* 2 values pushed */
1 30 
MIAP[0]	/* MoveIndirectAbsPt */
EIF[ ]	/* EndIf */
PUSHB[ ]	/* 1 value pushed */
0 
RCVT[ ]	/* ReadCVT */
IF[ ]	/* If */
PUSHB[ ]	/* 1 value pushed */
13 
MDAP[1]	/* MoveDirectAbsPt */
ELSE[ ]	/* Else */
PUSHB[ ]	/* 2 values pushed */
13 18 
MIAP[0]	/* MoveIndirectAbsPt */
EIF[ ]	/* EndIf */
PUSHB[ ]	/* 1 value pushed */
1 
SRP0[ ]	/* SetRefPoint0 */
PUSHB[ ]	/* 2 values pushed */
4 1 
PUSHB[ ]	/* 1 value pushed */
10 
CALL[ ]	/* CallFunction */
IF[ ]	/* If */
POP[ ]	/* PopTopStack */
MDRP[11000]	/* MoveDirectRelPt */
ELSE[ ]	/* Else */
MIRP[10100]	/* MoveIndirectRelPt */
EIF[ ]	/* EndIf */
PUSHB[ ]	/* 3 values pushed */
7 13 1 
SRP1[ ]	/* SetRefPoint1 */
SRP2[ ]	/* SetRefPoint2 */
IP[ ]	/* InterpolatePts */
PUSHB[ ]	/* 1 value pushed */
7 
MDAP[1]	/* MoveDirectAbsPt */
PUSHB[ ]	/* 2 values pushed */
26 1 
PUSHB[ ]	/* 1 value pushed */
10 
CALL[ ]	/* CallFunction */
IF[ ]	/* If */
POP[ ]	/* PopTopStack */
MDRP[11000]	/* MoveDirectRelPt */
ELSE[ ]	/* Else */
MIRP[10100]	/* MoveIndirectRelPt */
EIF[ ]	/* EndIf */
PUSHB[ ]	/* 3 values pushed */
5 7 26 
SRP1[ ]	/* SetRefPoint1 */
SRP2[ ]	/* SetRefPoint2 */
IP[ ]	/* InterpolatePts */
PUSHB[ ]	/* 1 value pushed */
13 
SRP0[ ]	/* SetRefPoint0 */
PUSHB[ ]	/* 1 value pushed */
17 
MDRP[10000]	/* MoveDirectRelPt */
PUSHB[ ]	/* 1 value pushed */
13 
SRP0[ ]	/* SetRefPoint0 */
PUSHB[ ]	/* 2 values pushed */
20 1 
PUSHB[ ]	/* 1 value pushed */
10 
CALL[ ]	/* CallFunction */
IF[ ]	/* If */
POP[ ]	/* PopTopStack */
MDRP[11000]	/* MoveDirectRelPt */
ELSE[ ]	/* Else */
MIRP[10100]	/* MoveIndirectRelPt */
EIF[ ]	/* EndIf */
PUSHB[ ]	/* 1 value pushed */
7 
SRP0[ ]	/* SetRefPoint0 */
PUSHB[ ]	/* 1 value pushed */
29 
MDRP[10000]	/* MoveDirectRelPt */
IUP[0]	/* InterpolateUntPts */
IUP[1]	/* InterpolateUntPts */";
};
width = 1150;
}
);
note = uni0035;
unicode = 0035;
},
{
glyphname = six;
lastChange = "2020-11-29 18:18:33 +0000";
layers = (
{
layerId = "A9B054E9-1A63-4AEF-9EE1-561B1DFE8422";
paths = (
{
closed = 1;
nodes = (
"860 -20 OFFCURVE",
"1013 217 OFFCURVE",
"1013 480 CURVE SMOOTH",
"1013 766.667 OFFCURVE",
"848 957 OFFCURVE",
"592 957 CURVE SMOOTH",
"417.333 957 OFFCURVE",
"260.333 870.333 OFFCURVE",
"183 733 CURVE",
"200.333 1169 OFFCURVE",
"432 1422 OFFCURVE",
"840 1422 CURVE",
"840 1476 LINE",
"378.667 1476 OFFCURVE",
"128 1177.333 OFFCURVE",
"128 660 CURVE SMOOTH",
"128 481 LINE SMOOTH",
"128 47 OFFCURVE",
"464 -20 OFFCURVE",
"602 -20 CURVE SMOOTH"
);
},
{
closed = 1;
nodes = (
"182 621 LINE",
"222 782.333 OFFCURVE",
"398.333 903 OFFCURVE",
"585 903 CURVE SMOOTH",
"817 903 OFFCURVE",
"959 738.667 OFFCURVE",
"959 480 CURVE SMOOTH",
"959 255 OFFCURVE",
"809 33 OFFCURVE",
"602 33 CURVE SMOOTH",
"354 33 OFFCURVE",
"182 218.333 OFFCURVE",
"182 493 CURVE SMOOTH"
);
}
);
userData = {
assembly = "SVTCA[0]	/* SetFreedomAndProjectionVectorToAxis */
PUSHB[ ]	/* 1 value pushed */
0 
RCVT[ ]	/* ReadCVT */
IF[ ]	/* If */
PUSHB[ ]	/* 1 value pushed */
0 
MDAP[1]	/* MoveDirectAbsPt */
ELSE[ ]	/* Else */
PUSHB[ ]	/* 2 values pushed */
0 30 
MIAP[0]	/* MoveIndirectAbsPt */
EIF[ ]	/* EndIf */
PUSHB[ ]	/* 1 value pushed */
0 
RCVT[ ]	/* ReadCVT */
IF[ ]	/* If */
PUSHB[ ]	/* 1 value pushed */
13 
MDAP[1]	/* MoveDirectAbsPt */
ELSE[ ]	/* Else */
PUSHB[ ]	/* 2 values pushed */
13 18 
MIAP[0]	/* MoveIndirectAbsPt */
EIF[ ]	/* EndIf */
PUSHB[ ]	/* 1 value pushed */
0 
SRP0[ ]	/* SetRefPoint0 */
PUSHB[ ]	/* 2 values pushed */
1 1 
PUSHB[ ]	/* 1 value pushed */
10 
CALL[ ]	/* CallFunction */
IF[ ]	/* If */
POP[ ]	/* PopTopStack */
MDRP[11000]	/* MoveDirectRelPt */
ELSE[ ]	/* Else */
MIRP[10100]	/* MoveIndirectRelPt */
EIF[ ]	/* EndIf */
PUSHB[ ]	/* 3 values pushed */
7 13 0 
SRP1[ ]	/* SetRefPoint1 */
SRP2[ ]	/* SetRefPoint2 */
IP[ ]	/* InterpolatePts */
PUSHB[ ]	/* 1 value pushed */
7 
MDAP[1]	/* MoveDirectAbsPt */
PUSHB[ ]	/* 2 values pushed */
21 1 
PUSHB[ ]	/* 1 value pushed */
10 
CALL[ ]	/* CallFunction */
IF[ ]	/* If */
POP[ ]	/* PopTopStack */
MDRP[11000]	/* MoveDirectRelPt */
ELSE[ ]	/* Else */
MIRP[10100]	/* MoveIndirectRelPt */
EIF[ ]	/* EndIf */
PUSHB[ ]	/* 1 value pushed */
13 
SRP0[ ]	/* SetRefPoint0 */
PUSHB[ ]	/* 2 values pushed */
28 1 
PUSHB[ ]	/* 1 value pushed */
10 
CALL[ ]	/* CallFunction */
IF[ ]	/* If */
POP[ ]	/* PopTopStack */
MDRP[11000]	/* MoveDirectRelPt */
ELSE[ ]	/* Else */
MIRP[10100]	/* MoveIndirectRelPt */
EIF[ ]	/* EndIf */
IUP[0]	/* InterpolateUntPts */
IUP[1]	/* InterpolateUntPts */";
};
width = 1150;
},
{
layerId = m002;
paths = (
{
closed = 1;
nodes = (
"875.667 -20 OFFCURVE",
"1052 175 OFFCURVE",
"1052 475 CURVE SMOOTH",
"1052 757.667 OFFCURVE",
"888.333 955 OFFCURVE",
"635 955 CURVE SMOOTH",
"502.333 955 OFFCURVE",
"397.667 911 OFFCURVE",
"321 823 CURVE",
"347.667 1123 OFFCURVE",
"525 1294.667 OFFCURVE",
"847 1300 CURVE",
"847 1457 LINE",
"362 1450.333 OFFCURVE",
"132 1161 OFFCURVE",
"132 625 CURVE SMOOTH",
"132 554 LINE SMOOTH",
"132 216.667 OFFCURVE",
"322.333 -20 OFFCURVE",
"601 -20 CURVE SMOOTH"
);
},
{
closed = 1;
nodes = (
"318 601 LINE",
"359.333 715.667 OFFCURVE",
"477.333 801 OFFCURVE",
"604 801 CURVE SMOOTH",
"764 801 OFFCURVE",
"869 666 OFFCURVE",
"869 466 CURVE SMOOTH",
"869 267.333 OFFCURVE",
"767.667 133 OFFCURVE",
"601 133 CURVE SMOOTH",
"439.667 133 OFFCURVE",
"318 293 OFFCURVE",
"318 533 CURVE SMOOTH"
);
}
);
userData = {
assembly = "SVTCA[0]	/* SetFreedomAndProjectionVectorToAxis */
PUSHB[ ]	/* 1 value pushed */
0 
RCVT[ ]	/* ReadCVT */
IF[ ]	/* If */
PUSHB[ ]	/* 1 value pushed */
0 
MDAP[1]	/* MoveDirectAbsPt */
ELSE[ ]	/* Else */
PUSHB[ ]	/* 2 values pushed */
0 30 
MIAP[0]	/* MoveIndirectAbsPt */
EIF[ ]	/* EndIf */
PUSHB[ ]	/* 1 value pushed */
0 
RCVT[ ]	/* ReadCVT */
IF[ ]	/* If */
PUSHB[ ]	/* 1 value pushed */
13 
MDAP[1]	/* MoveDirectAbsPt */
ELSE[ ]	/* Else */
PUSHB[ ]	/* 2 values pushed */
13 18 
MIAP[0]	/* MoveIndirectAbsPt */
EIF[ ]	/* EndIf */
PUSHB[ ]	/* 1 value pushed */
0 
SRP0[ ]	/* SetRefPoint0 */
PUSHB[ ]	/* 2 values pushed */
1 1 
PUSHB[ ]	/* 1 value pushed */
10 
CALL[ ]	/* CallFunction */
IF[ ]	/* If */
POP[ ]	/* PopTopStack */
MDRP[11000]	/* MoveDirectRelPt */
ELSE[ ]	/* Else */
MIRP[10100]	/* MoveIndirectRelPt */
EIF[ ]	/* EndIf */
PUSHB[ ]	/* 3 values pushed */
7 13 0 
SRP1[ ]	/* SetRefPoint1 */
SRP2[ ]	/* SetRefPoint2 */
IP[ ]	/* InterpolatePts */
PUSHB[ ]	/* 1 value pushed */
7 
MDAP[1]	/* MoveDirectAbsPt */
PUSHB[ ]	/* 2 values pushed */
21 1 
PUSHB[ ]	/* 1 value pushed */
10 
CALL[ ]	/* CallFunction */
IF[ ]	/* If */
POP[ ]	/* PopTopStack */
MDRP[11000]	/* MoveDirectRelPt */
ELSE[ ]	/* Else */
MIRP[10100]	/* MoveIndirectRelPt */
EIF[ ]	/* EndIf */
PUSHB[ ]	/* 1 value pushed */
13 
SRP0[ ]	/* SetRefPoint0 */
PUSHB[ ]	/* 2 values pushed */
28 1 
PUSHB[ ]	/* 1 value pushed */
10 
CALL[ ]	/* CallFunction */
IF[ ]	/* If */
POP[ ]	/* PopTopStack */
MDRP[11000]	/* MoveDirectRelPt */
ELSE[ ]	/* Else */
MIRP[10100]	/* MoveIndirectRelPt */
EIF[ ]	/* EndIf */
IUP[0]	/* InterpolateUntPts */
IUP[1]	/* InterpolateUntPts */";
};
width = 1150;
}
);
note = uni0036;
unicode = 0036;
},
{
glyphname = seven;
lastChange = "2020-11-29 18:16:05 +0000";
layers = (
{
layerId = "A9B054E9-1A63-4AEF-9EE1-561B1DFE8422";
paths = (
{
closed = 1;
nodes = (
"366 0 LINE",
"1007 1422 LINE",
"1007 1456 LINE",
"77 1456 LINE",
"77 1402 LINE",
"945 1402 LINE",
"311 0 LINE"
);
}
);
userData = {
assembly = "SVTCA[0]	/* SetFreedomAndProjectionVectorToAxis */
PUSHB[ ]	/* 1 value pushed */
0 
RCVT[ ]	/* ReadCVT */
IF[ ]	/* If */
PUSHB[ ]	/* 1 value pushed */
5 
MDAP[1]	/* MoveDirectAbsPt */
ELSE[ ]	/* Else */
PUSHB[ ]	/* 2 values pushed */
5 30 
MIAP[0]	/* MoveIndirectAbsPt */
EIF[ ]	/* EndIf */
PUSHB[ ]	/* 1 value pushed */
0 
RCVT[ ]	/* ReadCVT */
IF[ ]	/* If */
PUSHB[ ]	/* 1 value pushed */
1 
MDAP[1]	/* MoveDirectAbsPt */
ELSE[ ]	/* Else */
PUSHB[ ]	/* 2 values pushed */
1 18 
MIAP[0]	/* MoveIndirectAbsPt */
EIF[ ]	/* EndIf */
PUSHB[ ]	/* 1 value pushed */
5 
SRP0[ ]	/* SetRefPoint0 */
PUSHB[ ]	/* 2 values pushed */
3 1 
PUSHB[ ]	/* 1 value pushed */
10 
CALL[ ]	/* CallFunction */
IF[ ]	/* If */
POP[ ]	/* PopTopStack */
MDRP[11000]	/* MoveDirectRelPt */
ELSE[ ]	/* Else */
MIRP[10100]	/* MoveIndirectRelPt */
EIF[ ]	/* EndIf */
PUSHB[ ]	/* 3 values pushed */
0 3 5 
SRP1[ ]	/* SetRefPoint1 */
SRP2[ ]	/* SetRefPoint2 */
IP[ ]	/* InterpolatePts */
IUP[0]	/* InterpolateUntPts */
IUP[1]	/* InterpolateUntPts */";
};
width = 1150;
},
{
layerId = m002;
paths = (
{
closed = 1;
nodes = (
"458 0 LINE",
"1061 1352 LINE",
"1061 1456 LINE",
"77 1456 LINE",
"77 1304 LINE",
"865 1304 LINE",
"264 0 LINE"
);
}
);
userData = {
assembly = "SVTCA[0]	/* SetFreedomAndProjectionVectorToAxis */
PUSHB[ ]	/* 1 value pushed */
0 
RCVT[ ]	/* ReadCVT */
IF[ ]	/* If */
PUSHB[ ]	/* 1 value pushed */
5 
MDAP[1]	/* MoveDirectAbsPt */
ELSE[ ]	/* Else */
PUSHB[ ]	/* 2 values pushed */
5 30 
MIAP[0]	/* MoveIndirectAbsPt */
EIF[ ]	/* EndIf */
PUSHB[ ]	/* 1 value pushed */
0 
RCVT[ ]	/* ReadCVT */
IF[ ]	/* If */
PUSHB[ ]	/* 1 value pushed */
1 
MDAP[1]	/* MoveDirectAbsPt */
ELSE[ ]	/* Else */
PUSHB[ ]	/* 2 values pushed */
1 18 
MIAP[0]	/* MoveIndirectAbsPt */
EIF[ ]	/* EndIf */
PUSHB[ ]	/* 1 value pushed */
5 
SRP0[ ]	/* SetRefPoint0 */
PUSHB[ ]	/* 2 values pushed */
3 1 
PUSHB[ ]	/* 1 value pushed */
10 
CALL[ ]	/* CallFunction */
IF[ ]	/* If */
POP[ ]	/* PopTopStack */
MDRP[11000]	/* MoveDirectRelPt */
ELSE[ ]	/* Else */
MIRP[10100]	/* MoveIndirectRelPt */
EIF[ ]	/* EndIf */
PUSHB[ ]	/* 3 values pushed */
0 3 5 
SRP1[ ]	/* SetRefPoint1 */
SRP2[ ]	/* SetRefPoint2 */
IP[ ]	/* InterpolatePts */
IUP[0]	/* InterpolateUntPts */
IUP[1]	/* InterpolateUntPts */";
};
width = 1150;
}
);
note = uni0037;
unicode = 0037;
},
{
glyphname = eight;
lastChange = "2020-11-29 18:16:05 +0000";
layers = (
{
layerId = "A9B054E9-1A63-4AEF-9EE1-561B1DFE8422";
paths = (
{
closed = 1;
nodes = (
"845 -20 OFFCURVE",
"1028 132.333 OFFCURVE",
"1028 379 CURVE SMOOTH",
"1028 549.667 OFFCURVE",
"905.667 694.333 OFFCURVE",
"715 745 CURVE",
"875 793 OFFCURVE",
"986 923.333 OFFCURVE",
"986 1086 CURVE SMOOTH",
"986 1320.667 OFFCURVE",
"814.333 1476 OFFCURVE",
"561 1476 CURVE SMOOTH",
"309 1476 OFFCURVE",
"141 1326 OFFCURVE",
"141 1086 CURVE SMOOTH",
"141 923.333 OFFCURVE",
"248 793 OFFCURVE",
"408 745 CURVE",
"217.333 694.333 OFFCURVE",
"100 551 OFFCURVE",
"100 379 CURVE SMOOTH",
"100 132.333 OFFCURVE",
"279.667 -20 OFFCURVE",
"565 -20 CURVE SMOOTH"
);
},
{
closed = 1;
nodes = (
"314.333 34 OFFCURVE",
"154 168.667 OFFCURVE",
"154 374 CURVE SMOOTH",
"154 575.333 OFFCURVE",
"321.667 718 OFFCURVE",
"563 718 CURVE SMOOTH",
"803 718 OFFCURVE",
"973 574 OFFCURVE",
"973 374 CURVE SMOOTH",
"973 170 OFFCURVE",
"810.333 34 OFFCURVE",
"565 34 CURVE SMOOTH"
);
},
{
closed = 1;
nodes = (
"344.333 772 OFFCURVE",
"195 901.667 OFFCURVE",
"195 1091 CURVE SMOOTH",
"195 1289.667 OFFCURVE",
"346.333 1422 OFFCURVE",
"561 1422 CURVE SMOOTH",
"770.333 1422 OFFCURVE",
"932 1280.333 OFFCURVE",
"932 1091 CURVE SMOOTH",
"932 904.333 OFFCURVE",
"779 772 OFFCURVE",
"563 772 CURVE SMOOTH"
);
}
);
userData = {
assembly = "SVTCA[0]	/* SetFreedomAndProjectionVectorToAxis */
PUSHB[ ]	/* 1 value pushed */
0 
RCVT[ ]	/* ReadCVT */
IF[ ]	/* If */
PUSHB[ ]	/* 1 value pushed */
21 
MDAP[1]	/* MoveDirectAbsPt */
ELSE[ ]	/* Else */
PUSHB[ ]	/* 2 values pushed */
21 30 
MIAP[0]	/* MoveIndirectAbsPt */
EIF[ ]	/* EndIf */
PUSHB[ ]	/* 1 value pushed */
0 
RCVT[ ]	/* ReadCVT */
IF[ ]	/* If */
PUSHB[ ]	/* 1 value pushed */
9 
MDAP[1]	/* MoveDirectAbsPt */
ELSE[ ]	/* Else */
PUSHB[ ]	/* 2 values pushed */
9 18 
MIAP[0]	/* MoveIndirectAbsPt */
EIF[ ]	/* EndIf */
PUSHB[ ]	/* 3 values pushed */
39 9 21 
SRP1[ ]	/* SetRefPoint1 */
SRP2[ ]	/* SetRefPoint2 */
IP[ ]	/* InterpolatePts */
PUSHB[ ]	/* 1 value pushed */
39 
MDAP[1]	/* MoveDirectAbsPt */
PUSHB[ ]	/* 3 values pushed */
207 39 1 
DELTAP1[ ]	/* DeltaExceptionP1 */
PUSHB[ ]	/* 2 values pushed */
26 1 
PUSHB[ ]	/* 1 value pushed */
10 
CALL[ ]	/* CallFunction */
IF[ ]	/* If */
POP[ ]	/* PopTopStack */
MDRP[11000]	/* MoveDirectRelPt */
ELSE[ ]	/* Else */
MIRP[10100]	/* MoveIndirectRelPt */
EIF[ ]	/* EndIf */
PUSHB[ ]	/* 3 values pushed */
3 26 39 
SRP1[ ]	/* SetRefPoint1 */
SRP2[ ]	/* SetRefPoint2 */
IP[ ]	/* InterpolatePts */
PUSHB[ ]	/* 3 values pushed */
15 39 26 
SRP1[ ]	/* SetRefPoint1 */
SRP2[ ]	/* SetRefPoint2 */
IP[ ]	/* InterpolatePts */
PUSHB[ ]	/* 1 value pushed */
9 
SRP0[ ]	/* SetRefPoint0 */
PUSHB[ ]	/* 2 values pushed */
31 1 
PUSHB[ ]	/* 1 value pushed */
10 
CALL[ ]	/* CallFunction */
IF[ ]	/* If */
POP[ ]	/* PopTopStack */
MDRP[11000]	/* MoveDirectRelPt */
ELSE[ ]	/* Else */
MIRP[10100]	/* MoveIndirectRelPt */
EIF[ ]	/* EndIf */
PUSHB[ ]	/* 1 value pushed */
21 
SRP0[ ]	/* SetRefPoint0 */
PUSHB[ ]	/* 2 values pushed */
34 1 
PUSHB[ ]	/* 1 value pushed */
10 
CALL[ ]	/* CallFunction */
IF[ ]	/* If */
POP[ ]	/* PopTopStack */
MDRP[11000]	/* MoveDirectRelPt */
ELSE[ ]	/* Else */
MIRP[10100]	/* MoveIndirectRelPt */
EIF[ ]	/* EndIf */
IUP[0]	/* InterpolateUntPts */
IUP[1]	/* InterpolateUntPts */";
};
width = 1150;
},
{
layerId = m002;
paths = (
{
closed = 1;
nodes = (
"852.333 -20 OFFCURVE",
"1038 141 OFFCURVE",
"1038 393 CURVE SMOOTH",
"1038 551.667 OFFCURVE",
"943 683.667 OFFCURVE",
"791 749 CURVE",
"921.667 813 OFFCURVE",
"1004 930.667 OFFCURVE",
"1004 1076 CURVE SMOOTH",
"1004 1321.333 OFFCURVE",
"831 1476 OFFCURVE",
"575 1476 CURVE SMOOTH",
"317.667 1476 OFFCURVE",
"146 1321.333 OFFCURVE",
"146 1076 CURVE SMOOTH",
"146 932 OFFCURVE",
"225.667 814 OFFCURVE",
"355 750 CURVE",
"203 684.667 OFFCURVE",
"112 550.333 OFFCURVE",
"112 393 CURVE SMOOTH",
"112 142.333 OFFCURVE",
"295 -20 OFFCURVE",
"575 -20 CURVE SMOOTH"
);
},
{
closed = 1;
nodes = (
"297 562.333 OFFCURVE",
"406.333 673 OFFCURVE",
"573 673 CURVE SMOOTH",
"739.667 673 OFFCURVE",
"853 559.667 OFFCURVE",
"853 397 CURVE SMOOTH",
"853 233 OFFCURVE",
"748.333 131 OFFCURVE",
"575 131 CURVE SMOOTH",
"400.333 131 OFFCURVE",
"297 231.667 OFFCURVE",
"297 397 CURVE SMOOTH"
);
},
{
closed = 1;
nodes = (
"331 1227.667 OFFCURVE",
"429.667 1324 OFFCURVE",
"575 1324 CURVE SMOOTH",
"716.333 1324 OFFCURVE",
"819 1221 OFFCURVE",
"819 1073 CURVE SMOOTH",
"819 925 OFFCURVE",
"723 825 OFFCURVE",
"575 825 CURVE SMOOTH",
"427 825 OFFCURVE",
"331 925 OFFCURVE",
"331 1073 CURVE SMOOTH"
);
}
);
userData = {
assembly = "SVTCA[0]	/* SetFreedomAndProjectionVectorToAxis */
PUSHB[ ]	/* 1 value pushed */
0 
RCVT[ ]	/* ReadCVT */
IF[ ]	/* If */
PUSHB[ ]	/* 1 value pushed */
21 
MDAP[1]	/* MoveDirectAbsPt */
ELSE[ ]	/* Else */
PUSHB[ ]	/* 2 values pushed */
21 30 
MIAP[0]	/* MoveIndirectAbsPt */
EIF[ ]	/* EndIf */
PUSHB[ ]	/* 1 value pushed */
0 
RCVT[ ]	/* ReadCVT */
IF[ ]	/* If */
PUSHB[ ]	/* 1 value pushed */
9 
MDAP[1]	/* MoveDirectAbsPt */
ELSE[ ]	/* Else */
PUSHB[ ]	/* 2 values pushed */
9 18 
MIAP[0]	/* MoveIndirectAbsPt */
EIF[ ]	/* EndIf */
PUSHB[ ]	/* 3 values pushed */
39 9 21 
SRP1[ ]	/* SetRefPoint1 */
SRP2[ ]	/* SetRefPoint2 */
IP[ ]	/* InterpolatePts */
PUSHB[ ]	/* 1 value pushed */
39 
MDAP[1]	/* MoveDirectAbsPt */
PUSHB[ ]	/* 3 values pushed */
207 39 1 
DELTAP1[ ]	/* DeltaExceptionP1 */
PUSHB[ ]	/* 2 values pushed */
26 1 
PUSHB[ ]	/* 1 value pushed */
10 
CALL[ ]	/* CallFunction */
IF[ ]	/* If */
POP[ ]	/* PopTopStack */
MDRP[11000]	/* MoveDirectRelPt */
ELSE[ ]	/* Else */
MIRP[10100]	/* MoveIndirectRelPt */
EIF[ ]	/* EndIf */
PUSHB[ ]	/* 3 values pushed */
3 26 39 
SRP1[ ]	/* SetRefPoint1 */
SRP2[ ]	/* SetRefPoint2 */
IP[ ]	/* InterpolatePts */
PUSHB[ ]	/* 3 values pushed */
15 39 26 
SRP1[ ]	/* SetRefPoint1 */
SRP2[ ]	/* SetRefPoint2 */
IP[ ]	/* InterpolatePts */
PUSHB[ ]	/* 1 value pushed */
9 
SRP0[ ]	/* SetRefPoint0 */
PUSHB[ ]	/* 2 values pushed */
31 1 
PUSHB[ ]	/* 1 value pushed */
10 
CALL[ ]	/* CallFunction */
IF[ ]	/* If */
POP[ ]	/* PopTopStack */
MDRP[11000]	/* MoveDirectRelPt */
ELSE[ ]	/* Else */
MIRP[10100]	/* MoveIndirectRelPt */
EIF[ ]	/* EndIf */
PUSHB[ ]	/* 1 value pushed */
21 
SRP0[ ]	/* SetRefPoint0 */
PUSHB[ ]	/* 2 values pushed */
34 1 
PUSHB[ ]	/* 1 value pushed */
10 
CALL[ ]	/* CallFunction */
IF[ ]	/* If */
POP[ ]	/* PopTopStack */
MDRP[11000]	/* MoveDirectRelPt */
ELSE[ ]	/* Else */
MIRP[10100]	/* MoveIndirectRelPt */
EIF[ ]	/* EndIf */
IUP[0]	/* InterpolateUntPts */
IUP[1]	/* InterpolateUntPts */";
};
width = 1150;
}
);
note = uni0038;
unicode = 0038;
},
{
glyphname = nine;
lastChange = "2020-11-29 18:18:35 +0000";
layers = (
{
layerId = "A9B054E9-1A63-4AEF-9EE1-561B1DFE8422";
paths = (
{
closed = 1;
nodes = (
"346 -20 LINE SMOOTH",
"771.333 -14.667 OFFCURVE",
"993 248 OFFCURVE",
"993 740 CURVE SMOOTH",
"993 907 LINE SMOOTH",
"991.667 1275 OFFCURVE",
"831 1476 OFFCURVE",
"531 1476 CURVE SMOOTH",
"371 1476 OFFCURVE",
"231.333 1379.833 OFFCURVE",
"158 1220.5 CURVE SMOOTH",
"121.333 1140.833 OFFCURVE",
"103 1053.333 OFFCURVE",
"103 958 CURVE SMOOTH",
"103 778 OFFCURVE",
"179 618.5 OFFCURVE",
"307 532.5 CURVE SMOOTH",
"371 489.5 OFFCURVE",
"443 468 OFFCURVE",
"523 468 CURVE SMOOTH",
"709.667 468 OFFCURVE",
"868.333 570.667 OFFCURVE",
"939 724 CURVE",
"939 274.667 OFFCURVE",
"732.333 38 OFFCURVE",
"343 34 CURVE SMOOTH",
"300 34 LINE",
"298 -20 LINE"
);
},
{
closed = 1;
nodes = (
"157 1192 OFFCURVE",
"303 1422 OFFCURVE",
"535 1422 CURVE SMOOTH",
"795 1422 OFFCURVE",
"939 1239.333 OFFCURVE",
"939 902 CURVE SMOOTH",
"939 840 LINE",
"885.667 648 OFFCURVE",
"720.333 522 OFFCURVE",
"523 522 CURVE SMOOTH",
"292 522 OFFCURVE",
"157 732 OFFCURVE",
"157 958 CURVE SMOOTH"
);
}
);
userData = {
assembly = "SVTCA[0]	/* SetFreedomAndProjectionVectorToAxis */
PUSHB[ ]	/* 1 value pushed */
0 
RCVT[ ]	/* ReadCVT */
IF[ ]	/* If */
PUSHB[ ]	/* 1 value pushed */
11 
MDAP[1]	/* MoveDirectAbsPt */
ELSE[ ]	/* Else */
PUSHB[ ]	/* 2 values pushed */
11 30 
MIAP[0]	/* MoveIndirectAbsPt */
EIF[ ]	/* EndIf */
PUSHB[ ]	/* 1 value pushed */
0 
RCVT[ ]	/* ReadCVT */
IF[ ]	/* If */
PUSHB[ ]	/* 1 value pushed */
19 
MDAP[1]	/* MoveDirectAbsPt */
ELSE[ ]	/* Else */
PUSHB[ ]	/* 2 values pushed */
19 18 
MIAP[0]	/* MoveIndirectAbsPt */
EIF[ ]	/* EndIf */
PUSHB[ ]	/* 3 values pushed */
3 19 11 
SRP1[ ]	/* SetRefPoint1 */
SRP2[ ]	/* SetRefPoint2 */
IP[ ]	/* InterpolatePts */
PUSHB[ ]	/* 1 value pushed */
3 
MDAP[1]	/* MoveDirectAbsPt */
PUSHB[ ]	/* 3 values pushed */
0 3 11 
SRP1[ ]	/* SetRefPoint1 */
SRP2[ ]	/* SetRefPoint2 */
IP[ ]	/* InterpolatePts */
PUSHB[ ]	/* 1 value pushed */
19 
SRP0[ ]	/* SetRefPoint0 */
PUSHB[ ]	/* 2 values pushed */
20 1 
PUSHB[ ]	/* 1 value pushed */
10 
CALL[ ]	/* CallFunction */
IF[ ]	/* If */
POP[ ]	/* PopTopStack */
MDRP[11000]	/* MoveDirectRelPt */
ELSE[ ]	/* Else */
MIRP[10100]	/* MoveIndirectRelPt */
EIF[ ]	/* EndIf */
PUSHB[ ]	/* 1 value pushed */
3 
SRP0[ ]	/* SetRefPoint0 */
PUSHB[ ]	/* 2 values pushed */
24 1 
PUSHB[ ]	/* 1 value pushed */
10 
CALL[ ]	/* CallFunction */
IF[ ]	/* If */
POP[ ]	/* PopTopStack */
MDRP[11000]	/* MoveDirectRelPt */
ELSE[ ]	/* Else */
MIRP[10100]	/* MoveIndirectRelPt */
EIF[ ]	/* EndIf */
PUSHB[ ]	/* 1 value pushed */
11 
SRP0[ ]	/* SetRefPoint0 */
PUSHB[ ]	/* 2 values pushed */
31 1 
PUSHB[ ]	/* 1 value pushed */
10 
CALL[ ]	/* CallFunction */
IF[ ]	/* If */
POP[ ]	/* PopTopStack */
MDRP[11000]	/* MoveDirectRelPt */
ELSE[ ]	/* Else */
MIRP[10100]	/* MoveIndirectRelPt */
EIF[ ]	/* EndIf */
IUP[0]	/* InterpolateUntPts */
IUP[1]	/* InterpolateUntPts */";
};
width = 1150;
},
{
layerId = m002;
paths = (
{
closed = 1;
nodes = (
"341 -1 LINE SMOOTH",
"793 5.667 OFFCURVE",
"1016 253.333 OFFCURVE",
"1016 820 CURVE SMOOTH",
"1016 874 LINE SMOOTH",
"1016 1246 OFFCURVE",
"839 1476 OFFCURVE",
"551 1476 CURVE SMOOTH",
"369.667 1476 OFFCURVE",
"229.5 1391 OFFCURVE",
"155.5 1235 CURVE SMOOTH",
"118.5 1157 OFFCURVE",
"100 1069.333 OFFCURVE",
"100 972 CURVE SMOOTH",
"100 790.667 OFFCURVE",
"170.833 631.667 OFFCURVE",
"295.5 549 CURVE SMOOTH",
"357.833 507.667 OFFCURVE",
"431 487 OFFCURVE",
"515 487 CURVE SMOOTH",
"643 487 OFFCURVE",
"752.667 548 OFFCURVE",
"830 640 CURVE",
"815.333 306.667 OFFCURVE",
"649.333 160.333 OFFCURVE",
"344 155 CURVE SMOOTH",
"305 155 LINE",
"305 -1 LINE"
);
},
{
closed = 1;
nodes = (
"282 1186 OFFCURVE",
"389.333 1322 OFFCURVE",
"552 1322 CURVE SMOOTH",
"713.333 1322 OFFCURVE",
"831 1154.667 OFFCURVE",
"831 912 CURVE SMOOTH",
"831 838 LINE",
"783 726 OFFCURVE",
"669 640 OFFCURVE",
"545 640 CURVE SMOOTH",
"385 640 OFFCURVE",
"282 783.333 OFFCURVE",
"282 982 CURVE SMOOTH"
);
}
);
userData = {
assembly = "SVTCA[0]	/* SetFreedomAndProjectionVectorToAxis */
PUSHB[ ]	/* 1 value pushed */
0 
RCVT[ ]	/* ReadCVT */
IF[ ]	/* If */
PUSHB[ ]	/* 1 value pushed */
11 
MDAP[1]	/* MoveDirectAbsPt */
ELSE[ ]	/* Else */
PUSHB[ ]	/* 2 values pushed */
11 30 
MIAP[0]	/* MoveIndirectAbsPt */
EIF[ ]	/* EndIf */
PUSHB[ ]	/* 1 value pushed */
0 
RCVT[ ]	/* ReadCVT */
IF[ ]	/* If */
PUSHB[ ]	/* 1 value pushed */
19 
MDAP[1]	/* MoveDirectAbsPt */
ELSE[ ]	/* Else */
PUSHB[ ]	/* 2 values pushed */
19 18 
MIAP[0]	/* MoveIndirectAbsPt */
EIF[ ]	/* EndIf */
PUSHB[ ]	/* 3 values pushed */
3 19 11 
SRP1[ ]	/* SetRefPoint1 */
SRP2[ ]	/* SetRefPoint2 */
IP[ ]	/* InterpolatePts */
PUSHB[ ]	/* 1 value pushed */
3 
MDAP[1]	/* MoveDirectAbsPt */
PUSHB[ ]	/* 3 values pushed */
0 3 11 
SRP1[ ]	/* SetRefPoint1 */
SRP2[ ]	/* SetRefPoint2 */
IP[ ]	/* InterpolatePts */
PUSHB[ ]	/* 1 value pushed */
19 
SRP0[ ]	/* SetRefPoint0 */
PUSHB[ ]	/* 2 values pushed */
20 1 
PUSHB[ ]	/* 1 value pushed */
10 
CALL[ ]	/* CallFunction */
IF[ ]	/* If */
POP[ ]	/* PopTopStack */
MDRP[11000]	/* MoveDirectRelPt */
ELSE[ ]	/* Else */
MIRP[10100]	/* MoveIndirectRelPt */
EIF[ ]	/* EndIf */
PUSHB[ ]	/* 1 value pushed */
3 
SRP0[ ]	/* SetRefPoint0 */
PUSHB[ ]	/* 2 values pushed */
24 1 
PUSHB[ ]	/* 1 value pushed */
10 
CALL[ ]	/* CallFunction */
IF[ ]	/* If */
POP[ ]	/* PopTopStack */
MDRP[11000]	/* MoveDirectRelPt */
ELSE[ ]	/* Else */
MIRP[10100]	/* MoveIndirectRelPt */
EIF[ ]	/* EndIf */
PUSHB[ ]	/* 1 value pushed */
11 
SRP0[ ]	/* SetRefPoint0 */
PUSHB[ ]	/* 2 values pushed */
31 1 
PUSHB[ ]	/* 1 value pushed */
10 
CALL[ ]	/* CallFunction */
IF[ ]	/* If */
POP[ ]	/* PopTopStack */
MDRP[11000]	/* MoveDirectRelPt */
ELSE[ ]	/* Else */
MIRP[10100]	/* MoveIndirectRelPt */
EIF[ ]	/* EndIf */
IUP[0]	/* InterpolateUntPts */
IUP[1]	/* InterpolateUntPts */";
};
width = 1150;
}
);
note = uni0039;
unicode = 0039;
},
{
glyphname = less;
lastChange = "2020-11-29 18:16:05 +0000";
layers = (
{
layerId = "A9B054E9-1A63-4AEF-9EE1-561B1DFE8422";
paths = (
{
closed = 1;
nodes = (
"919 321 LINE",
"155 666 LINE",
"919 1011 LINE",
"919 1069 LINE",
"82 691 LINE",
"82 641 LINE",
"919 262 LINE"
);
}
);
userData = {
assembly = "SVTCA[0]	/* SetFreedomAndProjectionVectorToAxis */
PUSHB[ ]	/* 1 value pushed */
0 
RCVT[ ]	/* ReadCVT */
IF[ ]	/* If */
PUSHB[ ]	/* 1 value pushed */
5 
MDAP[1]	/* MoveDirectAbsPt */
ELSE[ ]	/* Else */
PUSHB[ ]	/* 2 values pushed */
5 26 
MIAP[0]	/* MoveIndirectAbsPt */
EIF[ ]	/* EndIf */
PUSHB[ ]	/* 1 value pushed */
2 
MDRP[10000]	/* MoveDirectRelPt */
PUSHB[ ]	/* 1 value pushed */
2 
MDAP[1]	/* MoveDirectAbsPt */
IUP[0]	/* InterpolateUntPts */
IUP[1]	/* InterpolateUntPts */";
};
width = 1041;
},
{
layerId = m002;
paths = (
{
closed = 1;
nodes = (
"890 391 LINE",
"264 644 LINE",
"890 902 LINE",
"890 1098 LINE",
"72 720 LINE",
"72 574 LINE",
"890 195 LINE"
);
}
);
userData = {
assembly = "SVTCA[0]	/* SetFreedomAndProjectionVectorToAxis */
PUSHB[ ]	/* 1 value pushed */
0 
RCVT[ ]	/* ReadCVT */
IF[ ]	/* If */
PUSHB[ ]	/* 1 value pushed */
5 
MDAP[1]	/* MoveDirectAbsPt */
ELSE[ ]	/* Else */
PUSHB[ ]	/* 2 values pushed */
5 26 
MIAP[0]	/* MoveIndirectAbsPt */
EIF[ ]	/* EndIf */
PUSHB[ ]	/* 1 value pushed */
2 
MDRP[10000]	/* MoveDirectRelPt */
PUSHB[ ]	/* 1 value pushed */
2 
MDAP[1]	/* MoveDirectAbsPt */
IUP[0]	/* InterpolateUntPts */
IUP[1]	/* InterpolateUntPts */";
};
width = 1041;
}
);
note = uni003C;
unicode = 003C;
},
{
glyphname = equal;
lastChange = "2020-11-29 18:16:05 +0000";
layers = (
{
layerId = "A9B054E9-1A63-4AEF-9EE1-561B1DFE8422";
paths = (
{
closed = 1;
nodes = (
"981 843 LINE",
"981 897 LINE",
"147 897 LINE",
"147 843 LINE"
);
},
{
closed = 1;
nodes = (
"981 436 LINE",
"981 490 LINE",
"147 490 LINE",
"147 436 LINE"
);
}
);
userData = {
assembly = "SVTCA[0]	/* SetFreedomAndProjectionVectorToAxis */
PUSHB[ ]	/* 1 value pushed */
7 
MDAP[1]	/* MoveDirectAbsPt */
PUSHB[ ]	/* 1 value pushed */
3 
MDRP[10000]	/* MoveDirectRelPt */
PUSHB[ ]	/* 1 value pushed */
3 
MDAP[1]	/* MoveDirectAbsPt */
PUSHB[ ]	/* 2 values pushed */
0 1 
PUSHB[ ]	/* 1 value pushed */
10 
CALL[ ]	/* CallFunction */
IF[ ]	/* If */
POP[ ]	/* PopTopStack */
MDRP[11000]	/* MoveDirectRelPt */
ELSE[ ]	/* Else */
MIRP[10100]	/* MoveIndirectRelPt */
EIF[ ]	/* EndIf */
PUSHB[ ]	/* 1 value pushed */
7 
SRP0[ ]	/* SetRefPoint0 */
PUSHB[ ]	/* 2 values pushed */
4 1 
PUSHB[ ]	/* 1 value pushed */
10 
CALL[ ]	/* CallFunction */
IF[ ]	/* If */
POP[ ]	/* PopTopStack */
MDRP[11000]	/* MoveDirectRelPt */
ELSE[ ]	/* Else */
MIRP[10100]	/* MoveIndirectRelPt */
EIF[ ]	/* EndIf */
IUP[0]	/* InterpolateUntPts */
IUP[1]	/* InterpolateUntPts */";
};
width = 1124;
},
{
layerId = m002;
paths = (
{
closed = 1;
nodes = (
"986 814 LINE",
"986 975 LINE",
"152 975 LINE",
"152 814 LINE"
);
},
{
closed = 1;
nodes = (
"986 399 LINE",
"986 559 LINE",
"152 559 LINE",
"152 399 LINE"
);
}
);
userData = {
assembly = "SVTCA[0]	/* SetFreedomAndProjectionVectorToAxis */
PUSHB[ ]	/* 1 value pushed */
7 
MDAP[1]	/* MoveDirectAbsPt */
PUSHB[ ]	/* 1 value pushed */
3 
MDRP[10000]	/* MoveDirectRelPt */
PUSHB[ ]	/* 1 value pushed */
3 
MDAP[1]	/* MoveDirectAbsPt */
PUSHB[ ]	/* 2 values pushed */
0 1 
PUSHB[ ]	/* 1 value pushed */
10 
CALL[ ]	/* CallFunction */
IF[ ]	/* If */
POP[ ]	/* PopTopStack */
MDRP[11000]	/* MoveDirectRelPt */
ELSE[ ]	/* Else */
MIRP[10100]	/* MoveIndirectRelPt */
EIF[ ]	/* EndIf */
PUSHB[ ]	/* 1 value pushed */
7 
SRP0[ ]	/* SetRefPoint0 */
PUSHB[ ]	/* 2 values pushed */
4 1 
PUSHB[ ]	/* 1 value pushed */
10 
CALL[ ]	/* CallFunction */
IF[ ]	/* If */
POP[ ]	/* PopTopStack */
MDRP[11000]	/* MoveDirectRelPt */
ELSE[ ]	/* Else */
MIRP[10100]	/* MoveIndirectRelPt */
EIF[ ]	/* EndIf */
IUP[0]	/* InterpolateUntPts */
IUP[1]	/* InterpolateUntPts */";
};
width = 1124;
}
);
note = uni003D;
unicode = 003D;
},
{
glyphname = greater;
lastChange = "2020-11-29 18:16:05 +0000";
layers = (
{
layerId = "A9B054E9-1A63-4AEF-9EE1-561B1DFE8422";
paths = (
{
closed = 1;
nodes = (
"950 644 LINE",
"950 694 LINE",
"114 1072 LINE",
"114 1013 LINE",
"872 668 LINE",
"114 324 LINE",
"114 265 LINE"
);
}
);
userData = {
assembly = "SVTCA[0]	/* SetFreedomAndProjectionVectorToAxis */
PUSHB[ ]	/* 1 value pushed */
0 
RCVT[ ]	/* ReadCVT */
IF[ ]	/* If */
PUSHB[ ]	/* 1 value pushed */
2 
MDAP[1]	/* MoveDirectAbsPt */
ELSE[ ]	/* Else */
PUSHB[ ]	/* 2 values pushed */
2 26 
MIAP[0]	/* MoveIndirectAbsPt */
EIF[ ]	/* EndIf */
PUSHB[ ]	/* 1 value pushed */
5 
MDRP[10000]	/* MoveDirectRelPt */
PUSHB[ ]	/* 1 value pushed */
5 
MDAP[1]	/* MoveDirectAbsPt */
IUP[0]	/* InterpolateUntPts */
IUP[1]	/* InterpolateUntPts */";
};
width = 1070;
},
{
layerId = m002;
paths = (
{
closed = 1;
nodes = (
"988 575 LINE",
"988 721 LINE",
"134 1099 LINE",
"134 909 LINE",
"795 650 LINE",
"134 388 LINE",
"134 196 LINE"
);
}
);
userData = {
assembly = "SVTCA[0]	/* SetFreedomAndProjectionVectorToAxis */
PUSHB[ ]	/* 1 value pushed */
0 
RCVT[ ]	/* ReadCVT */
IF[ ]	/* If */
PUSHB[ ]	/* 1 value pushed */
2 
MDAP[1]	/* MoveDirectAbsPt */
ELSE[ ]	/* Else */
PUSHB[ ]	/* 2 values pushed */
2 26 
MIAP[0]	/* MoveIndirectAbsPt */
EIF[ ]	/* EndIf */
PUSHB[ ]	/* 1 value pushed */
5 
MDRP[10000]	/* MoveDirectRelPt */
PUSHB[ ]	/* 1 value pushed */
5 
MDAP[1]	/* MoveDirectAbsPt */
IUP[0]	/* InterpolateUntPts */
IUP[1]	/* InterpolateUntPts */";
};
width = 1070;
}
);
note = uni003E;
unicode = 003E;
},
{
glyphname = question;
lastChange = "2020-11-29 18:16:05 +0000";
layers = (
{
layerId = "A9B054E9-1A63-4AEF-9EE1-561B1DFE8422";
paths = (
{
closed = 1;
nodes = (
"449 400 LINE",
"449 530 OFFCURVE",
"493 629 OFFCURVE",
"581 698 CURVE",
"754 855 OFFCURVE",
"801 957 OFFCURVE",
"801 1110 CURVE SMOOTH",
"801 1334 OFFCURVE",
"667.333 1476 OFFCURVE",
"458 1476 CURVE SMOOTH",
"248.667 1476 OFFCURVE",
"95.667 1332 OFFCURVE",
"93 1116 CURVE",
"147 1116 LINE",
"149.667 1296 OFFCURVE",
"266 1423 OFFCURVE",
"458 1423 CURVE SMOOTH",
"638 1423 OFFCURVE",
"747 1305.333 OFFCURVE",
"747 1112 CURVE SMOOTH",
"747 933 OFFCURVE",
"676 854 OFFCURVE",
"552 739 CURVE SMOOTH",
"432 627 OFFCURVE",
"398 549 OFFCURVE",
"395 400 CURVE"
);
},
{
closed = 1;
nodes = (
"456.667 -6 OFFCURVE",
"482 18.333 OFFCURVE",
"482 49 CURVE SMOOTH",
"482 79.667 OFFCURVE",
"456.667 105 OFFCURVE",
"426 105 CURVE SMOOTH",
"395.333 105 OFFCURVE",
"371 79.667 OFFCURVE",
"371 49 CURVE SMOOTH",
"371 18.333 OFFCURVE",
"395.333 -6 OFFCURVE",
"426 -6 CURVE SMOOTH"
);
}
);
userData = {
assembly = "SVTCA[0]	/* SetFreedomAndProjectionVectorToAxis */
PUSHB[ ]	/* 1 value pushed */
0 
RCVT[ ]	/* ReadCVT */
IF[ ]	/* If */
PUSHB[ ]	/* 1 value pushed */
16 
MDAP[1]	/* MoveDirectAbsPt */
ELSE[ ]	/* Else */
PUSHB[ ]	/* 2 values pushed */
16 30 
MIAP[0]	/* MoveIndirectAbsPt */
EIF[ ]	/* EndIf */
PUSHB[ ]	/* 1 value pushed */
0 
RCVT[ ]	/* ReadCVT */
IF[ ]	/* If */
PUSHB[ ]	/* 1 value pushed */
32 
MDAP[1]	/* MoveDirectAbsPt */
ELSE[ ]	/* Else */
PUSHB[ ]	/* 2 values pushed */
32 18 
MIAP[0]	/* MoveIndirectAbsPt */
EIF[ ]	/* EndIf */
PUSHB[ ]	/* 2 values pushed */
27 5 
PUSHB[ ]	/* 1 value pushed */
10 
CALL[ ]	/* CallFunction */
IF[ ]	/* If */
POP[ ]	/* PopTopStack */
MDRP[11000]	/* MoveDirectRelPt */
ELSE[ ]	/* Else */
MIRP[10100]	/* MoveIndirectRelPt */
EIF[ ]	/* EndIf */
PUSHB[ ]	/* 3 values pushed */
0 27 16 
SRP1[ ]	/* SetRefPoint1 */
SRP2[ ]	/* SetRefPoint2 */
IP[ ]	/* InterpolatePts */
PUSHB[ ]	/* 3 values pushed */
4 16 0 
SRP1[ ]	/* SetRefPoint1 */
SRP2[ ]	/* SetRefPoint2 */
IP[ ]	/* InterpolatePts */
PUSHB[ ]	/* 1 value pushed */
16 
SRP0[ ]	/* SetRefPoint0 */
PUSHB[ ]	/* 2 values pushed */
9 1 
PUSHB[ ]	/* 1 value pushed */
10 
CALL[ ]	/* CallFunction */
IF[ ]	/* If */
POP[ ]	/* PopTopStack */
MDRP[11000]	/* MoveDirectRelPt */
ELSE[ ]	/* Else */
MIRP[10100]	/* MoveIndirectRelPt */
EIF[ ]	/* EndIf */
PUSHB[ ]	/* 1 value pushed */
16 
SRP0[ ]	/* SetRefPoint0 */
PUSHB[ ]	/* 1 value pushed */
12 
MDRP[10000]	/* MoveDirectRelPt */
PUSHB[ ]	/* 3 values pushed */
21 0 16 
SRP1[ ]	/* SetRefPoint1 */
SRP2[ ]	/* SetRefPoint2 */
IP[ ]	/* InterpolatePts */
IUP[0]	/* InterpolateUntPts */
IUP[1]	/* InterpolateUntPts */";
};
width = 967;
},
{
layerId = m002;
paths = (
{
closed = 1;
nodes = (
"542 410 LINE",
"542 511.333 OFFCURVE",
"566.333 589 OFFCURVE",
"724 751 CURVE SMOOTH",
"832 864 OFFCURVE",
"886 979.333 OFFCURVE",
"886 1096 CURVE SMOOTH",
"886 1332 OFFCURVE",
"738 1476 OFFCURVE",
"486 1476 CURVE SMOOTH",
"243.333 1476 OFFCURVE",
"77.667 1331 OFFCURVE",
"75 1115 CURVE",
"260 1115 LINE",
"260 1236.333 OFFCURVE",
"350 1314 OFFCURVE",
"486 1314 CURVE SMOOTH",
"626 1314 OFFCURVE",
"701 1230 OFFCURVE",
"701 1090 CURVE SMOOTH",
"701 1017.333 OFFCURVE",
"673 949.333 OFFCURVE",
"486 751 CURVE SMOOTH",
"383 639 OFFCURVE",
"359.667 568.667 OFFCURVE",
"357 410 CURVE"
);
},
{
closed = 1;
nodes = (
"349 33 OFFCURVE",
"386 -11 OFFCURVE",
"458 -11 CURVE SMOOTH",
"530 -11 OFFCURVE",
"568 33 OFFCURVE",
"568 93 CURVE SMOOTH",
"568 153 OFFCURVE",
"530 199 OFFCURVE",
"458 199 CURVE SMOOTH",
"386 199 OFFCURVE",
"349 153 OFFCURVE",
"349 93 CURVE SMOOTH"
);
}
);
userData = {
assembly = "SVTCA[0]	/* SetFreedomAndProjectionVectorToAxis */
PUSHB[ ]	/* 1 value pushed */
0 
RCVT[ ]	/* ReadCVT */
IF[ ]	/* If */
PUSHB[ ]	/* 1 value pushed */
16 
MDAP[1]	/* MoveDirectAbsPt */
ELSE[ ]	/* Else */
PUSHB[ ]	/* 2 values pushed */
16 30 
MIAP[0]	/* MoveIndirectAbsPt */
EIF[ ]	/* EndIf */
PUSHB[ ]	/* 1 value pushed */
0 
RCVT[ ]	/* ReadCVT */
IF[ ]	/* If */
PUSHB[ ]	/* 1 value pushed */
32 
MDAP[1]	/* MoveDirectAbsPt */
ELSE[ ]	/* Else */
PUSHB[ ]	/* 2 values pushed */
32 18 
MIAP[0]	/* MoveIndirectAbsPt */
EIF[ ]	/* EndIf */
PUSHB[ ]	/* 2 values pushed */
27 5 
PUSHB[ ]	/* 1 value pushed */
10 
CALL[ ]	/* CallFunction */
IF[ ]	/* If */
POP[ ]	/* PopTopStack */
MDRP[11000]	/* MoveDirectRelPt */
ELSE[ ]	/* Else */
MIRP[10100]	/* MoveIndirectRelPt */
EIF[ ]	/* EndIf */
PUSHB[ ]	/* 3 values pushed */
0 27 16 
SRP1[ ]	/* SetRefPoint1 */
SRP2[ ]	/* SetRefPoint2 */
IP[ ]	/* InterpolatePts */
PUSHB[ ]	/* 3 values pushed */
4 16 0 
SRP1[ ]	/* SetRefPoint1 */
SRP2[ ]	/* SetRefPoint2 */
IP[ ]	/* InterpolatePts */
PUSHB[ ]	/* 1 value pushed */
16 
SRP0[ ]	/* SetRefPoint0 */
PUSHB[ ]	/* 2 values pushed */
9 1 
PUSHB[ ]	/* 1 value pushed */
10 
CALL[ ]	/* CallFunction */
IF[ ]	/* If */
POP[ ]	/* PopTopStack */
MDRP[11000]	/* MoveDirectRelPt */
ELSE[ ]	/* Else */
MIRP[10100]	/* MoveIndirectRelPt */
EIF[ ]	/* EndIf */
PUSHB[ ]	/* 1 value pushed */
16 
SRP0[ ]	/* SetRefPoint0 */
PUSHB[ ]	/* 1 value pushed */
12 
MDRP[10000]	/* MoveDirectRelPt */
PUSHB[ ]	/* 3 values pushed */
21 0 16 
SRP1[ ]	/* SetRefPoint1 */
SRP2[ ]	/* SetRefPoint2 */
IP[ ]	/* InterpolatePts */
IUP[0]	/* InterpolateUntPts */
IUP[1]	/* InterpolateUntPts */";
};
width = 967;
}
);
note = uni003F;
unicode = 003F;
},
{
glyphname = at;
lastChange = "2020-11-29 18:18:38 +0000";
layers = (
{
layerId = "A9B054E9-1A63-4AEF-9EE1-561B1DFE8422";
paths = (
{
closed = 1;
nodes = (
"1030.333 -453 OFFCURVE",
"1181.667 -420 OFFCURVE",
"1267 -364 CURVE",
"1243 -318 LINE",
"1157.667 -367.333 OFFCURVE",
"1033 -398 OFFCURVE",
"913 -398 CURVE SMOOTH",
"606.333 -398 OFFCURVE",
"371 -242.5 OFFCURVE",
"259 23.5 CURVE SMOOTH",
"203 156.5 OFFCURVE",
"179 308 OFFCURVE",
"187 478 CURVE SMOOTH",
"204.333 814 OFFCURVE",
"349 1092.667 OFFCURVE",
"593 1242 CURVE SMOOTH",
"715 1316.667 OFFCURVE",
"850.667 1354 OFFCURVE",
"1000 1354 CURVE SMOOTH",
"1494.667 1354 OFFCURVE",
"1742.333 1071 OFFCURVE",
"1713 523 CURVE SMOOTH",
"1698.333 216.333 OFFCURVE",
"1581.667 35 OFFCURVE",
"1403 35 CURVE SMOOTH",
"1272.333 35 OFFCURVE",
"1204.333 129 OFFCURVE",
"1219 293 CURVE SMOOTH",
"1268 878 LINE",
"1160.667 966 OFFCURVE",
"1094.667 988 OFFCURVE",
"1018 988 CURVE SMOOTH",
"790 988 OFFCURVE",
"613 770.667 OFFCURVE",
"581 436 CURVE SMOOTH",
"557 160 OFFCURVE",
"650.667 -20 OFFCURVE",
"832 -20 CURVE SMOOTH",
"980.667 -20 OFFCURVE",
"1091.667 56.667 OFFCURVE",
"1165 210 CURVE",
"1179.667 66 OFFCURVE",
"1266.667 -20 OFFCURVE",
"1400 -20 CURVE SMOOTH",
"1537.333 -20 OFFCURVE",
"1648.333 68 OFFCURVE",
"1715 240 CURVE SMOOTH",
"1748.333 326 OFFCURVE",
"1766.667 420.333 OFFCURVE",
"1770 523 CURVE SMOOTH",
"1795.333 1095 OFFCURVE",
"1526.667 1411 OFFCURVE",
"1004 1411 CURVE SMOOTH",
"672 1411 OFFCURVE",
"403 1252.667 OFFCURVE",
"255 970 CURVE SMOOTH",
"181 828.667 OFFCURVE",
"140 664.667 OFFCURVE",
"132 478 CURVE SMOOTH",
"116 100.667 OFFCURVE",
"239 -190.5 OFFCURVE",
"479 -340.5 CURVE SMOOTH",
"599 -415.5 OFFCURVE",
"742.333 -453 OFFCURVE",
"909 -453 CURVE SMOOTH"
);
},
{
closed = 1;
nodes = (
"708.333 791.667 OFFCURVE",
"845.667 933 OFFCURVE",
"1015 933 CURVE SMOOTH",
"1099.667 933 OFFCURVE",
"1165 905.667 OFFCURVE",
"1211 851 CURVE",
"1168 344 LINE",
"1100 137.333 OFFCURVE",
"996.667 34 OFFCURVE",
"830 34 CURVE SMOOTH",
"616 34 OFFCURVE",
"608 346 OFFCURVE",
"655 557 CURVE SMOOTH"
);
}
);
userData = {
assembly = "SVTCA[0]	/* SetFreedomAndProjectionVectorToAxis */
PUSHB[ ]	/* 1 value pushed */
50 
MDAP[1]	/* MoveDirectAbsPt */
PUSHB[ ]	/* 1 value pushed */
0 
RCVT[ ]	/* ReadCVT */
IF[ ]	/* If */
PUSHB[ ]	/* 1 value pushed */
8 
MDAP[1]	/* MoveDirectAbsPt */
ELSE[ ]	/* Else */
PUSHB[ ]	/* 2 values pushed */
8 18 
MIAP[0]	/* MoveIndirectAbsPt */
EIF[ ]	/* EndIf */
PUSHB[ ]	/* 1 value pushed */
3 
MDRP[10000]	/* MoveDirectRelPt */
PUSHB[ ]	/* 3 values pushed */
15 50 8 
SRP1[ ]	/* SetRefPoint1 */
SRP2[ ]	/* SetRefPoint2 */
IP[ ]	/* InterpolatePts */
PUSHB[ ]	/* 1 value pushed */
15 
MDAP[1]	/* MoveDirectAbsPt */
PUSHB[ ]	/* 3 values pushed */
5 8 15 
SRP1[ ]	/* SetRefPoint1 */
SRP2[ ]	/* SetRefPoint2 */
IP[ ]	/* InterpolatePts */
PUSHB[ ]	/* 1 value pushed */
8 
SRP0[ ]	/* SetRefPoint0 */
PUSHB[ ]	/* 2 values pushed */
57 2 
PUSHB[ ]	/* 1 value pushed */
10 
CALL[ ]	/* CallFunction */
IF[ ]	/* If */
POP[ ]	/* PopTopStack */
MDRP[11000]	/* MoveDirectRelPt */
ELSE[ ]	/* Else */
MIRP[10100]	/* MoveIndirectRelPt */
EIF[ ]	/* EndIf */
PUSHB[ ]	/* 1 value pushed */
21 
MDRP[10000]	/* MoveDirectRelPt */
PUSHB[ ]	/* 1 value pushed */
50 
SRP0[ ]	/* SetRefPoint0 */
PUSHB[ ]	/* 2 values pushed */
27 2 
PUSHB[ ]	/* 1 value pushed */
10 
CALL[ ]	/* CallFunction */
IF[ ]	/* If */
POP[ ]	/* PopTopStack */
MDRP[11000]	/* MoveDirectRelPt */
ELSE[ ]	/* Else */
MIRP[10100]	/* MoveIndirectRelPt */
EIF[ ]	/* EndIf */
PUSHB[ ]	/* 1 value pushed */
8 
SRP0[ ]	/* SetRefPoint0 */
PUSHB[ ]	/* 1 value pushed */
42 
MDRP[10000]	/* MoveDirectRelPt */
PUSHB[ ]	/* 1 value pushed */
42 
MDAP[1]	/* MoveDirectAbsPt */
PUSHB[ ]	/* 2 values pushed */
35 2 
PUSHB[ ]	/* 1 value pushed */
10 
CALL[ ]	/* CallFunction */
IF[ ]	/* If */
POP[ ]	/* PopTopStack */
MDRP[11000]	/* MoveDirectRelPt */
ELSE[ ]	/* Else */
MIRP[10100]	/* MoveIndirectRelPt */
EIF[ ]	/* EndIf */
PUSHB[ ]	/* 1 value pushed */
15 
SRP0[ ]	/* SetRefPoint0 */
PUSHB[ ]	/* 2 values pushed */
64 2 
PUSHB[ ]	/* 1 value pushed */
10 
CALL[ ]	/* CallFunction */
IF[ ]	/* If */
POP[ ]	/* PopTopStack */
MDRP[11000]	/* MoveDirectRelPt */
ELSE[ ]	/* Else */
MIRP[10100]	/* MoveIndirectRelPt */
EIF[ ]	/* EndIf */
IUP[0]	/* InterpolateUntPts */
IUP[1]	/* InterpolateUntPts */";
};
width = 1839;
},
{
layerId = m002;
paths = (
{
closed = 1;
nodes = (
"1035 -453 OFFCURVE",
"1184.333 -416 OFFCURVE",
"1267 -364 CURVE",
"1230 -249 LINE",
"1150 -295.667 OFFCURVE",
"1019 -328 OFFCURVE",
"899 -328 CURVE SMOOTH",
"620.333 -328 OFFCURVE",
"419 -195.833 OFFCURVE",
"323 47.5 CURVE SMOOTH",
"275 169.167 OFFCURVE",
"255 312.667 OFFCURVE",
"263 478 CURVE SMOOTH",
"277.667 806 OFFCURVE",
"402 1066.833 OFFCURVE",
"610 1199.5 CURVE SMOOTH",
"714 1265.833 OFFCURVE",
"833 1299 OFFCURVE",
"967 1299 CURVE SMOOTH",
"1412.333 1299 OFFCURVE",
"1634.333 1020.667 OFFCURVE",
"1609 502 CURVE SMOOTH",
"1601 262 OFFCURVE",
"1500.667 98 OFFCURVE",
"1350 98 CURVE SMOOTH",
"1252 98 OFFCURVE",
"1209.333 175 OFFCURVE",
"1222 329 CURVE SMOOTH",
"1274 883 LINE",
"1167.333 967 OFFCURVE",
"1093 989 OFFCURVE",
"985 989 CURVE SMOOTH",
"845 989 OFFCURVE",
"709.167 884.167 OFFCURVE",
"628.5 711.5 CURVE SMOOTH",
"504 444 OFFCURVE",
"497 -20 OFFCURVE",
"822 -20 CURVE SMOOTH",
"920.667 -20 OFFCURVE",
"1017 34.667 OFFCURVE",
"1089 148 CURVE",
"1124.333 36 OFFCURVE",
"1204.333 -20 OFFCURVE",
"1329 -20 CURVE SMOOTH",
"1570.333 -20 OFFCURVE",
"1722 179.333 OFFCURVE",
"1738 502 CURVE SMOOTH",
"1754 879.333 OFFCURVE",
"1635.333 1169.667 OFFCURVE",
"1398 1319 CURVE SMOOTH",
"1279.333 1393.667 OFFCURVE",
"1137 1431 OFFCURVE",
"971 1431 CURVE SMOOTH",
"652.333 1431 OFFCURVE",
"389 1265.167 OFFCURVE",
"241 972.5 CURVE SMOOTH",
"167 826.167 OFFCURVE",
"126 661.333 OFFCURVE",
"118 478 CURVE SMOOTH",
"102 100.667 OFFCURVE",
"225 -190.5 OFFCURVE",
"465 -340.5 CURVE SMOOTH",
"585 -415.5 OFFCURVE",
"728.333 -453 OFFCURVE",
"895 -453 CURVE SMOOTH"
);
},
{
closed = 1;
nodes = (
"737.333 691.667 OFFCURVE",
"845 861 OFFCURVE",
"1001 861 CURVE SMOOTH",
"1043.667 861 OFFCURVE",
"1083.667 851.333 OFFCURVE",
"1121 832 CURVE",
"1074 320 LINE",
"1026 193.333 OFFCURVE",
"947 123 OFFCURVE",
"867 123 CURVE SMOOTH",
"749.667 123 OFFCURVE",
"693.333 227.667 OFFCURVE",
"712 417 CURVE SMOOTH"
);
}
);
userData = {
assembly = "SVTCA[0]	/* SetFreedomAndProjectionVectorToAxis */
PUSHB[ ]	/* 1 value pushed */
50 
MDAP[1]	/* MoveDirectAbsPt */
PUSHB[ ]	/* 1 value pushed */
0 
RCVT[ ]	/* ReadCVT */
IF[ ]	/* If */
PUSHB[ ]	/* 1 value pushed */
8 
MDAP[1]	/* MoveDirectAbsPt */
ELSE[ ]	/* Else */
PUSHB[ ]	/* 2 values pushed */
8 18 
MIAP[0]	/* MoveIndirectAbsPt */
EIF[ ]	/* EndIf */
PUSHB[ ]	/* 1 value pushed */
3 
MDRP[10000]	/* MoveDirectRelPt */
PUSHB[ ]	/* 3 values pushed */
15 50 8 
SRP1[ ]	/* SetRefPoint1 */
SRP2[ ]	/* SetRefPoint2 */
IP[ ]	/* InterpolatePts */
PUSHB[ ]	/* 1 value pushed */
15 
MDAP[1]	/* MoveDirectAbsPt */
PUSHB[ ]	/* 3 values pushed */
5 8 15 
SRP1[ ]	/* SetRefPoint1 */
SRP2[ ]	/* SetRefPoint2 */
IP[ ]	/* InterpolatePts */
PUSHB[ ]	/* 1 value pushed */
8 
SRP0[ ]	/* SetRefPoint0 */
PUSHB[ ]	/* 2 values pushed */
57 2 
PUSHB[ ]	/* 1 value pushed */
10 
CALL[ ]	/* CallFunction */
IF[ ]	/* If */
POP[ ]	/* PopTopStack */
MDRP[11000]	/* MoveDirectRelPt */
ELSE[ ]	/* Else */
MIRP[10100]	/* MoveIndirectRelPt */
EIF[ ]	/* EndIf */
PUSHB[ ]	/* 1 value pushed */
21 
MDRP[10000]	/* MoveDirectRelPt */
PUSHB[ ]	/* 1 value pushed */
50 
SRP0[ ]	/* SetRefPoint0 */
PUSHB[ ]	/* 2 values pushed */
27 2 
PUSHB[ ]	/* 1 value pushed */
10 
CALL[ ]	/* CallFunction */
IF[ ]	/* If */
POP[ ]	/* PopTopStack */
MDRP[11000]	/* MoveDirectRelPt */
ELSE[ ]	/* Else */
MIRP[10100]	/* MoveIndirectRelPt */
EIF[ ]	/* EndIf */
PUSHB[ ]	/* 1 value pushed */
8 
SRP0[ ]	/* SetRefPoint0 */
PUSHB[ ]	/* 1 value pushed */
42 
MDRP[10000]	/* MoveDirectRelPt */
PUSHB[ ]	/* 1 value pushed */
42 
MDAP[1]	/* MoveDirectAbsPt */
PUSHB[ ]	/* 2 values pushed */
35 2 
PUSHB[ ]	/* 1 value pushed */
10 
CALL[ ]	/* CallFunction */
IF[ ]	/* If */
POP[ ]	/* PopTopStack */
MDRP[11000]	/* MoveDirectRelPt */
ELSE[ ]	/* Else */
MIRP[10100]	/* MoveIndirectRelPt */
EIF[ ]	/* EndIf */
PUSHB[ ]	/* 1 value pushed */
15 
SRP0[ ]	/* SetRefPoint0 */
PUSHB[ ]	/* 2 values pushed */
64 2 
PUSHB[ ]	/* 1 value pushed */
10 
CALL[ ]	/* CallFunction */
IF[ ]	/* If */
POP[ ]	/* PopTopStack */
MDRP[11000]	/* MoveDirectRelPt */
ELSE[ ]	/* Else */
MIRP[10100]	/* MoveIndirectRelPt */
EIF[ ]	/* EndIf */
IUP[0]	/* InterpolateUntPts */
IUP[1]	/* InterpolateUntPts */";
};
width = 1839;
}
);
note = uni0040;
unicode = 0040;
},
{
glyphname = A;
lastChange = "2020-11-29 18:16:05 +0000";
layers = (
{
layerId = "A9B054E9-1A63-4AEF-9EE1-561B1DFE8422";
paths = (
{
closed = 1;
nodes = (
"92 0 LINE",
"254 435 LINE",
"967 435 LINE",
"1130 0 LINE",
"1189 0 LINE",
"644 1456 LINE",
"578 1456 LINE",
"33 0 LINE"
);
},
{
closed = 1;
nodes = (
"611 1391 LINE",
"947 489 LINE",
"274 489 LINE"
);
}
);
userData = {
assembly = "PUSHB[ ]	/* 3 values pushed */
10 11 12 
SRP1[ ]	/* SetRefPoint1 */
SRP2[ ]	/* SetRefPoint2 */
IP[ ]	/* InterpolatePts */
PUSHB[ ]	/* 1 value pushed */
10 
SRP0[ ]	/* SetRefPoint0 */
PUSHB[ ]	/* 1 value pushed */
4 
MDRP[10000]	/* MoveDirectRelPt */
SVTCA[0]	/* SetFreedomAndProjectionVectorToAxis */
PUSHB[ ]	/* 1 value pushed */
0 
RCVT[ ]	/* ReadCVT */
IF[ ]	/* If */
PUSHB[ ]	/* 1 value pushed */
4 
MDAP[1]	/* MoveDirectAbsPt */
ELSE[ ]	/* Else */
PUSHB[ ]	/* 2 values pushed */
4 30 
MIAP[0]	/* MoveIndirectAbsPt */
EIF[ ]	/* EndIf */
PUSHB[ ]	/* 1 value pushed */
0 
RCVT[ ]	/* ReadCVT */
IF[ ]	/* If */
PUSHB[ ]	/* 1 value pushed */
2 
MDAP[1]	/* MoveDirectAbsPt */
ELSE[ ]	/* Else */
PUSHB[ ]	/* 2 values pushed */
2 18 
MIAP[0]	/* MoveIndirectAbsPt */
EIF[ ]	/* EndIf */
PUSHB[ ]	/* 1 value pushed */
0 
RCVT[ ]	/* ReadCVT */
IF[ ]	/* If */
PUSHB[ ]	/* 1 value pushed */
6 
MDAP[1]	/* MoveDirectAbsPt */
ELSE[ ]	/* Else */
PUSHB[ ]	/* 2 values pushed */
6 18 
MIAP[0]	/* MoveIndirectAbsPt */
EIF[ ]	/* EndIf */
PUSHB[ ]	/* 3 values pushed */
8 4 2 
SRP1[ ]	/* SetRefPoint1 */
SRP2[ ]	/* SetRefPoint2 */
IP[ ]	/* InterpolatePts */
PUSHB[ ]	/* 1 value pushed */
8 
MDAP[1]	/* MoveDirectAbsPt */
PUSHB[ ]	/* 2 values pushed */
0 1 
PUSHB[ ]	/* 1 value pushed */
10 
CALL[ ]	/* CallFunction */
IF[ ]	/* If */
POP[ ]	/* PopTopStack */
MDRP[11000]	/* MoveDirectRelPt */
ELSE[ ]	/* Else */
MIRP[10100]	/* MoveIndirectRelPt */
EIF[ ]	/* EndIf */
PUSHB[ ]	/* 3 values pushed */
10 4 2 
SRP1[ ]	/* SetRefPoint1 */
SRP2[ ]	/* SetRefPoint2 */
IP[ ]	/* InterpolatePts */
IUP[0]	/* InterpolateUntPts */
IUP[1]	/* InterpolateUntPts */";
};
width = 1336;
},
{
layerId = m002;
paths = (
{
closed = 1;
nodes = (
"229 0 LINE",
"366 380 LINE",
"976 380 LINE",
"1115 0 LINE",
"1312 0 LINE",
"755 1456 LINE",
"587 1456 LINE",
"31 0 LINE"
);
},
{
closed = 1;
nodes = (
"671 1219 LINE",
"919 538 LINE",
"424 538 LINE"
);
}
);
userData = {
assembly = "PUSHB[ ]	/* 3 values pushed */
10 11 12 
SRP1[ ]	/* SetRefPoint1 */
SRP2[ ]	/* SetRefPoint2 */
IP[ ]	/* InterpolatePts */
PUSHB[ ]	/* 1 value pushed */
10 
SRP0[ ]	/* SetRefPoint0 */
PUSHB[ ]	/* 1 value pushed */
4 
MDRP[10000]	/* MoveDirectRelPt */
SVTCA[0]	/* SetFreedomAndProjectionVectorToAxis */
PUSHB[ ]	/* 1 value pushed */
0 
RCVT[ ]	/* ReadCVT */
IF[ ]	/* If */
PUSHB[ ]	/* 1 value pushed */
4 
MDAP[1]	/* MoveDirectAbsPt */
ELSE[ ]	/* Else */
PUSHB[ ]	/* 2 values pushed */
4 30 
MIAP[0]	/* MoveIndirectAbsPt */
EIF[ ]	/* EndIf */
PUSHB[ ]	/* 1 value pushed */
0 
RCVT[ ]	/* ReadCVT */
IF[ ]	/* If */
PUSHB[ ]	/* 1 value pushed */
2 
MDAP[1]	/* MoveDirectAbsPt */
ELSE[ ]	/* Else */
PUSHB[ ]	/* 2 values pushed */
2 18 
MIAP[0]	/* MoveIndirectAbsPt */
EIF[ ]	/* EndIf */
PUSHB[ ]	/* 1 value pushed */
0 
RCVT[ ]	/* ReadCVT */
IF[ ]	/* If */
PUSHB[ ]	/* 1 value pushed */
6 
MDAP[1]	/* MoveDirectAbsPt */
ELSE[ ]	/* Else */
PUSHB[ ]	/* 2 values pushed */
6 18 
MIAP[0]	/* MoveIndirectAbsPt */
EIF[ ]	/* EndIf */
PUSHB[ ]	/* 3 values pushed */
8 4 2 
SRP1[ ]	/* SetRefPoint1 */
SRP2[ ]	/* SetRefPoint2 */
IP[ ]	/* InterpolatePts */
PUSHB[ ]	/* 1 value pushed */
8 
MDAP[1]	/* MoveDirectAbsPt */
PUSHB[ ]	/* 2 values pushed */
0 1 
PUSHB[ ]	/* 1 value pushed */
10 
CALL[ ]	/* CallFunction */
IF[ ]	/* If */
POP[ ]	/* PopTopStack */
MDRP[11000]	/* MoveDirectRelPt */
ELSE[ ]	/* Else */
MIRP[10100]	/* MoveIndirectRelPt */
EIF[ ]	/* EndIf */
PUSHB[ ]	/* 3 values pushed */
10 4 2 
SRP1[ ]	/* SetRefPoint1 */
SRP2[ ]	/* SetRefPoint2 */
IP[ ]	/* InterpolatePts */
IUP[0]	/* InterpolateUntPts */
IUP[1]	/* InterpolateUntPts */";
};
width = 1336;
}
);
leftKerningGroup = A;
note = uni0041;
rightKerningGroup = A;
unicode = 0041;
},
{
glyphname = B;
lastChange = "2020-11-29 18:16:05 +0000";
layers = (
{
layerId = "A9B054E9-1A63-4AEF-9EE1-561B1DFE8422";
paths = (
{
closed = 1;
nodes = (
"669 0 LINE SMOOTH",
"955.667 0 OFFCURVE",
"1125 153 OFFCURVE",
"1125 401 CURVE SMOOTH",
"1125 575.667 OFFCURVE",
"987 729 OFFCURVE",
"803 753 CURVE",
"965.667 785 OFFCURVE",
"1059 907 OFFCURVE",
"1059 1083 CURVE SMOOTH",
"1059 1325.667 OFFCURVE",
"896.333 1456 OFFCURVE",
"583 1456 CURVE SMOOTH",
"200 1456 LINE",
"200 0 LINE"
);
},
{
closed = 1;
nodes = (
"254 719 LINE",
"696 719 LINE SMOOTH",
"924 715 OFFCURVE",
"1071 583 OFFCURVE",
"1071 399 CURVE SMOOTH",
"1071 183 OFFCURVE",
"921.667 54 OFFCURVE",
"675 54 CURVE SMOOTH",
"254 54 LINE"
);
},
{
closed = 1;
nodes = (
"254 1402 LINE",
"595 1402 LINE SMOOTH",
"867.667 1398.667 OFFCURVE",
"1004 1293.667 OFFCURVE",
"1004 1087 CURVE SMOOTH",
"1004 872.333 OFFCURVE",
"868.333 773 OFFCURVE",
"603 773 CURVE SMOOTH",
"254 773 LINE"
);
}
);
userData = {
assembly = "SVTCA[0]	/* SetFreedomAndProjectionVectorToAxis */
PUSHB[ ]	/* 1 value pushed */
0 
RCVT[ ]	/* ReadCVT */
IF[ ]	/* If */
PUSHB[ ]	/* 1 value pushed */
1 
MDAP[1]	/* MoveDirectAbsPt */
ELSE[ ]	/* Else */
PUSHB[ ]	/* 2 values pushed */
1 30 
MIAP[0]	/* MoveIndirectAbsPt */
EIF[ ]	/* EndIf */
PUSHB[ ]	/* 1 value pushed */
0 
RCVT[ ]	/* ReadCVT */
IF[ ]	/* If */
PUSHB[ ]	/* 1 value pushed */
0 
MDAP[1]	/* MoveDirectAbsPt */
ELSE[ ]	/* Else */
PUSHB[ ]	/* 2 values pushed */
0 18 
MIAP[0]	/* MoveIndirectAbsPt */
EIF[ ]	/* EndIf */
PUSHB[ ]	/* 3 values pushed */
23 0 1 
SRP1[ ]	/* SetRefPoint1 */
SRP2[ ]	/* SetRefPoint2 */
IP[ ]	/* InterpolatePts */
PUSHB[ ]	/* 1 value pushed */
23 
MDAP[1]	/* MoveDirectAbsPt */
PUSHB[ ]	/* 2 values pushed */
15 1 
PUSHB[ ]	/* 1 value pushed */
10 
CALL[ ]	/* CallFunction */
IF[ ]	/* If */
POP[ ]	/* PopTopStack */
MDRP[11000]	/* MoveDirectRelPt */
ELSE[ ]	/* Else */
MIRP[10100]	/* MoveIndirectRelPt */
EIF[ ]	/* EndIf */
PUSHB[ ]	/* 3 values pushed */
8 15 23 
SRP1[ ]	/* SetRefPoint1 */
SRP2[ ]	/* SetRefPoint2 */
IP[ ]	/* InterpolatePts */
PUSHB[ ]	/* 1 value pushed */
0 
SRP0[ ]	/* SetRefPoint0 */
PUSHB[ ]	/* 2 values pushed */
16 1 
PUSHB[ ]	/* 1 value pushed */
10 
CALL[ ]	/* CallFunction */
IF[ ]	/* If */
POP[ ]	/* PopTopStack */
MDRP[11000]	/* MoveDirectRelPt */
ELSE[ ]	/* Else */
MIRP[10100]	/* MoveIndirectRelPt */
EIF[ ]	/* EndIf */
PUSHB[ ]	/* 1 value pushed */
1 
SRP0[ ]	/* SetRefPoint0 */
PUSHB[ ]	/* 2 values pushed */
31 1 
PUSHB[ ]	/* 1 value pushed */
10 
CALL[ ]	/* CallFunction */
IF[ ]	/* If */
POP[ ]	/* PopTopStack */
MDRP[11000]	/* MoveDirectRelPt */
ELSE[ ]	/* Else */
MIRP[10100]	/* MoveIndirectRelPt */
EIF[ ]	/* EndIf */
IUP[0]	/* InterpolateUntPts */
IUP[1]	/* InterpolateUntPts */";
};
width = 1275;
},
{
layerId = m002;
paths = (
{
closed = 1;
nodes = (
"674 0 LINE SMOOTH",
"983.333 0 OFFCURVE",
"1160 158.667 OFFCURVE",
"1160 420 CURVE SMOOTH",
"1160 590.667 OFFCURVE",
"1062.333 722 OFFCURVE",
"905 766 CURVE",
"1038.333 823.333 OFFCURVE",
"1121 932 OFFCURVE",
"1121 1068 CURVE SMOOTH",
"1121 1324 OFFCURVE",
"961 1456 OFFCURVE",
"645 1456 CURVE SMOOTH",
"169 1456 LINE",
"169 0 LINE"
);
},
{
closed = 1;
nodes = (
"361 681 LINE",
"681 681 LINE SMOOTH",
"871.667 681 OFFCURVE",
"967 593.333 OFFCURVE",
"967 418 CURVE SMOOTH",
"967 255.333 OFFCURVE",
"856.667 157 OFFCURVE",
"678 157 CURVE SMOOTH",
"361 157 LINE"
);
},
{
closed = 1;
nodes = (
"361 1298 LINE",
"645 1298 LINE SMOOTH",
"835.667 1298 OFFCURVE",
"928 1229 OFFCURVE",
"928 1069 CURVE SMOOTH",
"928 925 OFFCURVE",
"819 835 OFFCURVE",
"651 835 CURVE SMOOTH",
"361 835 LINE"
);
}
);
userData = {
assembly = "SVTCA[0]	/* SetFreedomAndProjectionVectorToAxis */
PUSHB[ ]	/* 1 value pushed */
0 
RCVT[ ]	/* ReadCVT */
IF[ ]	/* If */
PUSHB[ ]	/* 1 value pushed */
1 
MDAP[1]	/* MoveDirectAbsPt */
ELSE[ ]	/* Else */
PUSHB[ ]	/* 2 values pushed */
1 30 
MIAP[0]	/* MoveIndirectAbsPt */
EIF[ ]	/* EndIf */
PUSHB[ ]	/* 1 value pushed */
0 
RCVT[ ]	/* ReadCVT */
IF[ ]	/* If */
PUSHB[ ]	/* 1 value pushed */
0 
MDAP[1]	/* MoveDirectAbsPt */
ELSE[ ]	/* Else */
PUSHB[ ]	/* 2 values pushed */
0 18 
MIAP[0]	/* MoveIndirectAbsPt */
EIF[ ]	/* EndIf */
PUSHB[ ]	/* 3 values pushed */
23 0 1 
SRP1[ ]	/* SetRefPoint1 */
SRP2[ ]	/* SetRefPoint2 */
IP[ ]	/* InterpolatePts */
PUSHB[ ]	/* 1 value pushed */
23 
MDAP[1]	/* MoveDirectAbsPt */
PUSHB[ ]	/* 2 values pushed */
15 1 
PUSHB[ ]	/* 1 value pushed */
10 
CALL[ ]	/* CallFunction */
IF[ ]	/* If */
POP[ ]	/* PopTopStack */
MDRP[11000]	/* MoveDirectRelPt */
ELSE[ ]	/* Else */
MIRP[10100]	/* MoveIndirectRelPt */
EIF[ ]	/* EndIf */
PUSHB[ ]	/* 3 values pushed */
8 15 23 
SRP1[ ]	/* SetRefPoint1 */
SRP2[ ]	/* SetRefPoint2 */
IP[ ]	/* InterpolatePts */
PUSHB[ ]	/* 1 value pushed */
0 
SRP0[ ]	/* SetRefPoint0 */
PUSHB[ ]	/* 2 values pushed */
16 1 
PUSHB[ ]	/* 1 value pushed */
10 
CALL[ ]	/* CallFunction */
IF[ ]	/* If */
POP[ ]	/* PopTopStack */
MDRP[11000]	/* MoveDirectRelPt */
ELSE[ ]	/* Else */
MIRP[10100]	/* MoveIndirectRelPt */
EIF[ ]	/* EndIf */
PUSHB[ ]	/* 1 value pushed */
1 
SRP0[ ]	/* SetRefPoint0 */
PUSHB[ ]	/* 2 values pushed */
31 1 
PUSHB[ ]	/* 1 value pushed */
10 
CALL[ ]	/* CallFunction */
IF[ ]	/* If */
POP[ ]	/* PopTopStack */
MDRP[11000]	/* MoveDirectRelPt */
ELSE[ ]	/* Else */
MIRP[10100]	/* MoveIndirectRelPt */
EIF[ ]	/* EndIf */
IUP[0]	/* InterpolateUntPts */
IUP[1]	/* InterpolateUntPts */";
};
width = 1275;
}
);
note = uni0042;
rightKerningGroup = B;
unicode = 0042;
},
{
glyphname = C;
lastChange = "2020-11-29 18:16:05 +0000";
layers = (
{
layerId = "A9B054E9-1A63-4AEF-9EE1-561B1DFE8422";
paths = (
{
closed = 1;
nodes = (
"970 -20 OFFCURVE",
"1154 146 OFFCURVE",
"1182 446 CURVE",
"1128 446 LINE",
"1100 171 OFFCURVE",
"941 34 OFFCURVE",
"663 34 CURVE SMOOTH",
"238 34 OFFCURVE",
"191 482 OFFCURVE",
"191 649 CURVE SMOOTH",
"191 833 LINE SMOOTH",
"191 1192 OFFCURVE",
"380 1422 OFFCURVE",
"663 1422 CURVE SMOOTH",
"940 1422 OFFCURVE",
"1097 1280 OFFCURVE",
"1128 1012 CURVE",
"1182 1012 LINE",
"1154 1311 OFFCURVE",
"967 1476 OFFCURVE",
"663 1476 CURVE SMOOTH",
"314 1476 OFFCURVE",
"136 1178 OFFCURVE",
"136 837 CURVE SMOOTH",
"136 263 OFFCURVE",
"239 -20 OFFCURVE",
"663 -20 CURVE SMOOTH"
);
}
);
userData = {
assembly = "SVTCA[0]	/* SetFreedomAndProjectionVectorToAxis */
PUSHB[ ]	/* 1 value pushed */
0 
RCVT[ ]	/* ReadCVT */
IF[ ]	/* If */
PUSHB[ ]	/* 1 value pushed */
11 
MDAP[1]	/* MoveDirectAbsPt */
ELSE[ ]	/* Else */
PUSHB[ ]	/* 2 values pushed */
11 30 
MIAP[0]	/* MoveIndirectAbsPt */
EIF[ ]	/* EndIf */
PUSHB[ ]	/* 1 value pushed */
0 
RCVT[ ]	/* ReadCVT */
IF[ ]	/* If */
PUSHB[ ]	/* 1 value pushed */
3 
MDAP[1]	/* MoveDirectAbsPt */
ELSE[ ]	/* Else */
PUSHB[ ]	/* 2 values pushed */
3 18 
MIAP[0]	/* MoveIndirectAbsPt */
EIF[ ]	/* EndIf */
PUSHB[ ]	/* 1 value pushed */
11 
SRP0[ ]	/* SetRefPoint0 */
PUSHB[ ]	/* 1 value pushed */
15 
MDRP[10000]	/* MoveDirectRelPt */
PUSHB[ ]	/* 1 value pushed */
11 
SRP0[ ]	/* SetRefPoint0 */
PUSHB[ ]	/* 2 values pushed */
18 1 
PUSHB[ ]	/* 1 value pushed */
10 
CALL[ ]	/* CallFunction */
IF[ ]	/* If */
POP[ ]	/* PopTopStack */
MDRP[11000]	/* MoveDirectRelPt */
ELSE[ ]	/* Else */
MIRP[10100]	/* MoveIndirectRelPt */
EIF[ ]	/* EndIf */
PUSHB[ ]	/* 1 value pushed */
3 
SRP0[ ]	/* SetRefPoint0 */
PUSHB[ ]	/* 2 values pushed */
25 1 
PUSHB[ ]	/* 1 value pushed */
10 
CALL[ ]	/* CallFunction */
IF[ ]	/* If */
POP[ ]	/* PopTopStack */
MDRP[11000]	/* MoveDirectRelPt */
ELSE[ ]	/* Else */
MIRP[10100]	/* MoveIndirectRelPt */
EIF[ ]	/* EndIf */
PUSHB[ ]	/* 1 value pushed */
3 
SRP0[ ]	/* SetRefPoint0 */
PUSHB[ ]	/* 1 value pushed */
28 
MDRP[10000]	/* MoveDirectRelPt */
IUP[0]	/* InterpolateUntPts */
IUP[1]	/* InterpolateUntPts */";
};
width = 1333;
},
{
layerId = m002;
paths = (
{
closed = 1;
nodes = (
"986 -20 OFFCURVE",
"1185 154 OFFCURVE",
"1221 462 CURVE",
"1028 462 LINE",
"991 222 OFFCURVE",
"882 137 OFFCURVE",
"669 137 CURVE SMOOTH",
"432 137 OFFCURVE",
"293 338 OFFCURVE",
"293 654 CURVE SMOOTH",
"293 795 LINE SMOOTH",
"293 1130 OFFCURVE",
"441 1318 OFFCURVE",
"686 1318 CURVE SMOOTH",
"886 1318 OFFCURVE",
"995 1220 OFFCURVE",
"1028 988 CURVE",
"1221 988 LINE",
"1190 1293 OFFCURVE",
"995 1476 OFFCURVE",
"686 1476 CURVE SMOOTH",
"307 1476 OFFCURVE",
"100 1183 OFFCURVE",
"100 660 CURVE SMOOTH",
"100 247 OFFCURVE",
"325 -20 OFFCURVE",
"669 -20 CURVE SMOOTH"
);
}
);
userData = {
assembly = "SVTCA[0]	/* SetFreedomAndProjectionVectorToAxis */
PUSHB[ ]	/* 1 value pushed */
0 
RCVT[ ]	/* ReadCVT */
IF[ ]	/* If */
PUSHB[ ]	/* 1 value pushed */
11 
MDAP[1]	/* MoveDirectAbsPt */
ELSE[ ]	/* Else */
PUSHB[ ]	/* 2 values pushed */
11 30 
MIAP[0]	/* MoveIndirectAbsPt */
EIF[ ]	/* EndIf */
PUSHB[ ]	/* 1 value pushed */
0 
RCVT[ ]	/* ReadCVT */
IF[ ]	/* If */
PUSHB[ ]	/* 1 value pushed */
3 
MDAP[1]	/* MoveDirectAbsPt */
ELSE[ ]	/* Else */
PUSHB[ ]	/* 2 values pushed */
3 18 
MIAP[0]	/* MoveIndirectAbsPt */
EIF[ ]	/* EndIf */
PUSHB[ ]	/* 1 value pushed */
11 
SRP0[ ]	/* SetRefPoint0 */
PUSHB[ ]	/* 1 value pushed */
15 
MDRP[10000]	/* MoveDirectRelPt */
PUSHB[ ]	/* 1 value pushed */
11 
SRP0[ ]	/* SetRefPoint0 */
PUSHB[ ]	/* 2 values pushed */
18 1 
PUSHB[ ]	/* 1 value pushed */
10 
CALL[ ]	/* CallFunction */
IF[ ]	/* If */
POP[ ]	/* PopTopStack */
MDRP[11000]	/* MoveDirectRelPt */
ELSE[ ]	/* Else */
MIRP[10100]	/* MoveIndirectRelPt */
EIF[ ]	/* EndIf */
PUSHB[ ]	/* 1 value pushed */
3 
SRP0[ ]	/* SetRefPoint0 */
PUSHB[ ]	/* 2 values pushed */
25 1 
PUSHB[ ]	/* 1 value pushed */
10 
CALL[ ]	/* CallFunction */
IF[ ]	/* If */
POP[ ]	/* PopTopStack */
MDRP[11000]	/* MoveDirectRelPt */
ELSE[ ]	/* Else */
MIRP[10100]	/* MoveIndirectRelPt */
EIF[ ]	/* EndIf */
PUSHB[ ]	/* 1 value pushed */
3 
SRP0[ ]	/* SetRefPoint0 */
PUSHB[ ]	/* 1 value pushed */
28 
MDRP[10000]	/* MoveDirectRelPt */
IUP[0]	/* InterpolateUntPts */
IUP[1]	/* InterpolateUntPts */";
};
width = 1333;
}
);
leftKerningGroup = C;
note = uni0043;
rightKerningGroup = C;
unicode = 0043;
},
{
glyphname = D;
lastChange = "2020-11-29 18:16:05 +0000";
layers = (
{
layerId = "A9B054E9-1A63-4AEF-9EE1-561B1DFE8422";
paths = (
{
closed = 1;
nodes = (
"608 0 LINE SMOOTH",
"964 0 OFFCURVE",
"1204 281 OFFCURVE",
"1204 639 CURVE SMOOTH",
"1204 828 LINE SMOOTH",
"1204 1181 OFFCURVE",
"958 1456 OFFCURVE",
"603 1456 CURVE SMOOTH",
"200 1456 LINE",
"200 0 LINE"
);
},
{
closed = 1;
nodes = (
"254 1402 LINE",
"611 1402 LINE SMOOTH",
"1094 1402 OFFCURVE",
"1150 914 OFFCURVE",
"1150 820 CURVE SMOOTH",
"1150 633 LINE SMOOTH",
"1150 226 OFFCURVE",
"742 54 OFFCURVE",
"603 54 CURVE SMOOTH",
"254 54 LINE"
);
}
);
userData = {
assembly = "SVTCA[0]	/* SetFreedomAndProjectionVectorToAxis */
PUSHB[ ]	/* 1 value pushed */
0 
RCVT[ ]	/* ReadCVT */
IF[ ]	/* If */
PUSHB[ ]	/* 1 value pushed */
1 
MDAP[1]	/* MoveDirectAbsPt */
ELSE[ ]	/* Else */
PUSHB[ ]	/* 2 values pushed */
1 30 
MIAP[0]	/* MoveIndirectAbsPt */
EIF[ ]	/* EndIf */
PUSHB[ ]	/* 1 value pushed */
0 
RCVT[ ]	/* ReadCVT */
IF[ ]	/* If */
PUSHB[ ]	/* 1 value pushed */
0 
MDAP[1]	/* MoveDirectAbsPt */
ELSE[ ]	/* Else */
PUSHB[ ]	/* 2 values pushed */
0 18 
MIAP[0]	/* MoveIndirectAbsPt */
EIF[ ]	/* EndIf */
PUSHB[ ]	/* 1 value pushed */
1 
SRP0[ ]	/* SetRefPoint0 */
PUSHB[ ]	/* 2 values pushed */
12 1 
PUSHB[ ]	/* 1 value pushed */
10 
CALL[ ]	/* CallFunction */
IF[ ]	/* If */
POP[ ]	/* PopTopStack */
MDRP[11000]	/* MoveDirectRelPt */
ELSE[ ]	/* Else */
MIRP[10100]	/* MoveIndirectRelPt */
EIF[ ]	/* EndIf */
PUSHB[ ]	/* 1 value pushed */
0 
SRP0[ ]	/* SetRefPoint0 */
PUSHB[ ]	/* 2 values pushed */
13 1 
PUSHB[ ]	/* 1 value pushed */
10 
CALL[ ]	/* CallFunction */
IF[ ]	/* If */
POP[ ]	/* PopTopStack */
MDRP[11000]	/* MoveDirectRelPt */
ELSE[ ]	/* Else */
MIRP[10100]	/* MoveIndirectRelPt */
EIF[ ]	/* EndIf */
IUP[0]	/* InterpolateUntPts */
IUP[1]	/* InterpolateUntPts */";
};
width = 1343;
},
{
layerId = m002;
paths = (
{
closed = 1;
nodes = (
"572 0 LINE SMOOTH",
"1090 0 OFFCURVE",
"1222 362 OFFCURVE",
"1222 684 CURVE SMOOTH",
"1222 777 LINE SMOOTH",
"1222 1298 OFFCURVE",
"835 1456 OFFCURVE",
"580 1456 CURVE SMOOTH",
"169 1456 LINE",
"169 0 LINE"
);
},
{
closed = 1;
nodes = (
"361 1298 LINE",
"585 1298 LINE SMOOTH",
"870 1298 OFFCURVE",
"1032 1103.667 OFFCURVE",
"1032 773 CURVE SMOOTH",
"1032 688 LINE SMOOTH",
"1032 348 OFFCURVE",
"859 157 OFFCURVE",
"563 157 CURVE SMOOTH",
"361 157 LINE"
);
}
);
userData = {
assembly = "SVTCA[0]	/* SetFreedomAndProjectionVectorToAxis */
PUSHB[ ]	/* 1 value pushed */
0 
RCVT[ ]	/* ReadCVT */
IF[ ]	/* If */
PUSHB[ ]	/* 1 value pushed */
1 
MDAP[1]	/* MoveDirectAbsPt */
ELSE[ ]	/* Else */
PUSHB[ ]	/* 2 values pushed */
1 30 
MIAP[0]	/* MoveIndirectAbsPt */
EIF[ ]	/* EndIf */
PUSHB[ ]	/* 1 value pushed */
0 
RCVT[ ]	/* ReadCVT */
IF[ ]	/* If */
PUSHB[ ]	/* 1 value pushed */
0 
MDAP[1]	/* MoveDirectAbsPt */
ELSE[ ]	/* Else */
PUSHB[ ]	/* 2 values pushed */
0 18 
MIAP[0]	/* MoveIndirectAbsPt */
EIF[ ]	/* EndIf */
PUSHB[ ]	/* 1 value pushed */
1 
SRP0[ ]	/* SetRefPoint0 */
PUSHB[ ]	/* 2 values pushed */
12 1 
PUSHB[ ]	/* 1 value pushed */
10 
CALL[ ]	/* CallFunction */
IF[ ]	/* If */
POP[ ]	/* PopTopStack */
MDRP[11000]	/* MoveDirectRelPt */
ELSE[ ]	/* Else */
MIRP[10100]	/* MoveIndirectRelPt */
EIF[ ]	/* EndIf */
PUSHB[ ]	/* 1 value pushed */
0 
SRP0[ ]	/* SetRefPoint0 */
PUSHB[ ]	/* 2 values pushed */
13 1 
PUSHB[ ]	/* 1 value pushed */
10 
CALL[ ]	/* CallFunction */
IF[ ]	/* If */
POP[ ]	/* PopTopStack */
MDRP[11000]	/* MoveDirectRelPt */
ELSE[ ]	/* Else */
MIRP[10100]	/* MoveIndirectRelPt */
EIF[ ]	/* EndIf */
IUP[0]	/* InterpolateUntPts */
IUP[1]	/* InterpolateUntPts */";
};
width = 1343;
}
);
note = uni0044;
rightKerningGroup = D;
unicode = 0044;
},
{
glyphname = E;
lastChange = "2020-11-29 18:16:05 +0000";
layers = (
{
layerId = "A9B054E9-1A63-4AEF-9EE1-561B1DFE8422";
paths = (
{
closed = 1;
nodes = (
"1086 0 LINE",
"1086 54 LINE",
"254 54 LINE",
"254 722 LINE",
"984 722 LINE",
"984 776 LINE",
"254 776 LINE",
"254 1402 LINE",
"1086 1402 LINE",
"1086 1456 LINE",
"200 1456 LINE",
"200 0 LINE"
);
}
);
userData = {
assembly = "SVTCA[0]	/* SetFreedomAndProjectionVectorToAxis */
PUSHB[ ]	/* 1 value pushed */
0 
RCVT[ ]	/* ReadCVT */
IF[ ]	/* If */
PUSHB[ ]	/* 1 value pushed */
6 
MDAP[1]	/* MoveDirectAbsPt */
ELSE[ ]	/* Else */
PUSHB[ ]	/* 2 values pushed */
6 30 
MIAP[0]	/* MoveIndirectAbsPt */
EIF[ ]	/* EndIf */
PUSHB[ ]	/* 1 value pushed */
0 
RCVT[ ]	/* ReadCVT */
IF[ ]	/* If */
PUSHB[ ]	/* 1 value pushed */
4 
MDAP[1]	/* MoveDirectAbsPt */
ELSE[ ]	/* Else */
PUSHB[ ]	/* 2 values pushed */
4 18 
MIAP[0]	/* MoveIndirectAbsPt */
EIF[ ]	/* EndIf */
PUSHB[ ]	/* 3 values pushed */
11 4 6 
SRP1[ ]	/* SetRefPoint1 */
SRP2[ ]	/* SetRefPoint2 */
IP[ ]	/* InterpolatePts */
PUSHB[ ]	/* 1 value pushed */
11 
MDAP[1]	/* MoveDirectAbsPt */
PUSHB[ ]	/* 2 values pushed */
0 1 
PUSHB[ ]	/* 1 value pushed */
10 
CALL[ ]	/* CallFunction */
IF[ ]	/* If */
POP[ ]	/* PopTopStack */
MDRP[11000]	/* MoveDirectRelPt */
ELSE[ ]	/* Else */
MIRP[10100]	/* MoveIndirectRelPt */
EIF[ ]	/* EndIf */
PUSHB[ ]	/* 1 value pushed */
4 
SRP0[ ]	/* SetRefPoint0 */
PUSHB[ ]	/* 2 values pushed */
2 1 
PUSHB[ ]	/* 1 value pushed */
10 
CALL[ ]	/* CallFunction */
IF[ ]	/* If */
POP[ ]	/* PopTopStack */
MDRP[11000]	/* MoveDirectRelPt */
ELSE[ ]	/* Else */
MIRP[10100]	/* MoveIndirectRelPt */
EIF[ ]	/* EndIf */
PUSHB[ ]	/* 1 value pushed */
6 
SRP0[ ]	/* SetRefPoint0 */
PUSHB[ ]	/* 2 values pushed */
8 1 
PUSHB[ ]	/* 1 value pushed */
10 
CALL[ ]	/* CallFunction */
IF[ ]	/* If */
POP[ ]	/* PopTopStack */
MDRP[11000]	/* MoveDirectRelPt */
ELSE[ ]	/* Else */
MIRP[10100]	/* MoveIndirectRelPt */
EIF[ ]	/* EndIf */
IUP[0]	/* InterpolateUntPts */
IUP[1]	/* InterpolateUntPts */";
};
width = 1164;
},
{
layerId = m002;
paths = (
{
closed = 1;
nodes = (
"1094 0 LINE",
"1094 157 LINE",
"361 157 LINE",
"361 673 LINE",
"992 673 LINE",
"992 830 LINE",
"361 830 LINE",
"361 1298 LINE",
"1084 1298 LINE",
"1084 1456 LINE",
"169 1456 LINE",
"169 0 LINE"
);
}
);
userData = {
assembly = "SVTCA[0]	/* SetFreedomAndProjectionVectorToAxis */
PUSHB[ ]	/* 1 value pushed */
0 
RCVT[ ]	/* ReadCVT */
IF[ ]	/* If */
PUSHB[ ]	/* 1 value pushed */
6 
MDAP[1]	/* MoveDirectAbsPt */
ELSE[ ]	/* Else */
PUSHB[ ]	/* 2 values pushed */
6 30 
MIAP[0]	/* MoveIndirectAbsPt */
EIF[ ]	/* EndIf */
PUSHB[ ]	/* 1 value pushed */
0 
RCVT[ ]	/* ReadCVT */
IF[ ]	/* If */
PUSHB[ ]	/* 1 value pushed */
4 
MDAP[1]	/* MoveDirectAbsPt */
ELSE[ ]	/* Else */
PUSHB[ ]	/* 2 values pushed */
4 18 
MIAP[0]	/* MoveIndirectAbsPt */
EIF[ ]	/* EndIf */
PUSHB[ ]	/* 3 values pushed */
11 4 6 
SRP1[ ]	/* SetRefPoint1 */
SRP2[ ]	/* SetRefPoint2 */
IP[ ]	/* InterpolatePts */
PUSHB[ ]	/* 1 value pushed */
11 
MDAP[1]	/* MoveDirectAbsPt */
PUSHB[ ]	/* 2 values pushed */
0 1 
PUSHB[ ]	/* 1 value pushed */
10 
CALL[ ]	/* CallFunction */
IF[ ]	/* If */
POP[ ]	/* PopTopStack */
MDRP[11000]	/* MoveDirectRelPt */
ELSE[ ]	/* Else */
MIRP[10100]	/* MoveIndirectRelPt */
EIF[ ]	/* EndIf */
PUSHB[ ]	/* 1 value pushed */
4 
SRP0[ ]	/* SetRefPoint0 */
PUSHB[ ]	/* 2 values pushed */
2 1 
PUSHB[ ]	/* 1 value pushed */
10 
CALL[ ]	/* CallFunction */
IF[ ]	/* If */
POP[ ]	/* PopTopStack */
MDRP[11000]	/* MoveDirectRelPt */
ELSE[ ]	/* Else */
MIRP[10100]	/* MoveIndirectRelPt */
EIF[ ]	/* EndIf */
PUSHB[ ]	/* 1 value pushed */
6 
SRP0[ ]	/* SetRefPoint0 */
PUSHB[ ]	/* 2 values pushed */
8 1 
PUSHB[ ]	/* 1 value pushed */
10 
CALL[ ]	/* CallFunction */
IF[ ]	/* If */
POP[ ]	/* PopTopStack */
MDRP[11000]	/* MoveDirectRelPt */
ELSE[ ]	/* Else */
MIRP[10100]	/* MoveIndirectRelPt */
EIF[ ]	/* EndIf */
IUP[0]	/* InterpolateUntPts */
IUP[1]	/* InterpolateUntPts */";
};
width = 1164;
}
);
note = uni0045;
rightKerningGroup = E;
unicode = 0045;
},
{
glyphname = F;
lastChange = "2020-11-29 18:16:05 +0000";
layers = (
{
layerId = "A9B054E9-1A63-4AEF-9EE1-561B1DFE8422";
paths = (
{
closed = 1;
nodes = (
"254 0 LINE",
"254 716 LINE",
"1000 716 LINE",
"1000 772 LINE",
"254 772 LINE",
"254 1402 LINE",
"1102 1402 LINE",
"1102 1456 LINE",
"200 1456 LINE",
"200 0 LINE"
);
}
);
userData = {
assembly = "SVTCA[0]	/* SetFreedomAndProjectionVectorToAxis */
PUSHB[ ]	/* 1 value pushed */
0 
RCVT[ ]	/* ReadCVT */
IF[ ]	/* If */
PUSHB[ ]	/* 1 value pushed */
4 
MDAP[1]	/* MoveDirectAbsPt */
ELSE[ ]	/* Else */
PUSHB[ ]	/* 2 values pushed */
4 30 
MIAP[0]	/* MoveIndirectAbsPt */
EIF[ ]	/* EndIf */
PUSHB[ ]	/* 1 value pushed */
0 
RCVT[ ]	/* ReadCVT */
IF[ ]	/* If */
PUSHB[ ]	/* 1 value pushed */
2 
MDAP[1]	/* MoveDirectAbsPt */
ELSE[ ]	/* Else */
PUSHB[ ]	/* 2 values pushed */
2 18 
MIAP[0]	/* MoveIndirectAbsPt */
EIF[ ]	/* EndIf */
PUSHB[ ]	/* 3 values pushed */
9 2 4 
SRP1[ ]	/* SetRefPoint1 */
SRP2[ ]	/* SetRefPoint2 */
IP[ ]	/* InterpolatePts */
PUSHB[ ]	/* 1 value pushed */
9 
MDAP[1]	/* MoveDirectAbsPt */
PUSHB[ ]	/* 2 values pushed */
0 1 
PUSHB[ ]	/* 1 value pushed */
10 
CALL[ ]	/* CallFunction */
IF[ ]	/* If */
POP[ ]	/* PopTopStack */
MDRP[11000]	/* MoveDirectRelPt */
ELSE[ ]	/* Else */
MIRP[10100]	/* MoveIndirectRelPt */
EIF[ ]	/* EndIf */
PUSHB[ ]	/* 1 value pushed */
4 
SRP0[ ]	/* SetRefPoint0 */
PUSHB[ ]	/* 2 values pushed */
6 1 
PUSHB[ ]	/* 1 value pushed */
10 
CALL[ ]	/* CallFunction */
IF[ ]	/* If */
POP[ ]	/* PopTopStack */
MDRP[11000]	/* MoveDirectRelPt */
ELSE[ ]	/* Else */
MIRP[10100]	/* MoveIndirectRelPt */
EIF[ ]	/* EndIf */
IUP[0]	/* InterpolateUntPts */
IUP[1]	/* InterpolateUntPts */";
};
width = 1132;
},
{
layerId = m002;
paths = (
{
closed = 1;
nodes = (
"361 0 LINE",
"361 643 LINE",
"972 643 LINE",
"972 800 LINE",
"361 800 LINE",
"361 1298 LINE",
"1071 1298 LINE",
"1071 1456 LINE",
"169 1456 LINE",
"169 0 LINE"
);
}
);
userData = {
assembly = "SVTCA[0]	/* SetFreedomAndProjectionVectorToAxis */
PUSHB[ ]	/* 1 value pushed */
0 
RCVT[ ]	/* ReadCVT */
IF[ ]	/* If */
PUSHB[ ]	/* 1 value pushed */
4 
MDAP[1]	/* MoveDirectAbsPt */
ELSE[ ]	/* Else */
PUSHB[ ]	/* 2 values pushed */
4 30 
MIAP[0]	/* MoveIndirectAbsPt */
EIF[ ]	/* EndIf */
PUSHB[ ]	/* 1 value pushed */
0 
RCVT[ ]	/* ReadCVT */
IF[ ]	/* If */
PUSHB[ ]	/* 1 value pushed */
2 
MDAP[1]	/* MoveDirectAbsPt */
ELSE[ ]	/* Else */
PUSHB[ ]	/* 2 values pushed */
2 18 
MIAP[0]	/* MoveIndirectAbsPt */
EIF[ ]	/* EndIf */
PUSHB[ ]	/* 3 values pushed */
9 2 4 
SRP1[ ]	/* SetRefPoint1 */
SRP2[ ]	/* SetRefPoint2 */
IP[ ]	/* InterpolatePts */
PUSHB[ ]	/* 1 value pushed */
9 
MDAP[1]	/* MoveDirectAbsPt */
PUSHB[ ]	/* 2 values pushed */
0 1 
PUSHB[ ]	/* 1 value pushed */
10 
CALL[ ]	/* CallFunction */
IF[ ]	/* If */
POP[ ]	/* PopTopStack */
MDRP[11000]	/* MoveDirectRelPt */
ELSE[ ]	/* Else */
MIRP[10100]	/* MoveIndirectRelPt */
EIF[ ]	/* EndIf */
PUSHB[ ]	/* 1 value pushed */
4 
SRP0[ ]	/* SetRefPoint0 */
PUSHB[ ]	/* 2 values pushed */
6 1 
PUSHB[ ]	/* 1 value pushed */
10 
CALL[ ]	/* CallFunction */
IF[ ]	/* If */
POP[ ]	/* PopTopStack */
MDRP[11000]	/* MoveDirectRelPt */
ELSE[ ]	/* Else */
MIRP[10100]	/* MoveIndirectRelPt */
EIF[ ]	/* EndIf */
IUP[0]	/* InterpolateUntPts */
IUP[1]	/* InterpolateUntPts */";
};
width = 1132;
}
);
note = uni0046;
unicode = 0046;
},
{
glyphname = G;
lastChange = "2020-11-29 18:16:05 +0000";
layers = (
{
layerId = "A9B054E9-1A63-4AEF-9EE1-561B1DFE8422";
paths = (
{
closed = 1;
nodes = (
"923 -20 OFFCURVE",
"1126 55 OFFCURVE",
"1199 156 CURVE",
"1199 660 LINE",
"700 660 LINE",
"700 605 LINE",
"1145 605 LINE",
"1145 181 LINE",
"1082 100 OFFCURVE",
"897 34 OFFCURVE",
"702 34 CURVE SMOOTH",
"378 34 OFFCURVE",
"195 298 OFFCURVE",
"195 620 CURVE SMOOTH",
"195 852 LINE SMOOTH",
"195 1193 OFFCURVE",
"392 1422 OFFCURVE",
"685 1422 CURVE SMOOTH",
"945 1422 OFFCURVE",
"1107 1294 OFFCURVE",
"1143 1062 CURVE",
"1197 1062 LINE",
"1168 1318 OFFCURVE",
"974 1476 OFFCURVE",
"685 1476 CURVE SMOOTH",
"294 1474 OFFCURVE",
"141 1225 OFFCURVE",
"141 858 CURVE SMOOTH",
"141 608 LINE SMOOTH",
"141 365 OFFCURVE",
"244 164 OFFCURVE",
"413 59 CURVE SMOOTH",
"498 6 OFFCURVE",
"594 -20 OFFCURVE",
"702 -20 CURVE SMOOTH"
);
}
);
userData = {
assembly = "SVTCA[0]	/* SetFreedomAndProjectionVectorToAxis */
PUSHB[ ]	/* 1 value pushed */
0 
RCVT[ ]	/* ReadCVT */
IF[ ]	/* If */
PUSHB[ ]	/* 1 value pushed */
11 
MDAP[1]	/* MoveDirectAbsPt */
ELSE[ ]	/* Else */
PUSHB[ ]	/* 2 values pushed */
11 30 
MIAP[0]	/* MoveIndirectAbsPt */
EIF[ ]	/* EndIf */
PUSHB[ ]	/* 1 value pushed */
0 
RCVT[ ]	/* ReadCVT */
IF[ ]	/* If */
PUSHB[ ]	/* 1 value pushed */
3 
MDAP[1]	/* MoveDirectAbsPt */
ELSE[ ]	/* Else */
PUSHB[ ]	/* 2 values pushed */
3 18 
MIAP[0]	/* MoveIndirectAbsPt */
EIF[ ]	/* EndIf */
PUSHB[ ]	/* 1 value pushed */
11 
SRP0[ ]	/* SetRefPoint0 */
PUSHB[ ]	/* 1 value pushed */
15 
MDRP[10000]	/* MoveDirectRelPt */
PUSHB[ ]	/* 1 value pushed */
11 
SRP0[ ]	/* SetRefPoint0 */
PUSHB[ ]	/* 2 values pushed */
17 1 
PUSHB[ ]	/* 1 value pushed */
10 
CALL[ ]	/* CallFunction */
IF[ ]	/* If */
POP[ ]	/* PopTopStack */
MDRP[11000]	/* MoveDirectRelPt */
ELSE[ ]	/* Else */
MIRP[10100]	/* MoveIndirectRelPt */
EIF[ ]	/* EndIf */
PUSHB[ ]	/* 1 value pushed */
3 
SRP0[ ]	/* SetRefPoint0 */
PUSHB[ ]	/* 2 values pushed */
24 1 
PUSHB[ ]	/* 1 value pushed */
10 
CALL[ ]	/* CallFunction */
IF[ ]	/* If */
POP[ ]	/* PopTopStack */
MDRP[11000]	/* MoveDirectRelPt */
ELSE[ ]	/* Else */
MIRP[10100]	/* MoveIndirectRelPt */
EIF[ ]	/* EndIf */
PUSHB[ ]	/* 3 values pushed */
30 3 11 
SRP1[ ]	/* SetRefPoint1 */
SRP2[ ]	/* SetRefPoint2 */
IP[ ]	/* InterpolatePts */
PUSHB[ ]	/* 1 value pushed */
30 
MDAP[1]	/* MoveDirectAbsPt */
PUSHB[ ]	/* 5 values pushed */
191 30 207 30 2 
DELTAP1[ ]	/* DeltaExceptionP1 */
PUSHB[ ]	/* 5 values pushed */
15 30 31 30 2 
DELTAP1[ ]	/* DeltaExceptionP1 */
PUSHB[ ]	/* 5 values pushed */
63 30 79 30 2 
DELTAP1[ ]	/* DeltaExceptionP1 */
PUSHB[ ]	/* 2 values pushed */
29 1 
PUSHB[ ]	/* 1 value pushed */
10 
CALL[ ]	/* CallFunction */
IF[ ]	/* If */
POP[ ]	/* PopTopStack */
MDRP[11000]	/* MoveDirectRelPt */
ELSE[ ]	/* Else */
MIRP[10100]	/* MoveIndirectRelPt */
EIF[ ]	/* EndIf */
IUP[0]	/* InterpolateUntPts */
IUP[1]	/* InterpolateUntPts */";
};
width = 1395;
},
{
layerId = m002;
paths = (
{
closed = 1;
nodes = (
"955 -20 OFFCURVE",
"1136 50 OFFCURVE",
"1235 191 CURVE",
"1235 725 LINE",
"707 725 LINE",
"707 569 LINE",
"1044 569 LINE",
"1044 242 LINE",
"973 166 OFFCURVE",
"865 137 OFFCURVE",
"721 137 CURVE SMOOTH",
"466 137 OFFCURVE",
"306 344 OFFCURVE",
"306 671 CURVE SMOOTH",
"306 790 LINE SMOOTH",
"307 1133 OFFCURVE",
"442 1318 OFFCURVE",
"699 1318 CURVE SMOOTH",
"892 1318 OFFCURVE",
"1007 1222 OFFCURVE",
"1043 1029 CURVE",
"1235 1029 LINE",
"1194 1314 OFFCURVE",
"1002 1476 OFFCURVE",
"698 1476 CURVE SMOOTH",
"327 1476 OFFCURVE",
"113 1224 OFFCURVE",
"113 785 CURVE SMOOTH",
"113 658 LINE SMOOTH",
"116 387 OFFCURVE",
"220 175 OFFCURVE",
"404 64 CURVE SMOOTH",
"496 8 OFFCURVE",
"601 -20 OFFCURVE",
"720 -20 CURVE SMOOTH"
);
}
);
userData = {
assembly = "SVTCA[0]	/* SetFreedomAndProjectionVectorToAxis */
PUSHB[ ]	/* 1 value pushed */
0 
RCVT[ ]	/* ReadCVT */
IF[ ]	/* If */
PUSHB[ ]	/* 1 value pushed */
11 
MDAP[1]	/* MoveDirectAbsPt */
ELSE[ ]	/* Else */
PUSHB[ ]	/* 2 values pushed */
11 30 
MIAP[0]	/* MoveIndirectAbsPt */
EIF[ ]	/* EndIf */
PUSHB[ ]	/* 1 value pushed */
0 
RCVT[ ]	/* ReadCVT */
IF[ ]	/* If */
PUSHB[ ]	/* 1 value pushed */
3 
MDAP[1]	/* MoveDirectAbsPt */
ELSE[ ]	/* Else */
PUSHB[ ]	/* 2 values pushed */
3 18 
MIAP[0]	/* MoveIndirectAbsPt */
EIF[ ]	/* EndIf */
PUSHB[ ]	/* 1 value pushed */
11 
SRP0[ ]	/* SetRefPoint0 */
PUSHB[ ]	/* 1 value pushed */
15 
MDRP[10000]	/* MoveDirectRelPt */
PUSHB[ ]	/* 1 value pushed */
11 
SRP0[ ]	/* SetRefPoint0 */
PUSHB[ ]	/* 2 values pushed */
17 1 
PUSHB[ ]	/* 1 value pushed */
10 
CALL[ ]	/* CallFunction */
IF[ ]	/* If */
POP[ ]	/* PopTopStack */
MDRP[11000]	/* MoveDirectRelPt */
ELSE[ ]	/* Else */
MIRP[10100]	/* MoveIndirectRelPt */
EIF[ ]	/* EndIf */
PUSHB[ ]	/* 1 value pushed */
3 
SRP0[ ]	/* SetRefPoint0 */
PUSHB[ ]	/* 2 values pushed */
24 1 
PUSHB[ ]	/* 1 value pushed */
10 
CALL[ ]	/* CallFunction */
IF[ ]	/* If */
POP[ ]	/* PopTopStack */
MDRP[11000]	/* MoveDirectRelPt */
ELSE[ ]	/* Else */
MIRP[10100]	/* MoveIndirectRelPt */
EIF[ ]	/* EndIf */
PUSHB[ ]	/* 3 values pushed */
30 3 11 
SRP1[ ]	/* SetRefPoint1 */
SRP2[ ]	/* SetRefPoint2 */
IP[ ]	/* InterpolatePts */
PUSHB[ ]	/* 1 value pushed */
30 
MDAP[1]	/* MoveDirectAbsPt */
PUSHB[ ]	/* 5 values pushed */
191 30 207 30 2 
DELTAP1[ ]	/* DeltaExceptionP1 */
PUSHB[ ]	/* 5 values pushed */
15 30 31 30 2 
DELTAP1[ ]	/* DeltaExceptionP1 */
PUSHB[ ]	/* 5 values pushed */
63 30 79 30 2 
DELTAP1[ ]	/* DeltaExceptionP1 */
PUSHB[ ]	/* 2 values pushed */
29 1 
PUSHB[ ]	/* 1 value pushed */
10 
CALL[ ]	/* CallFunction */
IF[ ]	/* If */
POP[ ]	/* PopTopStack */
MDRP[11000]	/* MoveDirectRelPt */
ELSE[ ]	/* Else */
MIRP[10100]	/* MoveIndirectRelPt */
EIF[ ]	/* EndIf */
IUP[0]	/* InterpolateUntPts */
IUP[1]	/* InterpolateUntPts */";
};
width = 1395;
}
);
leftKerningGroup = C;
note = uni0047;
unicode = 0047;
},
{
glyphname = H;
lastChange = "2020-11-29 18:16:05 +0000";
layers = (
{
layerId = "A9B054E9-1A63-4AEF-9EE1-561B1DFE8422";
paths = (
{
closed = 1;
nodes = (
"254 0 LINE",
"254 722 LINE",
"1184 722 LINE",
"1184 0 LINE",
"1238 0 LINE",
"1238 1456 LINE",
"1184 1456 LINE",
"1184 776 LINE",
"254 776 LINE",
"254 1456 LINE",
"200 1456 LINE",
"200 0 LINE"
);
}
);
userData = {
assembly = "SVTCA[0]	/* SetFreedomAndProjectionVectorToAxis */
PUSHB[ ]	/* 1 value pushed */
0 
RCVT[ ]	/* ReadCVT */
IF[ ]	/* If */
PUSHB[ ]	/* 1 value pushed */
6 
MDAP[1]	/* MoveDirectAbsPt */
ELSE[ ]	/* Else */
PUSHB[ ]	/* 2 values pushed */
6 30 
MIAP[0]	/* MoveIndirectAbsPt */
EIF[ ]	/* EndIf */
PUSHB[ ]	/* 1 value pushed */
0 
RCVT[ ]	/* ReadCVT */
IF[ ]	/* If */
PUSHB[ ]	/* 1 value pushed */
10 
MDAP[1]	/* MoveDirectAbsPt */
ELSE[ ]	/* Else */
PUSHB[ ]	/* 2 values pushed */
10 30 
MIAP[0]	/* MoveIndirectAbsPt */
EIF[ ]	/* EndIf */
PUSHB[ ]	/* 1 value pushed */
0 
RCVT[ ]	/* ReadCVT */
IF[ ]	/* If */
PUSHB[ ]	/* 1 value pushed */
0 
MDAP[1]	/* MoveDirectAbsPt */
ELSE[ ]	/* Else */
PUSHB[ ]	/* 2 values pushed */
0 18 
MIAP[0]	/* MoveIndirectAbsPt */
EIF[ ]	/* EndIf */
PUSHB[ ]	/* 1 value pushed */
0 
RCVT[ ]	/* ReadCVT */
IF[ ]	/* If */
PUSHB[ ]	/* 1 value pushed */
4 
MDAP[1]	/* MoveDirectAbsPt */
ELSE[ ]	/* Else */
PUSHB[ ]	/* 2 values pushed */
4 18 
MIAP[0]	/* MoveIndirectAbsPt */
EIF[ ]	/* EndIf */
PUSHB[ ]	/* 1 value pushed */
0 
SRP0[ ]	/* SetRefPoint0 */
PUSHB[ ]	/* 1 value pushed */
9 
MDRP[10000]	/* MoveDirectRelPt */
PUSHB[ ]	/* 1 value pushed */
9 
MDAP[1]	/* MoveDirectAbsPt */
PUSHB[ ]	/* 3 values pushed */
239 9 1 
DELTAP1[ ]	/* DeltaExceptionP1 */
PUSHB[ ]	/* 5 values pushed */
207 9 223 9 2 
DELTAP2[ ]	/* DeltaExceptionP2 */
PUSHB[ ]	/* 3 values pushed */
143 9 1 
DELTAP2[ ]	/* DeltaExceptionP2 */
PUSHB[ ]	/* 3 values pushed */
47 9 1 
DELTAP1[ ]	/* DeltaExceptionP1 */
PUSHB[ ]	/* 3 values pushed */
159 9 1 
DELTAP3[ ]	/* DeltaExceptionP3 */
PUSHB[ ]	/* 2 values pushed */
2 1 
PUSHB[ ]	/* 1 value pushed */
10 
CALL[ ]	/* CallFunction */
IF[ ]	/* If */
POP[ ]	/* PopTopStack */
MDRP[11000]	/* MoveDirectRelPt */
ELSE[ ]	/* Else */
MIRP[10100]	/* MoveIndirectRelPt */
EIF[ ]	/* EndIf */
IUP[0]	/* InterpolateUntPts */
IUP[1]	/* InterpolateUntPts */";
};
width = 1460;
},
{
layerId = m002;
paths = (
{
closed = 1;
nodes = (
"361 0 LINE",
"361 673 LINE",
"1095 673 LINE",
"1095 0 LINE",
"1288 0 LINE",
"1288 1456 LINE",
"1095 1456 LINE",
"1095 830 LINE",
"361 830 LINE",
"361 1456 LINE",
"169 1456 LINE",
"169 0 LINE"
);
}
);
userData = {
assembly = "SVTCA[0]	/* SetFreedomAndProjectionVectorToAxis */
PUSHB[ ]	/* 1 value pushed */
0 
RCVT[ ]	/* ReadCVT */
IF[ ]	/* If */
PUSHB[ ]	/* 1 value pushed */
6 
MDAP[1]	/* MoveDirectAbsPt */
ELSE[ ]	/* Else */
PUSHB[ ]	/* 2 values pushed */
6 30 
MIAP[0]	/* MoveIndirectAbsPt */
EIF[ ]	/* EndIf */
PUSHB[ ]	/* 1 value pushed */
0 
RCVT[ ]	/* ReadCVT */
IF[ ]	/* If */
PUSHB[ ]	/* 1 value pushed */
10 
MDAP[1]	/* MoveDirectAbsPt */
ELSE[ ]	/* Else */
PUSHB[ ]	/* 2 values pushed */
10 30 
MIAP[0]	/* MoveIndirectAbsPt */
EIF[ ]	/* EndIf */
PUSHB[ ]	/* 1 value pushed */
0 
RCVT[ ]	/* ReadCVT */
IF[ ]	/* If */
PUSHB[ ]	/* 1 value pushed */
0 
MDAP[1]	/* MoveDirectAbsPt */
ELSE[ ]	/* Else */
PUSHB[ ]	/* 2 values pushed */
0 18 
MIAP[0]	/* MoveIndirectAbsPt */
EIF[ ]	/* EndIf */
PUSHB[ ]	/* 1 value pushed */
0 
RCVT[ ]	/* ReadCVT */
IF[ ]	/* If */
PUSHB[ ]	/* 1 value pushed */
4 
MDAP[1]	/* MoveDirectAbsPt */
ELSE[ ]	/* Else */
PUSHB[ ]	/* 2 values pushed */
4 18 
MIAP[0]	/* MoveIndirectAbsPt */
EIF[ ]	/* EndIf */
PUSHB[ ]	/* 1 value pushed */
0 
SRP0[ ]	/* SetRefPoint0 */
PUSHB[ ]	/* 1 value pushed */
9 
MDRP[10000]	/* MoveDirectRelPt */
PUSHB[ ]	/* 1 value pushed */
9 
MDAP[1]	/* MoveDirectAbsPt */
PUSHB[ ]	/* 3 values pushed */
239 9 1 
DELTAP1[ ]	/* DeltaExceptionP1 */
PUSHB[ ]	/* 5 values pushed */
207 9 223 9 2 
DELTAP2[ ]	/* DeltaExceptionP2 */
PUSHB[ ]	/* 3 values pushed */
143 9 1 
DELTAP2[ ]	/* DeltaExceptionP2 */
PUSHB[ ]	/* 3 values pushed */
47 9 1 
DELTAP1[ ]	/* DeltaExceptionP1 */
PUSHB[ ]	/* 3 values pushed */
159 9 1 
DELTAP3[ ]	/* DeltaExceptionP3 */
PUSHB[ ]	/* 2 values pushed */
2 1 
PUSHB[ ]	/* 1 value pushed */
10 
CALL[ ]	/* CallFunction */
IF[ ]	/* If */
POP[ ]	/* PopTopStack */
MDRP[11000]	/* MoveDirectRelPt */
ELSE[ ]	/* Else */
MIRP[10100]	/* MoveIndirectRelPt */
EIF[ ]	/* EndIf */
IUP[0]	/* InterpolateUntPts */
IUP[1]	/* InterpolateUntPts */";
};
width = 1460;
}
);
note = uni0048;
rightKerningGroup = H;
unicode = 0048;
},
{
glyphname = I;
lastChange = "2020-11-29 18:16:05 +0000";
layers = (
{
layerId = "A9B054E9-1A63-4AEF-9EE1-561B1DFE8422";
paths = (
{
closed = 1;
nodes = (
"294 0 LINE",
"294 1456 LINE",
"240 1456 LINE",
"240 0 LINE"
);
}
);
userData = {
assembly = "SVTCA[0]	/* SetFreedomAndProjectionVectorToAxis */
PUSHB[ ]	/* 1 value pushed */
0 
RCVT[ ]	/* ReadCVT */
IF[ ]	/* If */
PUSHB[ ]	/* 1 value pushed */
2 
MDAP[1]	/* MoveDirectAbsPt */
ELSE[ ]	/* Else */
PUSHB[ ]	/* 2 values pushed */
2 30 
MIAP[0]	/* MoveIndirectAbsPt */
EIF[ ]	/* EndIf */
PUSHB[ ]	/* 1 value pushed */
0 
RCVT[ ]	/* ReadCVT */
IF[ ]	/* If */
PUSHB[ ]	/* 1 value pushed */
0 
MDAP[1]	/* MoveDirectAbsPt */
ELSE[ ]	/* Else */
PUSHB[ ]	/* 2 values pushed */
0 18 
MIAP[0]	/* MoveIndirectAbsPt */
EIF[ ]	/* EndIf */
IUP[0]	/* InterpolateUntPts */
IUP[1]	/* InterpolateUntPts */";
};
width = 557;
},
{
layerId = m002;
paths = (
{
closed = 1;
nodes = (
"375 0 LINE",
"375 1456 LINE",
"183 1456 LINE",
"183 0 LINE"
);
}
);
userData = {
assembly = "SVTCA[0]	/* SetFreedomAndProjectionVectorToAxis */
PUSHB[ ]	/* 1 value pushed */
0 
RCVT[ ]	/* ReadCVT */
IF[ ]	/* If */
PUSHB[ ]	/* 1 value pushed */
2 
MDAP[1]	/* MoveDirectAbsPt */
ELSE[ ]	/* Else */
PUSHB[ ]	/* 2 values pushed */
2 30 
MIAP[0]	/* MoveIndirectAbsPt */
EIF[ ]	/* EndIf */
PUSHB[ ]	/* 1 value pushed */
0 
RCVT[ ]	/* ReadCVT */
IF[ ]	/* If */
PUSHB[ ]	/* 1 value pushed */
0 
MDAP[1]	/* MoveDirectAbsPt */
ELSE[ ]	/* Else */
PUSHB[ ]	/* 2 values pushed */
0 18 
MIAP[0]	/* MoveIndirectAbsPt */
EIF[ ]	/* EndIf */
IUP[0]	/* InterpolateUntPts */
IUP[1]	/* InterpolateUntPts */";
};
width = 557;
}
);
note = uni0049;
rightKerningGroup = H;
unicode = 0049;
},
{
glyphname = J;
lastChange = "2020-11-29 18:16:05 +0000";
layers = (
{
layerId = "A9B054E9-1A63-4AEF-9EE1-561B1DFE8422";
paths = (
{
closed = 1;
nodes = (
"763.333 -20 OFFCURVE",
"930 160.667 OFFCURVE",
"930 442 CURVE SMOOTH",
"930 1456 LINE",
"876 1456 LINE",
"876 432 LINE SMOOTH",
"872 186.667 OFFCURVE",
"723.333 34 OFFCURVE",
"510 34 CURVE SMOOTH",
"266 34 OFFCURVE",
"144 163.667 OFFCURVE",
"144 401 CURVE",
"90 401 LINE",
"90 130.333 OFFCURVE",
"238 -20 OFFCURVE",
"510 -20 CURVE SMOOTH"
);
}
);
userData = {
assembly = "SVTCA[0]	/* SetFreedomAndProjectionVectorToAxis */
PUSHB[ ]	/* 1 value pushed */
0 
RCVT[ ]	/* ReadCVT */
IF[ ]	/* If */
PUSHB[ ]	/* 1 value pushed */
0 
MDAP[1]	/* MoveDirectAbsPt */
ELSE[ ]	/* Else */
PUSHB[ ]	/* 2 values pushed */
0 30 
MIAP[0]	/* MoveIndirectAbsPt */
EIF[ ]	/* EndIf */
PUSHB[ ]	/* 1 value pushed */
0 
RCVT[ ]	/* ReadCVT */
IF[ ]	/* If */
PUSHB[ ]	/* 1 value pushed */
5 
MDAP[1]	/* MoveDirectAbsPt */
ELSE[ ]	/* Else */
PUSHB[ ]	/* 2 values pushed */
5 18 
MIAP[0]	/* MoveIndirectAbsPt */
EIF[ ]	/* EndIf */
PUSHB[ ]	/* 1 value pushed */
9 
MDRP[10000]	/* MoveDirectRelPt */
PUSHB[ ]	/* 1 value pushed */
5 
SRP0[ ]	/* SetRefPoint0 */
PUSHB[ ]	/* 2 values pushed */
12 1 
PUSHB[ ]	/* 1 value pushed */
10 
CALL[ ]	/* CallFunction */
IF[ ]	/* If */
POP[ ]	/* PopTopStack */
MDRP[11000]	/* MoveDirectRelPt */
ELSE[ ]	/* Else */
MIRP[10100]	/* MoveIndirectRelPt */
EIF[ ]	/* EndIf */
IUP[0]	/* InterpolateUntPts */
IUP[1]	/* InterpolateUntPts */";
};
width = 1130;
},
{
layerId = m002;
paths = (
{
closed = 1;
nodes = (
"790.667 -20 OFFCURVE",
"972 146.333 OFFCURVE",
"972 425 CURVE SMOOTH",
"972 1456 LINE",
"779 1456 LINE",
"779 422 LINE SMOOTH",
"777.667 242 OFFCURVE",
"670.667 137 OFFCURVE",
"512 137 CURVE SMOOTH",
"338.667 137 OFFCURVE",
"245 235.333 OFFCURVE",
"245 402 CURVE",
"53 402 LINE",
"53 135.333 OFFCURVE",
"222.667 -20 OFFCURVE",
"512 -20 CURVE SMOOTH"
);
}
);
userData = {
assembly = "SVTCA[0]	/* SetFreedomAndProjectionVectorToAxis */
PUSHB[ ]	/* 1 value pushed */
0 
RCVT[ ]	/* ReadCVT */
IF[ ]	/* If */
PUSHB[ ]	/* 1 value pushed */
0 
MDAP[1]	/* MoveDirectAbsPt */
ELSE[ ]	/* Else */
PUSHB[ ]	/* 2 values pushed */
0 30 
MIAP[0]	/* MoveIndirectAbsPt */
EIF[ ]	/* EndIf */
PUSHB[ ]	/* 1 value pushed */
0 
RCVT[ ]	/* ReadCVT */
IF[ ]	/* If */
PUSHB[ ]	/* 1 value pushed */
5 
MDAP[1]	/* MoveDirectAbsPt */
ELSE[ ]	/* Else */
PUSHB[ ]	/* 2 values pushed */
5 18 
MIAP[0]	/* MoveIndirectAbsPt */
EIF[ ]	/* EndIf */
PUSHB[ ]	/* 1 value pushed */
9 
MDRP[10000]	/* MoveDirectRelPt */
PUSHB[ ]	/* 1 value pushed */
5 
SRP0[ ]	/* SetRefPoint0 */
PUSHB[ ]	/* 2 values pushed */
12 1 
PUSHB[ ]	/* 1 value pushed */
10 
CALL[ ]	/* CallFunction */
IF[ ]	/* If */
POP[ ]	/* PopTopStack */
MDRP[11000]	/* MoveDirectRelPt */
ELSE[ ]	/* Else */
MIRP[10100]	/* MoveIndirectRelPt */
EIF[ ]	/* EndIf */
IUP[0]	/* InterpolateUntPts */
IUP[1]	/* InterpolateUntPts */";
};
width = 1130;
}
);
leftKerningGroup = J;
note = uni004A;
rightKerningGroup = J;
unicode = 004A;
},
{
glyphname = K;
lastChange = "2020-11-29 18:16:05 +0000";
layers = (
{
layerId = "A9B054E9-1A63-4AEF-9EE1-561B1DFE8422";
paths = (
{
closed = 1;
nodes = (
"254 0 LINE",
"254 551 LINE",
"487 766 LINE",
"1156 0 LINE",
"1226 0 LINE",
"527 803 LINE",
"1176 1456 LINE",
"1098 1456 LINE",
"254 614 LINE",
"254 1456 LINE",
"200 1456 LINE",
"200 0 LINE"
);
}
);
userData = {
assembly = "SVTCA[0]	/* SetFreedomAndProjectionVectorToAxis */
PUSHB[ ]	/* 1 value pushed */
0 
RCVT[ ]	/* ReadCVT */
IF[ ]	/* If */
PUSHB[ ]	/* 1 value pushed */
5 
MDAP[1]	/* MoveDirectAbsPt */
ELSE[ ]	/* Else */
PUSHB[ ]	/* 2 values pushed */
5 30 
MIAP[0]	/* MoveIndirectAbsPt */
EIF[ ]	/* EndIf */
PUSHB[ ]	/* 1 value pushed */
0 
RCVT[ ]	/* ReadCVT */
IF[ ]	/* If */
PUSHB[ ]	/* 1 value pushed */
7 
MDAP[1]	/* MoveDirectAbsPt */
ELSE[ ]	/* Else */
PUSHB[ ]	/* 2 values pushed */
7 30 
MIAP[0]	/* MoveIndirectAbsPt */
EIF[ ]	/* EndIf */
PUSHB[ ]	/* 1 value pushed */
0 
RCVT[ ]	/* ReadCVT */
IF[ ]	/* If */
PUSHB[ ]	/* 1 value pushed */
2 
MDAP[1]	/* MoveDirectAbsPt */
ELSE[ ]	/* Else */
PUSHB[ ]	/* 2 values pushed */
2 18 
MIAP[0]	/* MoveIndirectAbsPt */
EIF[ ]	/* EndIf */
PUSHB[ ]	/* 1 value pushed */
0 
RCVT[ ]	/* ReadCVT */
IF[ ]	/* If */
PUSHB[ ]	/* 1 value pushed */
11 
MDAP[1]	/* MoveDirectAbsPt */
ELSE[ ]	/* Else */
PUSHB[ ]	/* 2 values pushed */
11 18 
MIAP[0]	/* MoveIndirectAbsPt */
EIF[ ]	/* EndIf */
PUSHB[ ]	/* 3 values pushed */
0 2 5 
SRP1[ ]	/* SetRefPoint1 */
SRP2[ ]	/* SetRefPoint2 */
IP[ ]	/* InterpolatePts */
NPUSHB[ ]	/* 17 values pushed */
74 0 90 0 106 0 122 0 138 0 154 0 170 0 186 0 8 
DELTAP1[ ]	/* DeltaExceptionP1 */
PUSHB[ ]	/* 3 values pushed */
57 0 1 
DELTAP1[ ]	/* DeltaExceptionP1 */
PUSHB[ ]	/* 3 values pushed */
6 5 2 
SRP1[ ]	/* SetRefPoint1 */
SRP2[ ]	/* SetRefPoint2 */
IP[ ]	/* InterpolatePts */
NPUSHB[ ]	/* 19 values pushed */
54 6 70 6 86 6 102 6 118 6 134 6 150 6 166 6 182 6 9 
DELTAP1[ ]	/* DeltaExceptionP1 */
IUP[0]	/* InterpolateUntPts */
IUP[1]	/* InterpolateUntPts */";
};
width = 1284;
},
{
layerId = m002;
paths = (
{
closed = 1;
nodes = (
"361 0 LINE",
"361 492 LINE",
"539 677 LINE",
"1055 0 LINE",
"1285 0 LINE",
"667 813 LINE",
"1240 1456 LINE",
"1008 1456 LINE",
"361 736 LINE",
"361 1456 LINE",
"169 1456 LINE",
"169 0 LINE"
);
}
);
userData = {
assembly = "SVTCA[0]	/* SetFreedomAndProjectionVectorToAxis */
PUSHB[ ]	/* 1 value pushed */
0 
RCVT[ ]	/* ReadCVT */
IF[ ]	/* If */
PUSHB[ ]	/* 1 value pushed */
5 
MDAP[1]	/* MoveDirectAbsPt */
ELSE[ ]	/* Else */
PUSHB[ ]	/* 2 values pushed */
5 30 
MIAP[0]	/* MoveIndirectAbsPt */
EIF[ ]	/* EndIf */
PUSHB[ ]	/* 1 value pushed */
0 
RCVT[ ]	/* ReadCVT */
IF[ ]	/* If */
PUSHB[ ]	/* 1 value pushed */
7 
MDAP[1]	/* MoveDirectAbsPt */
ELSE[ ]	/* Else */
PUSHB[ ]	/* 2 values pushed */
7 30 
MIAP[0]	/* MoveIndirectAbsPt */
EIF[ ]	/* EndIf */
PUSHB[ ]	/* 1 value pushed */
0 
RCVT[ ]	/* ReadCVT */
IF[ ]	/* If */
PUSHB[ ]	/* 1 value pushed */
2 
MDAP[1]	/* MoveDirectAbsPt */
ELSE[ ]	/* Else */
PUSHB[ ]	/* 2 values pushed */
2 18 
MIAP[0]	/* MoveIndirectAbsPt */
EIF[ ]	/* EndIf */
PUSHB[ ]	/* 1 value pushed */
0 
RCVT[ ]	/* ReadCVT */
IF[ ]	/* If */
PUSHB[ ]	/* 1 value pushed */
11 
MDAP[1]	/* MoveDirectAbsPt */
ELSE[ ]	/* Else */
PUSHB[ ]	/* 2 values pushed */
11 18 
MIAP[0]	/* MoveIndirectAbsPt */
EIF[ ]	/* EndIf */
PUSHB[ ]	/* 3 values pushed */
0 2 5 
SRP1[ ]	/* SetRefPoint1 */
SRP2[ ]	/* SetRefPoint2 */
IP[ ]	/* InterpolatePts */
NPUSHB[ ]	/* 17 values pushed */
74 0 90 0 106 0 122 0 138 0 154 0 170 0 186 0 8 
DELTAP1[ ]	/* DeltaExceptionP1 */
PUSHB[ ]	/* 3 values pushed */
57 0 1 
DELTAP1[ ]	/* DeltaExceptionP1 */
PUSHB[ ]	/* 3 values pushed */
6 5 2 
SRP1[ ]	/* SetRefPoint1 */
SRP2[ ]	/* SetRefPoint2 */
IP[ ]	/* InterpolatePts */
NPUSHB[ ]	/* 19 values pushed */
54 6 70 6 86 6 102 6 118 6 134 6 150 6 166 6 182 6 9 
DELTAP1[ ]	/* DeltaExceptionP1 */
IUP[0]	/* InterpolateUntPts */
IUP[1]	/* InterpolateUntPts */";
};
width = 1284;
}
);
note = uni004B;
rightKerningGroup = K;
unicode = 004B;
},
{
glyphname = L;
lastChange = "2020-11-29 18:16:05 +0000";
layers = (
{
layerId = "A9B054E9-1A63-4AEF-9EE1-561B1DFE8422";
paths = (
{
closed = 1;
nodes = (
"1002 0 LINE",
"1002 54 LINE",
"255 54 LINE",
"255 1456 LINE",
"200 1456 LINE",
"200 0 LINE"
);
}
);
userData = {
assembly = "SVTCA[0]	/* SetFreedomAndProjectionVectorToAxis */
PUSHB[ ]	/* 1 value pushed */
0 
RCVT[ ]	/* ReadCVT */
IF[ ]	/* If */
PUSHB[ ]	/* 1 value pushed */
4 
MDAP[1]	/* MoveDirectAbsPt */
ELSE[ ]	/* Else */
PUSHB[ ]	/* 2 values pushed */
4 30 
MIAP[0]	/* MoveIndirectAbsPt */
EIF[ ]	/* EndIf */
PUSHB[ ]	/* 1 value pushed */
0 
RCVT[ ]	/* ReadCVT */
IF[ ]	/* If */
PUSHB[ ]	/* 1 value pushed */
2 
MDAP[1]	/* MoveDirectAbsPt */
ELSE[ ]	/* Else */
PUSHB[ ]	/* 2 values pushed */
2 18 
MIAP[0]	/* MoveIndirectAbsPt */
EIF[ ]	/* EndIf */
PUSHB[ ]	/* 2 values pushed */
0 1 
PUSHB[ ]	/* 1 value pushed */
10 
CALL[ ]	/* CallFunction */
IF[ ]	/* If */
POP[ ]	/* PopTopStack */
MDRP[11000]	/* MoveDirectRelPt */
ELSE[ ]	/* Else */
MIRP[10100]	/* MoveIndirectRelPt */
EIF[ ]	/* EndIf */
IUP[0]	/* InterpolateUntPts */
IUP[1]	/* InterpolateUntPts */";
};
width = 1102;
},
{
layerId = m002;
paths = (
{
closed = 1;
nodes = (
"1052 0 LINE",
"1052 157 LINE",
"362 157 LINE",
"362 1456 LINE",
"169 1456 LINE",
"169 0 LINE"
);
}
);
userData = {
assembly = "SVTCA[0]	/* SetFreedomAndProjectionVectorToAxis */
PUSHB[ ]	/* 1 value pushed */
0 
RCVT[ ]	/* ReadCVT */
IF[ ]	/* If */
PUSHB[ ]	/* 1 value pushed */
4 
MDAP[1]	/* MoveDirectAbsPt */
ELSE[ ]	/* Else */
PUSHB[ ]	/* 2 values pushed */
4 30 
MIAP[0]	/* MoveIndirectAbsPt */
EIF[ ]	/* EndIf */
PUSHB[ ]	/* 1 value pushed */
0 
RCVT[ ]	/* ReadCVT */
IF[ ]	/* If */
PUSHB[ ]	/* 1 value pushed */
2 
MDAP[1]	/* MoveDirectAbsPt */
ELSE[ ]	/* Else */
PUSHB[ ]	/* 2 values pushed */
2 18 
MIAP[0]	/* MoveIndirectAbsPt */
EIF[ ]	/* EndIf */
PUSHB[ ]	/* 2 values pushed */
0 1 
PUSHB[ ]	/* 1 value pushed */
10 
CALL[ ]	/* CallFunction */
IF[ ]	/* If */
POP[ ]	/* PopTopStack */
MDRP[11000]	/* MoveDirectRelPt */
ELSE[ ]	/* Else */
MIRP[10100]	/* MoveIndirectRelPt */
EIF[ ]	/* EndIf */
IUP[0]	/* InterpolateUntPts */
IUP[1]	/* InterpolateUntPts */";
};
width = 1102;
}
);
note = uni004C;
rightKerningGroup = L;
unicode = 004C;
},
{
glyphname = M;
lastChange = "2020-11-29 18:16:05 +0000";
layers = (
{
layerId = "A9B054E9-1A63-4AEF-9EE1-561B1DFE8422";
paths = (
{
closed = 1;
nodes = (
"254 0 LINE",
"254 1369 LINE",
"855 0 LINE",
"898 0 LINE",
"1502 1376 LINE",
"1502 0 LINE",
"1556 0 LINE",
"1556 1456 LINE",
"1477 1456 LINE",
"876 79 LINE",
"277 1456 LINE",
"200 1456 LINE",
"200 0 LINE"
);
}
);
userData = {
assembly = "SVTCA[0]	/* SetFreedomAndProjectionVectorToAxis */
PUSHB[ ]	/* 1 value pushed */
0 
RCVT[ ]	/* ReadCVT */
IF[ ]	/* If */
PUSHB[ ]	/* 1 value pushed */
0 
MDAP[1]	/* MoveDirectAbsPt */
ELSE[ ]	/* Else */
PUSHB[ ]	/* 2 values pushed */
0 30 
MIAP[0]	/* MoveIndirectAbsPt */
EIF[ ]	/* EndIf */
PUSHB[ ]	/* 1 value pushed */
0 
RCVT[ ]	/* ReadCVT */
IF[ ]	/* If */
PUSHB[ ]	/* 1 value pushed */
2 
MDAP[1]	/* MoveDirectAbsPt */
ELSE[ ]	/* Else */
PUSHB[ ]	/* 2 values pushed */
2 30 
MIAP[0]	/* MoveIndirectAbsPt */
EIF[ ]	/* EndIf */
PUSHB[ ]	/* 1 value pushed */
0 
RCVT[ ]	/* ReadCVT */
IF[ ]	/* If */
PUSHB[ ]	/* 1 value pushed */
4 
MDAP[1]	/* MoveDirectAbsPt */
ELSE[ ]	/* Else */
PUSHB[ ]	/* 2 values pushed */
4 18 
MIAP[0]	/* MoveIndirectAbsPt */
EIF[ ]	/* EndIf */
PUSHB[ ]	/* 1 value pushed */
0 
RCVT[ ]	/* ReadCVT */
IF[ ]	/* If */
PUSHB[ ]	/* 1 value pushed */
8 
MDAP[1]	/* MoveDirectAbsPt */
ELSE[ ]	/* Else */
PUSHB[ ]	/* 2 values pushed */
8 18 
MIAP[0]	/* MoveIndirectAbsPt */
EIF[ ]	/* EndIf */
PUSHB[ ]	/* 1 value pushed */
0 
RCVT[ ]	/* ReadCVT */
IF[ ]	/* If */
PUSHB[ ]	/* 1 value pushed */
12 
MDAP[1]	/* MoveDirectAbsPt */
ELSE[ ]	/* Else */
PUSHB[ ]	/* 2 values pushed */
12 18 
MIAP[0]	/* MoveIndirectAbsPt */
EIF[ ]	/* EndIf */
PUSHB[ ]	/* 3 values pushed */
1 0 4 
SRP1[ ]	/* SetRefPoint1 */
SRP2[ ]	/* SetRefPoint2 */
IP[ ]	/* InterpolatePts */
PUSHB[ ]	/* 3 values pushed */
7 0 4 
SRP1[ ]	/* SetRefPoint1 */
SRP2[ ]	/* SetRefPoint2 */
IP[ ]	/* InterpolatePts */
PUSHB[ ]	/* 3 values pushed */
10 0 4 
SRP1[ ]	/* SetRefPoint1 */
SRP2[ ]	/* SetRefPoint2 */
IP[ ]	/* InterpolatePts */
IUP[0]	/* InterpolateUntPts */
IUP[1]	/* InterpolateUntPts */";
};
width = 1788;
},
{
layerId = m002;
paths = (
{
closed = 1;
nodes = (
"361 0 LINE",
"342 1176 LINE",
"819 0 LINE",
"966 0 LINE",
"1444 1179 LINE",
"1426 0 LINE",
"1618 0 LINE",
"1618 1456 LINE",
"1369 1456 LINE",
"893 268 LINE",
"417 1456 LINE",
"169 1456 LINE",
"169 0 LINE"
);
}
);
userData = {
assembly = "SVTCA[0]	/* SetFreedomAndProjectionVectorToAxis */
PUSHB[ ]	/* 1 value pushed */
0 
RCVT[ ]	/* ReadCVT */
IF[ ]	/* If */
PUSHB[ ]	/* 1 value pushed */
0 
MDAP[1]	/* MoveDirectAbsPt */
ELSE[ ]	/* Else */
PUSHB[ ]	/* 2 values pushed */
0 30 
MIAP[0]	/* MoveIndirectAbsPt */
EIF[ ]	/* EndIf */
PUSHB[ ]	/* 1 value pushed */
0 
RCVT[ ]	/* ReadCVT */
IF[ ]	/* If */
PUSHB[ ]	/* 1 value pushed */
2 
MDAP[1]	/* MoveDirectAbsPt */
ELSE[ ]	/* Else */
PUSHB[ ]	/* 2 values pushed */
2 30 
MIAP[0]	/* MoveIndirectAbsPt */
EIF[ ]	/* EndIf */
PUSHB[ ]	/* 1 value pushed */
0 
RCVT[ ]	/* ReadCVT */
IF[ ]	/* If */
PUSHB[ ]	/* 1 value pushed */
4 
MDAP[1]	/* MoveDirectAbsPt */
ELSE[ ]	/* Else */
PUSHB[ ]	/* 2 values pushed */
4 18 
MIAP[0]	/* MoveIndirectAbsPt */
EIF[ ]	/* EndIf */
PUSHB[ ]	/* 1 value pushed */
0 
RCVT[ ]	/* ReadCVT */
IF[ ]	/* If */
PUSHB[ ]	/* 1 value pushed */
8 
MDAP[1]	/* MoveDirectAbsPt */
ELSE[ ]	/* Else */
PUSHB[ ]	/* 2 values pushed */
8 18 
MIAP[0]	/* MoveIndirectAbsPt */
EIF[ ]	/* EndIf */
PUSHB[ ]	/* 1 value pushed */
0 
RCVT[ ]	/* ReadCVT */
IF[ ]	/* If */
PUSHB[ ]	/* 1 value pushed */
12 
MDAP[1]	/* MoveDirectAbsPt */
ELSE[ ]	/* Else */
PUSHB[ ]	/* 2 values pushed */
12 18 
MIAP[0]	/* MoveIndirectAbsPt */
EIF[ ]	/* EndIf */
PUSHB[ ]	/* 3 values pushed */
1 0 4 
SRP1[ ]	/* SetRefPoint1 */
SRP2[ ]	/* SetRefPoint2 */
IP[ ]	/* InterpolatePts */
PUSHB[ ]	/* 3 values pushed */
7 0 4 
SRP1[ ]	/* SetRefPoint1 */
SRP2[ ]	/* SetRefPoint2 */
IP[ ]	/* InterpolatePts */
PUSHB[ ]	/* 3 values pushed */
10 0 4 
SRP1[ ]	/* SetRefPoint1 */
SRP2[ ]	/* SetRefPoint2 */
IP[ ]	/* InterpolatePts */
IUP[0]	/* InterpolateUntPts */
IUP[1]	/* InterpolateUntPts */";
};
width = 1788;
}
);
note = uni004D;
rightKerningGroup = H;
unicode = 004D;
},
{
glyphname = N;
lastChange = "2020-11-29 18:16:05 +0000";
layers = (
{
layerId = "A9B054E9-1A63-4AEF-9EE1-561B1DFE8422";
paths = (
{
closed = 1;
nodes = (
"255 0 LINE",
"255 1364 LINE",
"1195 0 LINE",
"1249 0 LINE",
"1249 1456 LINE",
"1195 1456 LINE",
"1195 95 LINE",
"255 1456 LINE",
"200 1456 LINE",
"200 0 LINE"
);
}
);
userData = {
assembly = "PUSHB[ ]	/* 3 values pushed */
1 10 11 
SRP1[ ]	/* SetRefPoint1 */
SRP2[ ]	/* SetRefPoint2 */
IP[ ]	/* InterpolatePts */
SVTCA[0]	/* SetFreedomAndProjectionVectorToAxis */
PUSHB[ ]	/* 1 value pushed */
0 
RCVT[ ]	/* ReadCVT */
IF[ ]	/* If */
PUSHB[ ]	/* 1 value pushed */
5 
MDAP[1]	/* MoveDirectAbsPt */
ELSE[ ]	/* Else */
PUSHB[ ]	/* 2 values pushed */
5 30 
MIAP[0]	/* MoveIndirectAbsPt */
EIF[ ]	/* EndIf */
PUSHB[ ]	/* 1 value pushed */
0 
RCVT[ ]	/* ReadCVT */
IF[ ]	/* If */
PUSHB[ ]	/* 1 value pushed */
8 
MDAP[1]	/* MoveDirectAbsPt */
ELSE[ ]	/* Else */
PUSHB[ ]	/* 2 values pushed */
8 30 
MIAP[0]	/* MoveIndirectAbsPt */
EIF[ ]	/* EndIf */
PUSHB[ ]	/* 1 value pushed */
0 
RCVT[ ]	/* ReadCVT */
IF[ ]	/* If */
PUSHB[ ]	/* 1 value pushed */
0 
MDAP[1]	/* MoveDirectAbsPt */
ELSE[ ]	/* Else */
PUSHB[ ]	/* 2 values pushed */
0 18 
MIAP[0]	/* MoveIndirectAbsPt */
EIF[ ]	/* EndIf */
PUSHB[ ]	/* 1 value pushed */
0 
RCVT[ ]	/* ReadCVT */
IF[ ]	/* If */
PUSHB[ ]	/* 1 value pushed */
3 
MDAP[1]	/* MoveDirectAbsPt */
ELSE[ ]	/* Else */
PUSHB[ ]	/* 2 values pushed */
3 18 
MIAP[0]	/* MoveIndirectAbsPt */
EIF[ ]	/* EndIf */
PUSHB[ ]	/* 3 values pushed */
2 5 0 
SRP1[ ]	/* SetRefPoint1 */
SRP2[ ]	/* SetRefPoint2 */
IP[ ]	/* InterpolatePts */
PUSHB[ ]	/* 3 values pushed */
7 5 0 
SRP1[ ]	/* SetRefPoint1 */
SRP2[ ]	/* SetRefPoint2 */
IP[ ]	/* InterpolatePts */
IUP[0]	/* InterpolateUntPts */
IUP[1]	/* InterpolateUntPts */";
};
width = 1460;
},
{
layerId = m002;
paths = (
{
closed = 1;
nodes = (
"362 0 LINE",
"362 1122 LINE",
"1095 0 LINE",
"1288 0 LINE",
"1288 1456 LINE",
"1097 1456 LINE",
"1097 329 LINE",
"362 1456 LINE",
"169 1456 LINE",
"169 0 LINE"
);
}
);
userData = {
assembly = "PUSHB[ ]	/* 3 values pushed */
1 10 11 
SRP1[ ]	/* SetRefPoint1 */
SRP2[ ]	/* SetRefPoint2 */
IP[ ]	/* InterpolatePts */
SVTCA[0]	/* SetFreedomAndProjectionVectorToAxis */
PUSHB[ ]	/* 1 value pushed */
0 
RCVT[ ]	/* ReadCVT */
IF[ ]	/* If */
PUSHB[ ]	/* 1 value pushed */
5 
MDAP[1]	/* MoveDirectAbsPt */
ELSE[ ]	/* Else */
PUSHB[ ]	/* 2 values pushed */
5 30 
MIAP[0]	/* MoveIndirectAbsPt */
EIF[ ]	/* EndIf */
PUSHB[ ]	/* 1 value pushed */
0 
RCVT[ ]	/* ReadCVT */
IF[ ]	/* If */
PUSHB[ ]	/* 1 value pushed */
8 
MDAP[1]	/* MoveDirectAbsPt */
ELSE[ ]	/* Else */
PUSHB[ ]	/* 2 values pushed */
8 30 
MIAP[0]	/* MoveIndirectAbsPt */
EIF[ ]	/* EndIf */
PUSHB[ ]	/* 1 value pushed */
0 
RCVT[ ]	/* ReadCVT */
IF[ ]	/* If */
PUSHB[ ]	/* 1 value pushed */
0 
MDAP[1]	/* MoveDirectAbsPt */
ELSE[ ]	/* Else */
PUSHB[ ]	/* 2 values pushed */
0 18 
MIAP[0]	/* MoveIndirectAbsPt */
EIF[ ]	/* EndIf */
PUSHB[ ]	/* 1 value pushed */
0 
RCVT[ ]	/* ReadCVT */
IF[ ]	/* If */
PUSHB[ ]	/* 1 value pushed */
3 
MDAP[1]	/* MoveDirectAbsPt */
ELSE[ ]	/* Else */
PUSHB[ ]	/* 2 values pushed */
3 18 
MIAP[0]	/* MoveIndirectAbsPt */
EIF[ ]	/* EndIf */
PUSHB[ ]	/* 3 values pushed */
2 5 0 
SRP1[ ]	/* SetRefPoint1 */
SRP2[ ]	/* SetRefPoint2 */
IP[ ]	/* InterpolatePts */
PUSHB[ ]	/* 3 values pushed */
7 5 0 
SRP1[ ]	/* SetRefPoint1 */
SRP2[ ]	/* SetRefPoint2 */
IP[ ]	/* InterpolatePts */
IUP[0]	/* InterpolateUntPts */
IUP[1]	/* InterpolateUntPts */";
};
width = 1460;
}
);
note = uni004E;
rightKerningGroup = H;
unicode = 004E;
},
{
glyphname = O;
lastChange = "2020-11-29 18:18:40 +0000";
layers = (
{
layerId = "A9B054E9-1A63-4AEF-9EE1-561B1DFE8422";
paths = (
{
closed = 1;
nodes = (
"900 -20 OFFCURVE",
"1074 91 OFFCURVE",
"1164 285 CURVE SMOOTH",
"1209 382 OFFCURVE",
"1231 493 OFFCURVE",
"1231 619 CURVE SMOOTH",
"1231 837 LINE SMOOTH",
"1231 1086 OFFCURVE",
"1137 1291 OFFCURVE",
"970 1397 CURVE SMOOTH",
"886 1450 OFFCURVE",
"790 1476 OFFCURVE",
"681 1476 CURVE SMOOTH",
"465 1476 OFFCURVE",
"291 1366 OFFCURVE",
"201 1171 CURVE SMOOTH",
"156 1074 OFFCURVE",
"133 962 OFFCURVE",
"133 837 CURVE SMOOTH",
"133 627 LINE SMOOTH",
"133 231 OFFCURVE",
"355 -20 OFFCURVE",
"683 -20 CURVE SMOOTH"
);
},
{
closed = 1;
nodes = (
"188 832 LINE SMOOTH",
"188 1196 OFFCURVE",
"381 1422 OFFCURVE",
"681 1422 CURVE SMOOTH",
"985 1422 OFFCURVE",
"1177 1191 OFFCURVE",
"1177 839 CURVE SMOOTH",
"1177 627 LINE SMOOTH",
"1177 260 OFFCURVE",
"987 34 OFFCURVE",
"683 34 CURVE SMOOTH",
"355 34 OFFCURVE",
"188 297 OFFCURVE",
"188 619 CURVE SMOOTH"
);
}
);
userData = {
assembly = "SVTCA[0]	/* SetFreedomAndProjectionVectorToAxis */
PUSHB[ ]	/* 1 value pushed */
0 
RCVT[ ]	/* ReadCVT */
IF[ ]	/* If */
PUSHB[ ]	/* 1 value pushed */
13 
MDAP[1]	/* MoveDirectAbsPt */
ELSE[ ]	/* Else */
PUSHB[ ]	/* 2 values pushed */
13 30 
MIAP[0]	/* MoveIndirectAbsPt */
EIF[ ]	/* EndIf */
PUSHB[ ]	/* 1 value pushed */
0 
RCVT[ ]	/* ReadCVT */
IF[ ]	/* If */
PUSHB[ ]	/* 1 value pushed */
4 
MDAP[1]	/* MoveDirectAbsPt */
ELSE[ ]	/* Else */
PUSHB[ ]	/* 2 values pushed */
4 18 
MIAP[0]	/* MoveIndirectAbsPt */
EIF[ ]	/* EndIf */
PUSHB[ ]	/* 1 value pushed */
13 
SRP0[ ]	/* SetRefPoint0 */
PUSHB[ ]	/* 2 values pushed */
21 1 
PUSHB[ ]	/* 1 value pushed */
10 
CALL[ ]	/* CallFunction */
IF[ ]	/* If */
POP[ ]	/* PopTopStack */
MDRP[11000]	/* MoveDirectRelPt */
ELSE[ ]	/* Else */
MIRP[10100]	/* MoveIndirectRelPt */
EIF[ ]	/* EndIf */
PUSHB[ ]	/* 1 value pushed */
4 
SRP0[ ]	/* SetRefPoint0 */
PUSHB[ ]	/* 2 values pushed */
28 1 
PUSHB[ ]	/* 1 value pushed */
10 
CALL[ ]	/* CallFunction */
IF[ ]	/* If */
POP[ ]	/* PopTopStack */
MDRP[11000]	/* MoveDirectRelPt */
ELSE[ ]	/* Else */
MIRP[10100]	/* MoveIndirectRelPt */
EIF[ ]	/* EndIf */
IUP[0]	/* InterpolateUntPts */
IUP[1]	/* InterpolateUntPts */";
};
width = 1408;
},
{
layerId = m002;
paths = (
{
closed = 1;
nodes = (
"929 -20 OFFCURVE",
"1110 95 OFFCURVE",
"1206 308 CURVE SMOOTH",
"1254 414 OFFCURVE",
"1278 538 OFFCURVE",
"1278 681 CURVE SMOOTH",
"1278 773 LINE SMOOTH",
"1278 1057 OFFCURVE",
"1179 1279 OFFCURVE",
"1001 1392 CURVE SMOOTH",
"912 1448 OFFCURVE",
"809 1476 OFFCURVE",
"692 1476 CURVE SMOOTH",
"463 1476 OFFCURVE",
"277 1359 OFFCURVE",
"180 1144 CURVE SMOOTH",
"131 1037 OFFCURVE",
"107 913 OFFCURVE",
"107 773 CURVE SMOOTH",
"107 668 LINE SMOOTH",
"111 282 OFFCURVE",
"320 -20 OFFCURVE",
"694 -20 CURVE SMOOTH"
);
},
{
closed = 1;
nodes = (
"298 788 LINE SMOOTH",
"302 1116 OFFCURVE",
"449 1311 OFFCURVE",
"692 1311 CURVE SMOOTH",
"941 1311 OFFCURVE",
"1087 1120 OFFCURVE",
"1087 775 CURVE SMOOTH",
"1087 667 LINE SMOOTH",
"1083 330 OFFCURVE",
"942 143 OFFCURVE",
"694 143 CURVE SMOOTH",
"447 143 OFFCURVE",
"298 346 OFFCURVE",
"298 681 CURVE SMOOTH"
);
}
);
userData = {
assembly = "SVTCA[0]	/* SetFreedomAndProjectionVectorToAxis */
PUSHB[ ]	/* 1 value pushed */
0 
RCVT[ ]	/* ReadCVT */
IF[ ]	/* If */
PUSHB[ ]	/* 1 value pushed */
13 
MDAP[1]	/* MoveDirectAbsPt */
ELSE[ ]	/* Else */
PUSHB[ ]	/* 2 values pushed */
13 30 
MIAP[0]	/* MoveIndirectAbsPt */
EIF[ ]	/* EndIf */
PUSHB[ ]	/* 1 value pushed */
0 
RCVT[ ]	/* ReadCVT */
IF[ ]	/* If */
PUSHB[ ]	/* 1 value pushed */
4 
MDAP[1]	/* MoveDirectAbsPt */
ELSE[ ]	/* Else */
PUSHB[ ]	/* 2 values pushed */
4 18 
MIAP[0]	/* MoveIndirectAbsPt */
EIF[ ]	/* EndIf */
PUSHB[ ]	/* 1 value pushed */
13 
SRP0[ ]	/* SetRefPoint0 */
PUSHB[ ]	/* 2 values pushed */
21 1 
PUSHB[ ]	/* 1 value pushed */
10 
CALL[ ]	/* CallFunction */
IF[ ]	/* If */
POP[ ]	/* PopTopStack */
MDRP[11000]	/* MoveDirectRelPt */
ELSE[ ]	/* Else */
MIRP[10100]	/* MoveIndirectRelPt */
EIF[ ]	/* EndIf */
PUSHB[ ]	/* 1 value pushed */
4 
SRP0[ ]	/* SetRefPoint0 */
PUSHB[ ]	/* 2 values pushed */
28 1 
PUSHB[ ]	/* 1 value pushed */
10 
CALL[ ]	/* CallFunction */
IF[ ]	/* If */
POP[ ]	/* PopTopStack */
MDRP[11000]	/* MoveDirectRelPt */
ELSE[ ]	/* Else */
MIRP[10100]	/* MoveIndirectRelPt */
EIF[ ]	/* EndIf */
IUP[0]	/* InterpolateUntPts */
IUP[1]	/* InterpolateUntPts */";
};
width = 1408;
}
);
leftKerningGroup = C;
note = uni004F;
rightKerningGroup = D;
unicode = 004F;
},
{
glyphname = P;
lastChange = "2020-11-29 18:16:05 +0000";
layers = (
{
layerId = "A9B054E9-1A63-4AEF-9EE1-561B1DFE8422";
paths = (
{
closed = 1;
nodes = (
"254 0 LINE",
"254 615 LINE",
"662 615 LINE SMOOTH",
"958 617.667 OFFCURVE",
"1125 767 OFFCURVE",
"1125 1031 CURVE SMOOTH",
"1125 1297.667 OFFCURVE",
"952.333 1456 OFFCURVE",
"655 1456 CURVE SMOOTH",
"200 1456 LINE",
"200 0 LINE"
);
},
{
closed = 1;
nodes = (
"254 1402 LINE",
"655 1402 LINE SMOOTH",
"917.667 1402 OFFCURVE",
"1071 1263.667 OFFCURVE",
"1071 1029 CURVE SMOOTH",
"1071 802.333 OFFCURVE",
"917.667 669 OFFCURVE",
"655 669 CURVE SMOOTH",
"254 669 LINE"
);
}
);
userData = {
assembly = "PUSHB[ ]	/* 3 values pushed */
10 20 21 
SRP1[ ]	/* SetRefPoint1 */
SRP2[ ]	/* SetRefPoint2 */
IP[ ]	/* InterpolatePts */
PUSHB[ ]	/* 1 value pushed */
10 
SRP0[ ]	/* SetRefPoint0 */
PUSHB[ ]	/* 1 value pushed */
12 
MDRP[10000]	/* MoveDirectRelPt */
SVTCA[0]	/* SetFreedomAndProjectionVectorToAxis */
PUSHB[ ]	/* 1 value pushed */
0 
RCVT[ ]	/* ReadCVT */
IF[ ]	/* If */
PUSHB[ ]	/* 1 value pushed */
3 
MDAP[1]	/* MoveDirectAbsPt */
ELSE[ ]	/* Else */
PUSHB[ ]	/* 2 values pushed */
3 30 
MIAP[0]	/* MoveIndirectAbsPt */
EIF[ ]	/* EndIf */
PUSHB[ ]	/* 1 value pushed */
0 
RCVT[ ]	/* ReadCVT */
IF[ ]	/* If */
PUSHB[ ]	/* 1 value pushed */
1 
MDAP[1]	/* MoveDirectAbsPt */
ELSE[ ]	/* Else */
PUSHB[ ]	/* 2 values pushed */
1 18 
MIAP[0]	/* MoveIndirectAbsPt */
EIF[ ]	/* EndIf */
PUSHB[ ]	/* 3 values pushed */
11 3 1 
SRP1[ ]	/* SetRefPoint1 */
SRP2[ ]	/* SetRefPoint2 */
IP[ ]	/* InterpolatePts */
PUSHB[ ]	/* 1 value pushed */
11 
MDAP[1]	/* MoveDirectAbsPt */
PUSHB[ ]	/* 2 values pushed */
0 1 
PUSHB[ ]	/* 1 value pushed */
10 
CALL[ ]	/* CallFunction */
IF[ ]	/* If */
POP[ ]	/* PopTopStack */
MDRP[11000]	/* MoveDirectRelPt */
ELSE[ ]	/* Else */
MIRP[10100]	/* MoveIndirectRelPt */
EIF[ ]	/* EndIf */
PUSHB[ ]	/* 1 value pushed */
3 
SRP0[ ]	/* SetRefPoint0 */
PUSHB[ ]	/* 2 values pushed */
18 1 
PUSHB[ ]	/* 1 value pushed */
10 
CALL[ ]	/* CallFunction */
IF[ ]	/* If */
POP[ ]	/* PopTopStack */
MDRP[11000]	/* MoveDirectRelPt */
ELSE[ ]	/* Else */
MIRP[10100]	/* MoveIndirectRelPt */
EIF[ ]	/* EndIf */
IUP[0]	/* InterpolateUntPts */
IUP[1]	/* InterpolateUntPts */";
};
width = 1292;
},
{
layerId = m002;
paths = (
{
closed = 1;
nodes = (
"361 0 LINE",
"361 570 LINE",
"704 570 LINE SMOOTH",
"1033.333 570 OFFCURVE",
"1216 728.333 OFFCURVE",
"1216 1011 CURVE SMOOTH",
"1216 1279 OFFCURVE",
"1024.667 1456 OFFCURVE",
"706 1456 CURVE SMOOTH",
"169 1456 LINE",
"169 0 LINE"
);
},
{
closed = 1;
nodes = (
"361 1298 LINE",
"717 1298 LINE SMOOTH",
"907.667 1294 OFFCURVE",
"1024 1182.333 OFFCURVE",
"1024 1009 CURVE SMOOTH",
"1024 826.333 OFFCURVE",
"911.333 727 OFFCURVE",
"706 727 CURVE SMOOTH",
"361 727 LINE"
);
}
);
userData = {
assembly = "PUSHB[ ]	/* 3 values pushed */
10 20 21 
SRP1[ ]	/* SetRefPoint1 */
SRP2[ ]	/* SetRefPoint2 */
IP[ ]	/* InterpolatePts */
PUSHB[ ]	/* 1 value pushed */
10 
SRP0[ ]	/* SetRefPoint0 */
PUSHB[ ]	/* 1 value pushed */
12 
MDRP[10000]	/* MoveDirectRelPt */
SVTCA[0]	/* SetFreedomAndProjectionVectorToAxis */
PUSHB[ ]	/* 1 value pushed */
0 
RCVT[ ]	/* ReadCVT */
IF[ ]	/* If */
PUSHB[ ]	/* 1 value pushed */
3 
MDAP[1]	/* MoveDirectAbsPt */
ELSE[ ]	/* Else */
PUSHB[ ]	/* 2 values pushed */
3 30 
MIAP[0]	/* MoveIndirectAbsPt */
EIF[ ]	/* EndIf */
PUSHB[ ]	/* 1 value pushed */
0 
RCVT[ ]	/* ReadCVT */
IF[ ]	/* If */
PUSHB[ ]	/* 1 value pushed */
1 
MDAP[1]	/* MoveDirectAbsPt */
ELSE[ ]	/* Else */
PUSHB[ ]	/* 2 values pushed */
1 18 
MIAP[0]	/* MoveIndirectAbsPt */
EIF[ ]	/* EndIf */
PUSHB[ ]	/* 3 values pushed */
11 3 1 
SRP1[ ]	/* SetRefPoint1 */
SRP2[ ]	/* SetRefPoint2 */
IP[ ]	/* InterpolatePts */
PUSHB[ ]	/* 1 value pushed */
11 
MDAP[1]	/* MoveDirectAbsPt */
PUSHB[ ]	/* 2 values pushed */
0 1 
PUSHB[ ]	/* 1 value pushed */
10 
CALL[ ]	/* CallFunction */
IF[ ]	/* If */
POP[ ]	/* PopTopStack */
MDRP[11000]	/* MoveDirectRelPt */
ELSE[ ]	/* Else */
MIRP[10100]	/* MoveIndirectRelPt */
EIF[ ]	/* EndIf */
PUSHB[ ]	/* 1 value pushed */
3 
SRP0[ ]	/* SetRefPoint0 */
PUSHB[ ]	/* 2 values pushed */
18 1 
PUSHB[ ]	/* 1 value pushed */
10 
CALL[ ]	/* CallFunction */
IF[ ]	/* If */
POP[ ]	/* PopTopStack */
MDRP[11000]	/* MoveDirectRelPt */
ELSE[ ]	/* Else */
MIRP[10100]	/* MoveIndirectRelPt */
EIF[ ]	/* EndIf */
IUP[0]	/* InterpolateUntPts */
IUP[1]	/* InterpolateUntPts */";
};
width = 1292;
}
);
note = uni0050;
rightKerningGroup = P;
unicode = 0050;
},
{
glyphname = Q;
lastChange = "2020-11-29 18:18:43 +0000";
layers = (
{
layerId = "A9B054E9-1A63-4AEF-9EE1-561B1DFE8422";
paths = (
{
closed = 1;
nodes = (
"1191 -228 LINE",
"924 33 LINE",
"1121 132 OFFCURVE",
"1231 347 OFFCURVE",
"1231 619 CURVE SMOOTH",
"1231 837 LINE SMOOTH",
"1231 1086 OFFCURVE",
"1137 1291 OFFCURVE",
"970 1397 CURVE SMOOTH",
"886 1450 OFFCURVE",
"790 1476 OFFCURVE",
"681 1476 CURVE SMOOTH",
"465 1476 OFFCURVE",
"291 1366 OFFCURVE",
"201 1171 CURVE SMOOTH",
"156 1074 OFFCURVE",
"133 962 OFFCURVE",
"133 837 CURVE SMOOTH",
"133 627 LINE SMOOTH",
"133 231 OFFCURVE",
"355 -20 OFFCURVE",
"683 -20 CURVE SMOOTH",
"746 -20 OFFCURVE",
"808 -10 OFFCURVE",
"868 10 CURVE",
"1152 -263 LINE"
);
},
{
closed = 1;
nodes = (
"188 832 LINE SMOOTH",
"188 1196 OFFCURVE",
"381 1422 OFFCURVE",
"681 1422 CURVE SMOOTH",
"985 1422 OFFCURVE",
"1177 1191 OFFCURVE",
"1177 839 CURVE SMOOTH",
"1177 627 LINE SMOOTH",
"1177 260 OFFCURVE",
"987 34 OFFCURVE",
"683 34 CURVE SMOOTH",
"355 34 OFFCURVE",
"188 297 OFFCURVE",
"188 619 CURVE SMOOTH"
);
}
);
userData = {
assembly = "PUSHB[ ]	/* 3 values pushed */
8 35 36 
SRP1[ ]	/* SetRefPoint1 */
SRP2[ ]	/* SetRefPoint2 */
IP[ ]	/* InterpolatePts */
PUSHB[ ]	/* 1 value pushed */
8 
SRP0[ ]	/* SetRefPoint0 */
PUSHB[ ]	/* 1 value pushed */
25 
MDRP[10000]	/* MoveDirectRelPt */
SVTCA[0]	/* SetFreedomAndProjectionVectorToAxis */
PUSHB[ ]	/* 1 value pushed */
0 
RCVT[ ]	/* ReadCVT */
IF[ ]	/* If */
PUSHB[ ]	/* 1 value pushed */
17 
MDAP[1]	/* MoveDirectAbsPt */
ELSE[ ]	/* Else */
PUSHB[ ]	/* 2 values pushed */
17 30 
MIAP[0]	/* MoveIndirectAbsPt */
EIF[ ]	/* EndIf */
PUSHB[ ]	/* 1 value pushed */
0 
RCVT[ ]	/* ReadCVT */
IF[ ]	/* If */
PUSHB[ ]	/* 1 value pushed */
8 
MDAP[1]	/* MoveDirectAbsPt */
ELSE[ ]	/* Else */
PUSHB[ ]	/* 2 values pushed */
8 18 
MIAP[0]	/* MoveIndirectAbsPt */
EIF[ ]	/* EndIf */
PUSHB[ ]	/* 3 values pushed */
3 8 17 
SRP1[ ]	/* SetRefPoint1 */
SRP2[ ]	/* SetRefPoint2 */
IP[ ]	/* InterpolatePts */
PUSHB[ ]	/* 1 value pushed */
17 
SRP0[ ]	/* SetRefPoint0 */
PUSHB[ ]	/* 2 values pushed */
25 1 
PUSHB[ ]	/* 1 value pushed */
10 
CALL[ ]	/* CallFunction */
IF[ ]	/* If */
POP[ ]	/* PopTopStack */
MDRP[11000]	/* MoveDirectRelPt */
ELSE[ ]	/* Else */
MIRP[10100]	/* MoveIndirectRelPt */
EIF[ ]	/* EndIf */
PUSHB[ ]	/* 1 value pushed */
8 
SRP0[ ]	/* SetRefPoint0 */
PUSHB[ ]	/* 2 values pushed */
32 1 
PUSHB[ ]	/* 1 value pushed */
10 
CALL[ ]	/* CallFunction */
IF[ ]	/* If */
POP[ ]	/* PopTopStack */
MDRP[11000]	/* MoveDirectRelPt */
ELSE[ ]	/* Else */
MIRP[10100]	/* MoveIndirectRelPt */
EIF[ ]	/* EndIf */
IUP[0]	/* InterpolateUntPts */
IUP[1]	/* InterpolateUntPts */";
};
width = 1408;
},
{
layerId = m002;
paths = (
{
closed = 1;
nodes = (
"1278 -125 LINE",
"1018 79 LINE",
"1179 194 OFFCURVE",
"1273 400 OFFCURVE",
"1273 681 CURVE SMOOTH",
"1273 774 LINE SMOOTH",
"1273 1058 OFFCURVE",
"1174 1278 OFFCURVE",
"996 1391 CURVE SMOOTH",
"907 1448 OFFCURVE",
"803 1476 OFFCURVE",
"686 1476 CURVE SMOOTH",
"457 1476 OFFCURVE",
"271 1359 OFFCURVE",
"174 1144 CURVE SMOOTH",
"125 1037 OFFCURVE",
"101 913 OFFCURVE",
"101 773 CURVE SMOOTH",
"101 668 LINE SMOOTH",
"105 282 OFFCURVE",
"314 -20 OFFCURVE",
"688 -20 CURVE SMOOTH",
"741 -20 OFFCURVE",
"792 -14 OFFCURVE",
"840 -2 CURVE",
"1147 -246 LINE"
);
},
{
closed = 1;
nodes = (
"293 788 LINE SMOOTH",
"297 1116 OFFCURVE",
"445 1311 OFFCURVE",
"686 1311 CURVE SMOOTH",
"939 1311 OFFCURVE",
"1081 1118 OFFCURVE",
"1081 775 CURVE SMOOTH",
"1081 667 LINE SMOOTH",
"1077 330 OFFCURVE",
"936 143 OFFCURVE",
"688 143 CURVE SMOOTH",
"440 143 OFFCURVE",
"293 348 OFFCURVE",
"293 681 CURVE SMOOTH"
);
}
);
userData = {
assembly = "PUSHB[ ]	/* 3 values pushed */
8 35 36 
SRP1[ ]	/* SetRefPoint1 */
SRP2[ ]	/* SetRefPoint2 */
IP[ ]	/* InterpolatePts */
PUSHB[ ]	/* 1 value pushed */
8 
SRP0[ ]	/* SetRefPoint0 */
PUSHB[ ]	/* 1 value pushed */
25 
MDRP[10000]	/* MoveDirectRelPt */
SVTCA[0]	/* SetFreedomAndProjectionVectorToAxis */
PUSHB[ ]	/* 1 value pushed */
0 
RCVT[ ]	/* ReadCVT */
IF[ ]	/* If */
PUSHB[ ]	/* 1 value pushed */
17 
MDAP[1]	/* MoveDirectAbsPt */
ELSE[ ]	/* Else */
PUSHB[ ]	/* 2 values pushed */
17 30 
MIAP[0]	/* MoveIndirectAbsPt */
EIF[ ]	/* EndIf */
PUSHB[ ]	/* 1 value pushed */
0 
RCVT[ ]	/* ReadCVT */
IF[ ]	/* If */
PUSHB[ ]	/* 1 value pushed */
8 
MDAP[1]	/* MoveDirectAbsPt */
ELSE[ ]	/* Else */
PUSHB[ ]	/* 2 values pushed */
8 18 
MIAP[0]	/* MoveIndirectAbsPt */
EIF[ ]	/* EndIf */
PUSHB[ ]	/* 3 values pushed */
3 8 17 
SRP1[ ]	/* SetRefPoint1 */
SRP2[ ]	/* SetRefPoint2 */
IP[ ]	/* InterpolatePts */
PUSHB[ ]	/* 1 value pushed */
17 
SRP0[ ]	/* SetRefPoint0 */
PUSHB[ ]	/* 2 values pushed */
25 1 
PUSHB[ ]	/* 1 value pushed */
10 
CALL[ ]	/* CallFunction */
IF[ ]	/* If */
POP[ ]	/* PopTopStack */
MDRP[11000]	/* MoveDirectRelPt */
ELSE[ ]	/* Else */
MIRP[10100]	/* MoveIndirectRelPt */
EIF[ ]	/* EndIf */
PUSHB[ ]	/* 1 value pushed */
8 
SRP0[ ]	/* SetRefPoint0 */
PUSHB[ ]	/* 2 values pushed */
32 1 
PUSHB[ ]	/* 1 value pushed */
10 
CALL[ ]	/* CallFunction */
IF[ ]	/* If */
POP[ ]	/* PopTopStack */
MDRP[11000]	/* MoveDirectRelPt */
ELSE[ ]	/* Else */
MIRP[10100]	/* MoveIndirectRelPt */
EIF[ ]	/* EndIf */
IUP[0]	/* InterpolateUntPts */
IUP[1]	/* InterpolateUntPts */";
};
width = 1408;
}
);
leftKerningGroup = C;
note = uni0051;
unicode = 0051;
},
